<?xml version="1.0" encoding="utf-8"?>
<!-- Generator: Adobe Illustrator 26.5.0, SVG Export Plug-In . SVG Version: 6.00 Build 0)  -->
<svg version="1.1" id="Capa_1" xmlns="http://www.w3.org/2000/svg" xmlns:xlink="http://www.w3.org/1999/xlink" x="0px" y="0px"
	 viewBox="0 0 85 63" style="enable-background:new 0 0 85 63;" xml:space="preserve">
<style type="text/css">
	.st0{display:none;fill:none;stroke:#304269;stroke-width:5;stroke-miterlimit:10;}
	.st1{fill:#FFFFFF;}
	.st2{fill:none;stroke:#304269;stroke-width:4;stroke-miterlimit:10;}
	.st3{fill:#304269;}
	.st4{fill:#4F6DB0;}
	.st5{fill:#AA2D3F;}
	.st6{fill:#668DE3;}
</style>
<circle class="st0" cx="42.5" cy="32.2" r="28.2"/>
<g>
	<path class="st1" d="M42.5,19.6H28.3c-3.6,0-6.4,0.3-6.3,0.6l17,42.4c0.2,0.4,6.8,0.4,7,0l17-42.4c0.1-0.3-2.7-0.6-6.3-0.6H42.5z"
		/>
</g>
<ellipse class="st2" cx="42.5" cy="29.7" rx="29.8" ry="30.2"/>
<rect x="-0.1" class="st1" width="85.3" height="28.3"/>
<g>
	<g>
		<g>
			<path class="st3" d="M37.3,16.7c0,0-6.4-0.1-6-3.4c0.5-3.3-1.8-5.1-5.4-3.2c-3.6,1.9-6.3,1.7-6.3,1.7s0.1,2.8,5.6,4
				c5.6,1.2,6.6,3.9,12.1,4V16.7z"/>
		</g>
		<g>
			<path class="st4" d="M36.7,17.1v2.4c0,0-1.8-0.2-3.3-0.8c0,0,1.3,0.3,1.9,0.4c0,0-2-0.5-2.6-0.8c0,0,1.8,0.3,2.1,0.3
				c0,0-2-0.6-2.6-0.8c0,0,1.9,0.3,2.3,0.3c0,0-2.3-0.7-3-1c0,0,2.1,0.5,2.5,0.5c0,0-2.1-0.5-3.3-1.4c0,0,1.2,0.4,2.9,0.9
				c0,0-2.3-0.8-3.1-1.6c0,0,1.7,0.8,3.5,1.2C35.8,17.1,36.7,17.1,36.7,17.1z"/>
		</g>
		<g>
			<path class="st4" d="M20.2,12.3C20.2,12.3,20.3,12.3,20.2,12.3c0.1,0,0.2,0,0.3,0c0.2,0,0.4,0,0.7-0.1c0.3-0.1,0.7-0.1,1.1-0.2
				c0.4-0.1,0.9-0.2,1.4-0.4c0.5-0.2,1-0.4,1.6-0.7c0.1-0.1,0.3-0.1,0.4-0.2c0.1-0.1,0.3-0.1,0.4-0.2c0.1,0,0.1-0.1,0.2-0.1
				c0.1,0,0.1-0.1,0.2-0.1c0.1-0.1,0.3-0.1,0.5-0.2c0.2-0.1,0.3-0.1,0.5-0.2c0.2-0.1,0.3-0.1,0.5-0.1c0.4-0.1,0.7-0.1,1.1,0
				c0.2,0,0.4,0.1,0.5,0.2c0,0,0.1,0,0.1,0.1c0,0,0.1,0,0.1,0.1c0,0,0.1,0.1,0.1,0.1c0,0,0,0,0.1,0l0,0c0,0,0,0,0,0l0,0l0,0l0.1,0.1
				c0,0,0,0,0,0l0,0c0.1,0.1,0.1,0.1,0.2,0.2c0,0,0,0.1,0.1,0.1c0,0,0,0.1,0.1,0.1c0,0.1,0.1,0.1,0.1,0.2c0.1,0.3,0.2,0.6,0.2,0.9
				c0,0.3,0,0.6,0,0.9c0,0,0,0.1,0,0.1l0,0.1c0,0.1,0,0.1,0,0.2c0,0.1,0,0.1,0,0.2c0,0,0,0.1,0,0.1c0,0,0,0.1,0,0.1
				c0,0.1,0,0.3,0,0.4c0,0,0,0.1,0,0.1l0,0l0,0c0,0,0,0.1,0,0.1c0,0,0,0.1,0,0.1c0.1,0.3,0.2,0.5,0.3,0.7c0.2,0.2,0.3,0.4,0.5,0.6
				c0.2,0.2,0.4,0.3,0.7,0.5c0.2,0.1,0.5,0.2,0.7,0.3c0.2,0.1,0.5,0.2,0.7,0.2c0.2,0.1,0.5,0.1,0.7,0.2c0.4,0.1,0.8,0.2,1.1,0.2
				c0.3,0,0.6,0.1,0.7,0.1c0.2,0,0.3,0,0.3,0s-0.1,0-0.3,0c-0.2,0-0.4,0-0.7-0.1c-0.3,0-0.7-0.1-1.1-0.2c-0.4-0.1-0.9-0.2-1.4-0.4
				c-0.5-0.2-1-0.4-1.5-0.8c-0.2-0.2-0.4-0.4-0.6-0.6c0-0.1-0.1-0.1-0.1-0.2c0,0,0-0.1-0.1-0.1c0,0,0-0.1,0-0.1c0,0,0-0.1,0-0.1
				c0,0,0-0.1,0-0.1c0,0,0-0.1,0-0.1c0,0,0,0,0,0l0-0.1c0,0,0-0.1,0-0.1c0,0,0-0.1,0-0.1l0-0.1l0-0.1c0,0,0-0.1,0-0.1
				c0-0.1,0-0.3,0-0.4c0,0,0-0.1,0-0.1c0,0,0-0.1,0-0.1c0-0.1,0-0.1,0-0.2c0-0.1,0-0.1,0-0.2l0-0.1c0,0,0-0.1,0-0.1
				c0-0.3,0-0.6,0-0.8c0-0.3-0.1-0.5-0.2-0.8c0-0.1-0.1-0.1-0.1-0.2c0,0,0-0.1-0.1-0.1c0,0,0-0.1-0.1-0.1c0-0.1-0.1-0.1-0.1-0.2l0,0
				c0,0,0,0,0,0l-0.1-0.1l0,0l0,0c0,0,0,0,0,0l0,0c0,0,0,0,0,0c0,0-0.1,0-0.1-0.1c0,0-0.1,0-0.1-0.1c0,0-0.1,0-0.1-0.1
				c-0.1,0-0.1-0.1-0.2-0.1c-0.1,0-0.2,0-0.2-0.1c-0.1,0-0.2,0-0.2,0c0,0-0.1,0-0.1,0l0,0l0,0l0,0l-0.1,0c-0.2,0-0.3,0-0.5,0.1
				c-0.2,0-0.3,0.1-0.5,0.1c-0.2,0-0.3,0.1-0.5,0.2c-0.1,0.1-0.3,0.1-0.4,0.2c-0.1,0-0.1,0.1-0.2,0.1c-0.1,0-0.1,0.1-0.2,0.1
				c-0.1,0.1-0.3,0.1-0.4,0.2c-0.1,0.1-0.3,0.1-0.4,0.2c-0.5,0.2-1.1,0.5-1.6,0.6c-0.1,0-0.1,0-0.2,0.1c-0.1,0-0.1,0-0.2,0.1
				c-0.1,0-0.2,0.1-0.4,0.1c-0.1,0-0.2,0.1-0.3,0.1c-0.1,0-0.2,0.1-0.3,0.1c-0.4,0.1-0.8,0.2-1.1,0.2c-0.1,0-0.2,0-0.2,0
				c-0.1,0-0.1,0-0.2,0c-0.1,0-0.2,0-0.3,0C20.4,12.3,20.4,12.3,20.2,12.3C20.3,12.3,20.2,12.3,20.2,12.3z"/>
		</g>
		<g>
			<path class="st3" d="M19.2,12.6c0,0-10.6,2.8-19.3,2.2c0,0,1.3,3.5,7.6,3c6.3-0.4,12.9-3.5,12.9-3.5S19.5,13.6,19.2,12.6z"/>
		</g>
		<g>
			<path class="st4" d="M6.4,17.4c-0.1,0-0.3,0-0.4,0l-0.2,0c-0.1,0-0.1,0-0.2,0l-0.2,0c0,0-0.1,0-0.1,0l-0.1,0l-0.2,0
				c-0.1,0-0.1,0-0.2,0c-0.1,0-0.1,0-0.2,0l-0.2,0l-0.1,0l-0.1,0l-0.2,0c-0.1,0-0.1,0-0.2,0l-0.1,0l0,0l0,0c-0.1,0-0.3-0.1-0.4-0.1
				c-0.1,0-0.1,0-0.2-0.1l-0.2-0.1c-0.1,0-0.1-0.1-0.2-0.1c-0.1,0-0.1-0.1-0.2-0.1l-0.2-0.1c0,0-0.1,0-0.1,0l-0.1,0
				c-0.1,0-0.1-0.1-0.2-0.1l-0.2-0.1c0,0-0.1,0-0.1-0.1l-0.1-0.1l-0.2-0.1c0,0-0.1-0.1-0.1-0.1c0,0-0.1-0.1-0.1-0.1
				c-0.2-0.2-0.3-0.3-0.5-0.5l-0.1-0.1l0.2,0c0.4,0,0.8,0,1.1,0c0.2,0,0.4,0,0.6,0l0.6,0c0.1,0,0.2,0,0.3,0l0.3,0l0.3,0
				c0.1,0,0.2,0,0.3,0l0.6,0l0.6,0c0.2,0,0.4,0,0.6,0c0.2,0,0.4,0,0.6,0l0.6,0c0.2,0,0.4,0,0.6-0.1l0.3,0l0.3,0c0.2,0,0.4,0,0.6-0.1
				l0.6-0.1l0.6-0.1c0.2,0,0.4,0,0.6-0.1c0.2,0,0.4,0,0.6-0.1c0.2,0,0.4-0.1,0.6-0.1l0.6-0.1l0.6-0.1l0.6-0.1
				c0.4-0.1,0.7-0.1,1.1-0.2c0.4-0.1,0.7-0.1,1.1-0.2c0.4-0.1,0.7-0.1,1.1-0.2c0.4-0.1,0.7-0.1,1.1-0.2c0.4-0.1,0.7-0.2,1.1-0.2
				c-0.4,0.1-0.7,0.2-1.1,0.3c-0.4,0.1-0.7,0.2-1.1,0.3c-0.4,0.1-0.7,0.2-1.1,0.2c-0.4,0.1-0.7,0.2-1.1,0.2
				c-0.4,0.1-0.7,0.1-1.1,0.2l-0.6,0.1l-0.6,0.1c-0.4,0.1-0.7,0.1-1.1,0.2c-0.2,0-0.4,0.1-0.6,0.1c-0.2,0-0.4,0.1-0.6,0.1
				c-0.2,0-0.4,0.1-0.6,0.1l-0.6,0.1c-0.2,0-0.4,0-0.6,0.1l-0.3,0l-0.3,0c-0.2,0-0.4,0-0.6,0.1l-0.6,0c-0.2,0-0.4,0-0.6,0
				c-0.2,0-0.4,0-0.6,0l-0.6,0l-0.6,0c-0.1,0-0.2,0-0.3,0l-0.3,0l-0.3,0c-0.1,0-0.2,0-0.3,0l-0.6,0c-0.2,0-0.4,0-0.6,0
				c-0.4,0-0.8,0-1.1,0l0.1-0.1c0.1,0.2,0.3,0.3,0.5,0.5c0,0,0.1,0.1,0.1,0.1c0,0,0.1,0.1,0.1,0.1l0.1,0.1l0.1,0.1
				c0,0,0.1,0,0.1,0.1l0.2,0.1c0.1,0,0.1,0.1,0.2,0.1l0.1,0c0,0,0.1,0,0.1,0l0.2,0.1c0.1,0,0.1,0.1,0.2,0.1c0.1,0,0.1,0.1,0.2,0.1
				l0.2,0.1c0.1,0,0.1,0,0.2,0.1C3.4,17,3.5,17,3.6,17l0,0l0,0l0.1,0c0.1,0,0.1,0,0.2,0.1l0.2,0l0.1,0l0.1,0l0.2,0
				c0.1,0,0.1,0,0.2,0c0.1,0,0.1,0,0.2,0l0.2,0l0.1,0c0,0,0.1,0,0.1,0l0.2,0c0.1,0,0.1,0,0.2,0l0.2,0C6.2,17.4,6.3,17.4,6.4,17.4z"
				/>
		</g>
		<g>
			<path class="st3" d="M20.6,14.4c0,0-9.7,4.4-18.3,5.2c0,0,2.2,3.2,8.3,1.8c6.1-1.4,12.1-5.7,12.1-5.7S21.4,15.2,20.6,14.4z"/>
		</g>
		<g>
			<path class="st4" d="M7.6,21.3c-0.1,0-0.2,0-0.3,0l-0.1,0c0,0-0.1,0-0.1,0c-0.1,0-0.2,0-0.3,0l-0.1,0c0,0-0.1,0-0.1,0
				c-0.1,0-0.2,0-0.3,0l-0.1,0l-0.1,0l-0.1,0c-0.1,0-0.2,0-0.3-0.1c-0.1,0-0.2,0-0.3-0.1l-0.1,0c0,0-0.1,0-0.1,0
				c-0.1,0-0.2-0.1-0.3-0.1c0,0-0.1,0-0.1-0.1c0,0-0.1,0-0.1-0.1l-0.1-0.1l-0.1,0c0,0,0,0-0.1,0L4,20.5c0,0-0.1,0-0.1-0.1
				c-0.1,0-0.2-0.1-0.2-0.1c-0.2-0.1-0.3-0.2-0.4-0.3l-0.1-0.1l0.2,0l0.6-0.1c0.1,0,0.2,0,0.3,0l0.3,0l0.3,0c0.1,0,0.2,0,0.3,0
				l0.6-0.1l0.1,0l0.1,0l0.3-0.1c0.2,0,0.4-0.1,0.6-0.1l0.6-0.1L7.7,19L8,19l0.3-0.1c0.2,0,0.4-0.1,0.5-0.1l0.5-0.1
				c0.2,0,0.4-0.1,0.5-0.1c0.4-0.1,0.7-0.2,1.1-0.3c0.4-0.1,0.7-0.2,1.1-0.3c0.2-0.1,0.4-0.1,0.5-0.2c0.2-0.1,0.4-0.1,0.5-0.2
				l0.5-0.2l0.5-0.2l0.5-0.2c0.2-0.1,0.4-0.1,0.5-0.2l0.5-0.2l0.5-0.2c0.3-0.1,0.7-0.2,1-0.4c0.3-0.1,0.7-0.3,1-0.4
				c0.2-0.1,0.3-0.1,0.5-0.2l0.5-0.2c0.3-0.1,0.7-0.3,1-0.4c-0.3,0.2-0.7,0.3-1,0.4c-0.3,0.1-0.7,0.3-1,0.4c-0.3,0.1-0.7,0.3-1,0.4
				c-0.3,0.1-0.7,0.3-1,0.4l-0.5,0.2L15.4,17c-0.3,0.1-0.7,0.2-1,0.4l-0.5,0.2l-0.5,0.2c-0.2,0.1-0.4,0.1-0.5,0.2L12.5,18l-0.3,0.1
				c-0.4,0.1-0.7,0.2-1.1,0.3c-0.4,0.1-0.7,0.2-1.1,0.3c-0.4,0.1-0.7,0.2-1.1,0.3c-0.2,0-0.4,0.1-0.6,0.1l-0.3,0.1l-0.3,0.1
				c-0.2,0-0.4,0.1-0.6,0.1l-0.6,0.1c-0.2,0-0.4,0.1-0.6,0.1l-0.3,0.1l-0.1,0l-0.1,0L5,19.8c-0.1,0-0.2,0-0.3,0l-0.3,0l-0.3,0
				c-0.1,0-0.2,0-0.3,0L3.3,20l0.1-0.1c0.1,0.1,0.3,0.2,0.4,0.3c0.1,0.1,0.1,0.1,0.2,0.1c0,0,0.1,0,0.1,0.1l0.1,0.1c0,0,0,0,0.1,0
				l0.1,0l0.1,0.1c0,0,0.1,0,0.1,0.1c0,0,0.1,0,0.1,0.1c0.1,0,0.2,0.1,0.3,0.1c0,0,0.1,0,0.1,0l0.1,0c0.1,0,0.2,0.1,0.3,0.1
				c0.1,0,0.2,0,0.3,0.1l0.1,0l0.1,0l0.1,0c0.1,0,0.2,0,0.3,0.1c0,0,0.1,0,0.1,0l0.1,0c0.1,0,0.2,0,0.3,0c0,0,0.1,0,0.1,0l0.1,0
				C7.4,21.3,7.5,21.3,7.6,21.3z"/>
		</g>
		<g>
			<path class="st3" d="M22.9,15.7c0,0-7.7,6-15.8,8.4c0,0,3.1,2.7,8.6,0.2c5.5-2.5,10.1-7.7,10.1-7.7S24.1,16.3,22.9,15.7z"/>
		</g>
		<g>
			<path class="st4" d="M11.1,24.9l-0.2,0c-0.1,0-0.1,0-0.2,0l-0.1,0l-0.1,0c-0.1,0-0.1,0-0.2,0c-0.1,0-0.1,0-0.2,0l-0.2,0l-0.2,0
				c-0.1,0-0.1,0-0.2,0c-0.1,0-0.1,0-0.2,0c-0.1,0-0.1,0-0.2,0c-0.1,0-0.1,0-0.2-0.1c-0.1,0-0.1,0-0.2-0.1c-0.1,0-0.1,0-0.2-0.1
				c-0.1,0-0.1,0-0.2-0.1l-0.1,0l-0.1,0c-0.1,0-0.1-0.1-0.2-0.1L8,24.2l0.1,0L8.7,24c0.1,0,0.2-0.1,0.3-0.1l0.3-0.1
				c0.2-0.1,0.3-0.1,0.5-0.2l0.5-0.2c0.2-0.1,0.3-0.1,0.5-0.2c0.2-0.1,0.3-0.1,0.5-0.2l0.5-0.2c0.2-0.1,0.3-0.1,0.5-0.2l0.2-0.1
				l0.2-0.1l0.5-0.2c0.3-0.2,0.6-0.3,1-0.5c0.3-0.2,0.6-0.3,0.9-0.5c0.3-0.2,0.6-0.3,0.9-0.5c0.3-0.2,0.6-0.3,0.9-0.5l0.5-0.3
				l0.5-0.3c0.3-0.2,0.6-0.4,0.9-0.5c0.3-0.2,0.6-0.4,0.9-0.5c0.3-0.2,0.6-0.4,0.9-0.6c0.3-0.2,0.6-0.4,0.9-0.6
				c0.3-0.2,0.6-0.4,0.9-0.6c0.3-0.2,0.6-0.4,0.8-0.6c-0.3,0.2-0.5,0.4-0.8,0.6c-0.3,0.2-0.5,0.4-0.8,0.6c-0.3,0.2-0.6,0.4-0.8,0.6
				c-0.3,0.2-0.6,0.4-0.9,0.6c-0.3,0.2-0.6,0.4-0.9,0.6c-0.3,0.2-0.6,0.4-0.9,0.5L17.5,20L17,20.3c-0.2,0.1-0.3,0.2-0.5,0.3
				c-0.2,0.1-0.3,0.2-0.5,0.3c-0.3,0.2-0.6,0.3-0.9,0.5c-0.3,0.2-0.6,0.3-0.9,0.5c-0.3,0.2-0.6,0.3-1,0.5c-0.3,0.2-0.6,0.3-1,0.4
				c-0.2,0.1-0.3,0.1-0.5,0.2l-0.5,0.2c-0.2,0.1-0.3,0.1-0.5,0.2c-0.2,0.1-0.3,0.1-0.5,0.2l-0.5,0.2c-0.2,0.1-0.3,0.1-0.5,0.2L9,24
				c-0.1,0-0.2,0.1-0.3,0.1l-0.5,0.2l0-0.1c0.1,0,0.1,0.1,0.2,0.1l0.1,0l0.1,0c0.1,0,0.1,0,0.2,0.1c0.1,0,0.1,0,0.2,0.1
				c0.1,0,0.1,0,0.2,0.1c0.1,0,0.1,0,0.2,0.1c0.1,0,0.1,0,0.2,0.1c0.1,0,0.1,0,0.2,0c0.1,0,0.1,0,0.2,0l0.2,0l0.2,0
				c0.1,0,0.1,0,0.2,0c0.1,0,0.1,0,0.2,0l0.1,0l0.1,0c0.1,0,0.1,0,0.2,0L11.1,24.9z"/>
		</g>
		<g>
			<path class="st3" d="M25.9,16.6c0,0-3.7,5.7-9.2,8.1c0,0,3.4,2.3,6.7-0.1c3.3-2.4,4.9-7.1,4.9-7.1S27.7,17,25.9,16.6z"/>
		</g>
		<g>
			<path class="st4" d="M20.2,25.2l-0.2,0c-0.1,0-0.1,0-0.2,0c-0.1,0-0.1,0-0.2,0c-0.1,0-0.1,0-0.2,0l-0.1,0l-0.1,0
				c-0.1,0-0.1,0-0.2,0c-0.1,0-0.1,0-0.2,0c-0.1,0-0.1,0-0.2,0c-0.1,0-0.1,0-0.2,0c-0.1,0-0.1,0-0.2,0c0,0-0.1,0-0.1,0
				c0,0-0.1,0-0.1,0c0,0-0.1,0-0.1,0c0,0-0.1,0-0.1-0.1c0,0-0.1,0-0.1-0.1c0,0-0.1,0-0.1-0.1l-0.1,0l0.1-0.1l0.3-0.2
				c0.1,0,0.1-0.1,0.2-0.1l0.2-0.1c0.1-0.1,0.2-0.1,0.3-0.2l0.2-0.1l0.2-0.1c0.2-0.1,0.4-0.3,0.6-0.4l0.3-0.2
				c0.1-0.1,0.2-0.1,0.3-0.2l0.1-0.1l0.1-0.1c0.1-0.1,0.2-0.1,0.3-0.2l0.3-0.2c0.1-0.1,0.2-0.2,0.3-0.2l0.1-0.1l0.1-0.1
				c0.1-0.1,0.2-0.2,0.3-0.2c0.2-0.2,0.4-0.3,0.5-0.5c0.2-0.2,0.3-0.3,0.5-0.5c0.1-0.1,0.2-0.2,0.3-0.2c0.1-0.1,0.2-0.2,0.2-0.2
				c0.2-0.2,0.3-0.3,0.5-0.5l0.2-0.3l0.2-0.3c0.2-0.2,0.3-0.3,0.5-0.5c0.2-0.2,0.3-0.3,0.5-0.5c0.3-0.3,0.6-0.7,0.9-1.1
				c-0.1,0.2-0.2,0.4-0.4,0.6c-0.1,0.2-0.3,0.4-0.4,0.5c-0.1,0.1-0.1,0.2-0.2,0.3c-0.1,0.1-0.1,0.2-0.2,0.3
				c-0.1,0.1-0.1,0.2-0.2,0.3c-0.1,0.1-0.1,0.2-0.2,0.3l-0.2,0.3l-0.2,0.3c-0.1,0.1-0.2,0.2-0.2,0.3l-0.2,0.3
				c-0.1,0.1-0.2,0.2-0.2,0.3c-0.1,0.1-0.2,0.2-0.2,0.3c-0.2,0.2-0.3,0.3-0.5,0.5c-0.2,0.2-0.3,0.3-0.5,0.5C22.1,21.9,22,22,21.9,22
				l-0.1,0.1l-0.1,0.1c-0.1,0.1-0.2,0.2-0.3,0.2L21,22.7c-0.1,0.1-0.2,0.1-0.3,0.2l-0.1,0.1l-0.2,0.1c-0.1,0.1-0.2,0.1-0.3,0.2
				l-0.3,0.2c-0.2,0.1-0.4,0.3-0.6,0.4L19,24.1l-0.2,0.1c-0.1,0.1-0.2,0.1-0.3,0.2c-0.1,0.1-0.2,0.1-0.3,0.2l-0.3,0.2l0-0.1
				c0,0,0.1,0,0.1,0.1c0,0,0.1,0,0.1,0.1c0,0,0.1,0,0.1,0.1c0,0,0.1,0,0.1,0.1c0,0,0.1,0,0.1,0.1c0,0,0.1,0,0.1,0c0,0,0.1,0,0.1,0
				c0,0,0.1,0,0.1,0c0,0,0.1,0,0.1,0c0,0,0.1,0,0.1,0c0,0,0.1,0,0.2,0l0.1,0l0.1,0c0.1,0,0.1,0,0.2,0c0.1,0,0.1,0,0.2,0
				c0.1,0,0.1,0,0.2,0L20.2,25.2z"/>
		</g>
		<g>
			<path class="st3" d="M28.6,17.5c0,0-1.3,5.4-5.2,7.7c0,0,3.5,2,5.5-0.3c2-2.3,2.1-6.1,2.1-6.1S30.1,18.1,28.6,17.5z"/>
		</g>
		<g>
			<path class="st4" d="M26.3,25.6l-0.1,0c0,0-0.1,0-0.1,0c0,0-0.1,0-0.1,0c0,0-0.1,0-0.1,0c0,0-0.1,0-0.1,0c0,0-0.1,0-0.1,0
				c0,0-0.1,0-0.1,0c0,0-0.1,0-0.1,0c0,0-0.1,0-0.1,0c0,0-0.1,0-0.1,0c0,0-0.1,0-0.1,0c0,0-0.1,0-0.1,0c0,0-0.1,0-0.1,0
				c0,0-0.1,0-0.1,0c-0.1,0-0.2-0.1-0.2-0.1l-0.1,0l0.1-0.1l0.2-0.2c0.1-0.1,0.1-0.1,0.2-0.2c0.1-0.1,0.1-0.1,0.2-0.2l0.1-0.1
				l0.1-0.1l0.1-0.1l0,0l0,0l0.2-0.2l0.2-0.2l0-0.1l0-0.1l0.1-0.1l0.1-0.1c0,0,0.1-0.1,0.1-0.1c0.1-0.1,0.1-0.1,0.2-0.2l0.2-0.2
				c0.1-0.1,0.1-0.1,0.2-0.2c0.1-0.1,0.2-0.3,0.3-0.4l0.1-0.2l0.1-0.1l0.1-0.1l0.1-0.2l0.1-0.2l0.1-0.1l0.1-0.1l0.1-0.2l0.1-0.2
				c0-0.1,0.1-0.2,0.1-0.2c0.1-0.2,0.2-0.3,0.2-0.5c0.1-0.2,0.2-0.3,0.2-0.5c0.1-0.2,0.1-0.3,0.2-0.5c0.1-0.2,0.1-0.3,0.2-0.5
				l0.2-0.5c-0.1,0.3-0.2,0.6-0.3,1c-0.1,0.2-0.1,0.3-0.2,0.5c-0.1,0.2-0.1,0.3-0.2,0.5c-0.1,0.2-0.1,0.3-0.2,0.5
				c-0.1,0.2-0.1,0.3-0.2,0.5l-0.1,0.2l-0.1,0.1l-0.1,0.1l-0.1,0.2L27.4,22l-0.1,0.1l-0.1,0.1l-0.1,0.2c-0.1,0.1-0.2,0.3-0.3,0.4
				c-0.1,0.1-0.2,0.3-0.3,0.4c-0.1,0.1-0.1,0.1-0.2,0.2c0,0-0.1,0.1-0.1,0.1l-0.1,0.1L26,23.8l0,0.1l0,0.1l-0.2,0.2
				c-0.1,0.1-0.3,0.3-0.4,0.4l-0.1,0.1l-0.1,0.1c-0.1,0.1-0.1,0.1-0.2,0.2c-0.1,0.1-0.2,0.1-0.2,0.2l-0.2,0.2l0-0.1
				c0.1,0,0.1,0.1,0.2,0.1c0.1,0,0.2,0.1,0.2,0.1c0,0,0.1,0,0.1,0c0,0,0.1,0,0.1,0c0,0,0.1,0,0.1,0c0,0,0.1,0,0.1,0c0,0,0.1,0,0.1,0
				c0,0,0.1,0,0.1,0c0,0,0.1,0,0.1,0c0,0,0.1,0,0.1,0c0,0,0.1,0,0.1,0c0,0,0.1,0,0.1,0c0,0,0.1,0,0.1,0L26.3,25.6z"/>
		</g>
		<g>
			<path class="st3" d="M31.2,19c0,0,0.2,4.1-2.2,6.3c0,0,3.8,0.9,4.6-1c0.9-2.1,0.2-4.4,0.2-4.4S32.6,19.6,31.2,19z"/>
		</g>
		<g>
			<path class="st4" d="M32.2,24.9L32.2,24.9l-0.1,0.1c0,0-0.1,0-0.1,0c0,0-0.1,0-0.1,0c0,0-0.1,0-0.1,0c0,0-0.1,0-0.1,0
				c0,0-0.1,0-0.1,0c-0.1,0-0.2,0-0.3,0c-0.1,0-0.2,0-0.3,0c0,0-0.1,0-0.1,0c0,0-0.1,0-0.1,0c-0.1,0-0.2,0-0.3,0c-0.1,0-0.2,0-0.3,0
				l-0.2,0l0.1-0.1l0.2-0.3l0,0l0,0l0-0.1l0.1-0.2l0-0.1l0-0.1l0.1-0.2c0-0.1,0.1-0.1,0.1-0.2l0.1-0.2l0.1-0.2l0.1-0.2
				c0-0.1,0.1-0.2,0.1-0.3c0-0.1,0.1-0.2,0.1-0.3l0.1-0.2c0-0.1,0-0.1,0.1-0.2c0-0.1,0.1-0.2,0.1-0.3c0-0.1,0.1-0.2,0.1-0.3l0.1-0.3
				l0.1-0.3c0-0.1,0-0.2,0.1-0.3c0-0.1,0-0.2,0.1-0.3c0-0.1,0-0.2,0.1-0.3l0.1-0.3c0,0.1,0,0.2,0,0.3l0,0.2l0,0.2c0,0.1,0,0.2,0,0.3
				c0,0.1,0,0.2,0,0.3c0,0.1,0,0.2,0,0.3l-0.1,0.3c0,0.1-0.1,0.2-0.1,0.3c0,0.1-0.1,0.2-0.1,0.3c0,0.1,0,0.1-0.1,0.2l-0.1,0.2l0,0.1
				c0,0,0,0.1,0,0.1l-0.1,0.2c0,0.1,0,0.1-0.1,0.2l-0.1,0.2L31,23.7l-0.1,0.2c-0.1,0.1-0.1,0.2-0.2,0.3l-0.1,0.2l0,0.1l-0.1,0.1
				l-0.1,0.2l-0.1,0.1l0,0l0,0l-0.2,0.3L30,24.9c0.1,0,0.2,0,0.3,0c0.1,0,0.2,0,0.3,0c0,0,0.1,0,0.1,0c0,0,0.1,0,0.1,0
				c0.1,0,0.2,0,0.3,0c0.1,0,0.2,0,0.3,0c0,0,0.1,0,0.1,0c0,0,0.1,0,0.1,0c0,0,0.1,0,0.1,0c0,0,0.1,0,0.1,0c0,0,0.1,0,0.1,0
				C32.1,24.9,32.2,24.9,32.2,24.9z"/>
		</g>
		<g>
			<path class="st3" d="M34,20c0,0,1,2.3,0,4.3c0,0.1,3.2,0.3,3.1-2.2c0-1.2,0.1-1.5,0.1-1.7C37.3,20.4,35.1,20.3,34,20z"/>
		</g>
		<g>
			<path class="st4" d="M36,23.4C36,23.4,35.9,23.4,36,23.4c-0.1,0.1-0.1,0.1-0.1,0.1c0,0,0,0-0.1,0c0,0,0,0-0.1,0c0,0,0,0-0.1,0
				c0,0,0,0-0.1,0c0,0,0,0-0.1,0c0,0-0.1,0-0.1,0c0,0-0.1,0-0.1,0c0,0-0.1,0-0.1,0c-0.1,0-0.1,0-0.2,0.1c-0.1,0-0.2,0.1-0.3,0.1
				l-0.2,0l0-0.1l0-0.2c0-0.1,0-0.1,0-0.2c0-0.1,0-0.1,0-0.2c0,0,0-0.1,0-0.1l0-0.1l0-0.1c0,0,0-0.1,0-0.1c0-0.1,0-0.1,0-0.2
				c0-0.1,0-0.1,0-0.2c0-0.1,0-0.1,0-0.2c0-0.1,0-0.1,0-0.2c0-0.1,0-0.1,0-0.2c0-0.1,0-0.1,0-0.2l0-0.2c0-0.1,0-0.1,0-0.2l0-0.2
				l0-0.2c0-0.1,0-0.1,0-0.2c0,0.1,0.1,0.1,0.1,0.2l0,0.1l0,0.1c0,0.1,0,0.1,0.1,0.2c0,0.1,0,0.1,0,0.2c0,0.1,0,0.1,0,0.2
				c0,0.1,0,0.1,0,0.2c0,0.1,0,0.1,0,0.2c0,0.1,0,0.1,0,0.2c0,0.1,0,0.1,0,0.2c0,0.1,0,0.1,0,0.2c0,0.1,0,0.1,0,0.2c0,0,0,0.1,0,0.1
				l0,0.1l0,0.1c0,0,0,0.1,0,0.1c0,0.1,0,0.1,0,0.2c0,0.1,0,0.1-0.1,0.2l-0.1,0.2l-0.1-0.1c0.1,0,0.1,0,0.2,0c0,0,0.1,0,0.1,0
				c0,0,0.1,0,0.1,0c0.1,0,0.1,0,0.2,0c0,0,0.1,0,0.1,0c0,0,0.1,0,0.1,0c0,0,0.1,0,0.1,0c0,0,0.1,0,0.1,0c0,0,0.1,0,0.1,0
				c0,0,0.1,0,0.1,0c0,0,0,0,0.1,0c0,0,0,0,0.1,0C35.9,23.5,35.9,23.5,36,23.4C35.9,23.4,36,23.4,36,23.4z"/>
		</g>
		<g>
			<path class="st4" d="M17.1,13.6c0,0-1.1,0.2-2.1,0.4c0,0,1.9-0.2,2.4-0.3l-1.5,0.5c0,0,1.6-0.2,2.1-0.3l-1.3,0.4
				c0,0,1.3-0.1,1.6-0.2l-1,0.3l1.6-0.2l-0.9,0.3l1.3-0.2l-0.6,0.2l1-0.1L18.5,15c0,0,1.5-0.6,1.6-0.6c0,0-0.7-0.7-1.2-1.2
				L17.1,13.6z"/>
		</g>
		<g>
			<path class="st4" d="M20.6,14.9c0,0-3.2,1.4-4.1,1.7c0,0,1.2-0.2,1.8-0.5l-0.7,0.4c0,0,1-0.2,1.6-0.4l-0.8,0.3
				c0,0,0.9-0.2,1.4-0.4L19,16.4c0,0,1.1-0.3,1.5-0.5l-0.6,0.4c0,0,0.9-0.2,1.2-0.4l-0.5,0.3c0,0,0.7-0.2,1-0.4l-0.4,0.5
				c0,0,0.9-0.6,1-0.6C22.3,15.7,21,15.2,20.6,14.9z"/>
		</g>
		<g>
			<path class="st4" d="M23.1,16.1c0,0-2,1.5-3.2,2.3c0,0,1.3-0.6,1.8-0.9l-0.8,0.7c0,0,1.2-0.6,1.5-0.8l-0.8,0.7c0,0,1-0.5,1.4-0.8
				l-0.6,0.6c0,0,0.9-0.4,1.2-0.6l-0.6,0.5c0,0,0.6-0.3,1-0.5l-0.3,0.4c0,0,0.5-0.2,1-0.6l-0.2,0.4c0,0,0.9-0.6,1.1-0.8
				C25.3,16.7,23.6,16.4,23.1,16.1z"/>
		</g>
		<g>
			<path class="st4" d="M26.2,17c0,0-1,1.4-2,2.5c0,0,0.8-0.5,1.1-0.9l-0.5,0.9c0,0,0.8-0.7,1-1l-0.4,0.7c0,0,0.6-0.5,0.9-0.8
				l-0.3,0.7c0,0,0.4-0.4,0.7-0.8l-0.2,0.6c0,0,0.5-0.5,0.7-0.9l0,0.8c0,0,0.3-0.7,0.6-1.2C28,17.6,27,17.1,26.2,17z"/>
		</g>
		<g>
			<path class="st4" d="M29,18.1c0,0-0.8,2.2-1.3,3c0,0,0.7-0.8,1-1.4c0,0-0.2,0.9-0.3,1.1c0,0,0.4-0.6,0.6-1.2c0,0-0.1,0.7-0.1,0.9
				c0,0,0.4-0.6,0.5-1c0,0,0,0.7-0.1,0.9c0,0,0.3-0.6,0.4-0.9c0,0,0,0.5,0,0.7c0,0,0.3-0.4,0.4-0.8c0,0,0,0.4,0,0.6
				c0,0,0.2-0.5,0.3-0.8c0,0,0.1,0.5,0.1,0.6c0,0,0.2-0.3,0.3-0.7C30.8,19,29.9,18.4,29,18.1z"/>
		</g>
		<g>
			<path class="st4" d="M31.8,19.6c0,0,0,1.2-0.2,2.2c0,0,0.4-0.5,0.4-1.1c0,0,0,0.5,0,0.8c0,0,0.3-0.5,0.3-0.9c0,0,0,0.3,0,0.6
				c0,0,0.2-0.4,0.2-0.7c0,0,0,0.3,0,0.5c0,0,0.2-0.3,0.2-0.6c0,0,0,0.3,0,0.5c0,0,0.2-0.3,0.2-0.6c0,0,0.1,0.3,0.1,0.5
				c0,0,0.1-0.3,0.1-0.5l0.1,0.3c0,0,0.1-0.2,0.1-0.4C33.4,20.1,32.1,19.7,31.8,19.6z"/>
		</g>
		<g>
			<path class="st4" d="M34.6,20.4c0,0,0.2,0.2,0.4,1.7c0,0,0.1-0.3,0.2-0.8c0,0,0.1,0.4,0.1,0.6c0,0,0.2-0.4,0.2-0.7
				c0,0,0.1,0.2,0.1,0.4c0,0,0.2-0.4,0.2-0.6c0,0,0.1,0.3,0.1,0.4c0,0,0.2-0.3,0.2-0.5c0,0,0,0.2,0.1,0.4c0,0,0.2-0.3,0.2-0.5
				l0.1,0.4c0,0,0.2-0.4,0.5-0.5C36.9,20.7,35.8,20.7,34.6,20.4z"/>
		</g>
		<g>
			<path class="st4" d="M28.1,10.2c0,0-4.5,2.7-7.9,2.4c0,0,1.4,0.3,2.8,0.1c0,0-1,0.2-1.7,0.2c0,0,1.5,0.3,3.1-0.1
				c0,0-0.8,0.3-1.2,0.4c0,0,1.2,0,2-0.3c0,0-0.3,0.2-0.5,0.3c0,0,1.3-0.1,2.3-1c0,0-0.3,0.2-0.5,0.2c0,0,0.7-0.5,1-1
				c0,0-0.9,0.5-1.2,0.7c0,0,1.1-0.8,1.5-1.2c0,0-0.7,0.4-1.4,0.7C26.6,11.5,27.5,11,28.1,10.2z"/>
		</g>
	</g>
	<g>
		<path class="st3" d="M47.7,16.7c0,0,6.4-0.1,6-3.4c-0.5-3.3,1.8-5.1,5.4-3.2c3.6,1.9,6.3,1.7,6.3,1.7s-0.1,2.8-5.6,4
			c-5.6,1.2-6.6,3.9-12.1,4V16.7z"/>
	</g>
	<g>
		<path class="st4" d="M48.3,17.1v2.4c0,0,1.8-0.2,3.3-0.8c0,0-1.3,0.3-1.9,0.4c0,0,2-0.5,2.6-0.8c0,0-1.8,0.3-2.1,0.3
			c0,0,2-0.6,2.6-0.8c0,0-1.9,0.3-2.3,0.3c0,0,2.3-0.7,3-1c0,0-2.1,0.5-2.5,0.5c0,0,2.1-0.5,3.3-1.4c0,0-1.2,0.4-2.9,0.9
			c0,0,2.3-0.8,3.1-1.6c0,0-1.7,0.8-3.5,1.2S48.3,17.1,48.3,17.1z"/>
	</g>
	<g>
		<path class="st4" d="M64.8,12.3C64.8,12.3,64.7,12.3,64.8,12.3c-0.1,0-0.2,0-0.3,0c-0.2,0-0.4,0-0.7-0.1c-0.3-0.1-0.7-0.1-1.1-0.2
			c-0.4-0.1-0.9-0.2-1.4-0.4c-0.5-0.2-1-0.4-1.6-0.7c-0.1-0.1-0.3-0.1-0.4-0.2c-0.1-0.1-0.3-0.1-0.4-0.2c-0.1,0-0.1-0.1-0.2-0.1
			c-0.1,0-0.1-0.1-0.2-0.1c-0.1-0.1-0.3-0.1-0.5-0.2c-0.2-0.1-0.3-0.1-0.5-0.2c-0.2-0.1-0.3-0.1-0.5-0.1c-0.4-0.1-0.7-0.1-1.1,0
			c-0.2,0-0.4,0.1-0.5,0.2c0,0-0.1,0-0.1,0.1c0,0-0.1,0-0.1,0.1c0,0-0.1,0.1-0.1,0.1c0,0,0,0-0.1,0l0,0c0,0,0,0,0,0l0,0l0,0
			l-0.1,0.1c0,0,0,0,0,0l0,0c-0.1,0.1-0.1,0.1-0.2,0.2c0,0,0,0.1-0.1,0.1c0,0,0,0.1-0.1,0.1c0,0.1-0.1,0.1-0.1,0.2
			c-0.1,0.3-0.2,0.6-0.2,0.9c0,0.3,0,0.6,0,0.9c0,0,0,0.1,0,0.1l0,0.1c0,0.1,0,0.1,0,0.2c0,0.1,0,0.1,0,0.2c0,0,0,0.1,0,0.1
			c0,0,0,0.1,0,0.1c0,0.1,0,0.3,0,0.4c0,0,0,0.1,0,0.1l0,0l0,0c0,0,0,0.1,0,0.1c0,0,0,0.1,0,0.1c-0.1,0.3-0.2,0.5-0.3,0.7
			c-0.2,0.2-0.3,0.4-0.5,0.6c-0.2,0.2-0.4,0.3-0.7,0.5c-0.2,0.1-0.5,0.2-0.7,0.3c-0.2,0.1-0.5,0.2-0.7,0.2c-0.2,0.1-0.5,0.1-0.7,0.2
			C50,16.9,49.6,17,49.3,17c-0.3,0-0.6,0.1-0.7,0.1c-0.2,0-0.3,0-0.3,0s0.1,0,0.3,0c0.2,0,0.4,0,0.7-0.1c0.3,0,0.7-0.1,1.1-0.2
			c0.4-0.1,0.9-0.2,1.4-0.4c0.5-0.2,1-0.4,1.5-0.8c0.2-0.2,0.4-0.4,0.6-0.6c0-0.1,0.1-0.1,0.1-0.2c0,0,0-0.1,0.1-0.1
			c0,0,0-0.1,0-0.1c0,0,0-0.1,0-0.1c0,0,0-0.1,0-0.1c0,0,0-0.1,0-0.1c0,0,0,0,0,0l0-0.1c0,0,0-0.1,0-0.1c0,0,0-0.1,0-0.1l0-0.1
			l0-0.1c0,0,0-0.1,0-0.1c0-0.1,0-0.3,0-0.4c0,0,0-0.1,0-0.1c0,0,0-0.1,0-0.1c0-0.1,0-0.1,0-0.2c0-0.1,0-0.1,0-0.2l0-0.1
			c0,0,0-0.1,0-0.1c0-0.3,0-0.6,0-0.8c0-0.3,0.1-0.5,0.2-0.8c0-0.1,0.1-0.1,0.1-0.2c0,0,0-0.1,0.1-0.1c0,0,0-0.1,0.1-0.1
			c0-0.1,0.1-0.1,0.1-0.2l0,0c0,0,0,0,0,0l0.1-0.1l0,0l0,0c0,0,0,0,0,0l0,0c0,0,0,0,0,0c0,0,0.1,0,0.1-0.1c0,0,0.1,0,0.1-0.1
			c0,0,0.1,0,0.1-0.1c0.1,0,0.1-0.1,0.2-0.1c0.1,0,0.2,0,0.2-0.1c0.1,0,0.2,0,0.2,0c0,0,0.1,0,0.1,0l0,0l0,0l0,0l0.1,0
			c0.2,0,0.3,0,0.5,0.1c0.2,0,0.3,0.1,0.5,0.1c0.2,0,0.3,0.1,0.5,0.2c0.1,0.1,0.3,0.1,0.4,0.2c0.1,0,0.1,0.1,0.2,0.1
			c0.1,0,0.1,0.1,0.2,0.1c0.1,0.1,0.3,0.1,0.4,0.2c0.1,0.1,0.3,0.1,0.4,0.2c0.5,0.2,1.1,0.5,1.6,0.6c0.1,0,0.1,0,0.2,0.1
			c0.1,0,0.1,0,0.2,0.1c0.1,0,0.2,0.1,0.4,0.1c0.1,0,0.2,0.1,0.3,0.1c0.1,0,0.2,0.1,0.3,0.1c0.4,0.1,0.8,0.2,1.1,0.2
			c0.1,0,0.2,0,0.2,0c0.1,0,0.1,0,0.2,0c0.1,0,0.2,0,0.3,0C64.6,12.3,64.6,12.3,64.8,12.3C64.7,12.3,64.8,12.3,64.8,12.3z"/>
	</g>
	<g>
		<path class="st3" d="M65.8,12.6c0,0,10.6,2.8,19.3,2.2c0,0-1.3,3.5-7.6,3c-6.3-0.4-12.9-3.5-12.9-3.5S65.5,13.6,65.8,12.6z"/>
	</g>
	<g>
		<path class="st4" d="M78.6,17.4c0.1,0,0.3,0,0.4,0l0.2,0c0.1,0,0.1,0,0.2,0l0.2,0c0,0,0.1,0,0.1,0l0.1,0l0.2,0c0.1,0,0.1,0,0.2,0
			c0.1,0,0.1,0,0.2,0l0.2,0l0.1,0l0.1,0l0.2,0c0.1,0,0.1,0,0.2,0l0.1,0l0,0l0,0c0.1,0,0.3-0.1,0.4-0.1c0.1,0,0.1,0,0.2-0.1l0.2-0.1
			c0.1,0,0.1-0.1,0.2-0.1c0.1,0,0.1-0.1,0.2-0.1l0.2-0.1c0,0,0.1,0,0.1,0l0.1,0c0.1,0,0.1-0.1,0.2-0.1l0.2-0.1c0,0,0.1,0,0.1-0.1
			l0.1-0.1l0.2-0.1c0,0,0.1-0.1,0.1-0.1c0,0,0.1-0.1,0.1-0.1c0.2-0.2,0.3-0.3,0.5-0.5l0.1-0.1l-0.2,0c-0.4,0-0.8,0-1.1,0
			c-0.2,0-0.4,0-0.6,0l-0.6,0c-0.1,0-0.2,0-0.3,0l-0.3,0l-0.3,0c-0.1,0-0.2,0-0.3,0l-0.6,0l-0.6,0c-0.2,0-0.4,0-0.6,0
			c-0.2,0-0.4,0-0.6,0l-0.6,0c-0.2,0-0.4,0-0.6-0.1l-0.3,0l-0.3,0c-0.2,0-0.4,0-0.6-0.1l-0.6-0.1l-0.6-0.1c-0.2,0-0.4,0-0.6-0.1
			c-0.2,0-0.4,0-0.6-0.1c-0.2,0-0.4-0.1-0.6-0.1l-0.6-0.1l-0.6-0.1l-0.6-0.1c-0.4-0.1-0.7-0.1-1.1-0.2c-0.4-0.1-0.7-0.1-1.1-0.2
			c-0.4-0.1-0.7-0.1-1.1-0.2c-0.4-0.1-0.7-0.1-1.1-0.2c-0.4-0.1-0.7-0.2-1.1-0.2c0.4,0.1,0.7,0.2,1.1,0.3c0.4,0.1,0.7,0.2,1.1,0.3
			c0.4,0.1,0.7,0.2,1.1,0.2c0.4,0.1,0.7,0.2,1.1,0.2c0.4,0.1,0.7,0.1,1.1,0.2l0.6,0.1l0.6,0.1c0.4,0.1,0.7,0.1,1.1,0.2
			c0.2,0,0.4,0.1,0.6,0.1c0.2,0,0.4,0.1,0.6,0.1c0.2,0,0.4,0.1,0.6,0.1l0.6,0.1c0.2,0,0.4,0,0.6,0.1l0.3,0l0.3,0
			c0.2,0,0.4,0,0.6,0.1l0.6,0c0.2,0,0.4,0,0.6,0c0.2,0,0.4,0,0.6,0l0.6,0l0.6,0c0.1,0,0.2,0,0.3,0l0.3,0l0.3,0c0.1,0,0.2,0,0.3,0
			l0.6,0c0.2,0,0.4,0,0.6,0c0.4,0,0.8,0,1.1,0l-0.1-0.1c-0.1,0.2-0.3,0.3-0.5,0.5c0,0-0.1,0.1-0.1,0.1c0,0-0.1,0.1-0.1,0.1l-0.1,0.1
			l-0.1,0.1c0,0-0.1,0-0.1,0.1l-0.2,0.1c-0.1,0-0.1,0.1-0.2,0.1l-0.1,0c0,0-0.1,0-0.1,0l-0.2,0.1c-0.1,0-0.1,0.1-0.2,0.1
			c-0.1,0-0.1,0.1-0.2,0.1l-0.2,0.1c-0.1,0-0.1,0-0.2,0.1c-0.1,0-0.2,0.1-0.4,0.1l0,0l0,0l-0.1,0c-0.1,0-0.1,0-0.2,0.1l-0.2,0
			l-0.1,0l-0.1,0l-0.2,0c-0.1,0-0.1,0-0.2,0c-0.1,0-0.1,0-0.2,0l-0.2,0l-0.1,0c0,0-0.1,0-0.1,0l-0.2,0c-0.1,0-0.1,0-0.2,0l-0.2,0
			C78.8,17.4,78.7,17.4,78.6,17.4z"/>
	</g>
	<g>
		<path class="st3" d="M64.4,14.4c0,0,9.7,4.4,18.3,5.2c0,0-2.2,3.2-8.3,1.8c-6.1-1.4-12.1-5.7-12.1-5.7S63.6,15.2,64.4,14.4z"/>
	</g>
	<g>
		<path class="st4" d="M77.4,21.3c0.1,0,0.2,0,0.3,0l0.1,0c0,0,0.1,0,0.1,0c0.1,0,0.2,0,0.3,0l0.1,0c0,0,0.1,0,0.1,0
			c0.1,0,0.2,0,0.3,0l0.1,0l0.1,0l0.1,0c0.1,0,0.2,0,0.3-0.1c0.1,0,0.2,0,0.3-0.1l0.1,0c0,0,0.1,0,0.1,0c0.1,0,0.2-0.1,0.3-0.1
			c0,0,0.1,0,0.1-0.1c0,0,0.1,0,0.1-0.1l0.1-0.1l0.1,0c0,0,0,0,0.1,0l0.1-0.1c0,0,0.1,0,0.1-0.1c0.1,0,0.2-0.1,0.2-0.1
			c0.2-0.1,0.3-0.2,0.4-0.3l0.1-0.1l-0.2,0l-0.6-0.1c-0.1,0-0.2,0-0.3,0l-0.3,0l-0.3,0c-0.1,0-0.2,0-0.3,0l-0.6-0.1l-0.1,0l-0.1,0
			l-0.3-0.1c-0.2,0-0.4-0.1-0.6-0.1l-0.6-0.1L77.3,19L77,19l-0.3-0.1c-0.2,0-0.4-0.1-0.5-0.1l-0.5-0.1c-0.2,0-0.4-0.1-0.5-0.1
			c-0.4-0.1-0.7-0.2-1.1-0.3c-0.4-0.1-0.7-0.2-1.1-0.3c-0.2-0.1-0.4-0.1-0.5-0.2c-0.2-0.1-0.4-0.1-0.5-0.2l-0.5-0.2l-0.5-0.2
			l-0.5-0.2c-0.2-0.1-0.4-0.1-0.5-0.2l-0.5-0.2l-0.5-0.2c-0.3-0.1-0.7-0.2-1-0.4c-0.3-0.1-0.7-0.3-1-0.4c-0.2-0.1-0.3-0.1-0.5-0.2
			l-0.5-0.2c-0.3-0.1-0.7-0.3-1-0.4c0.3,0.2,0.7,0.3,1,0.4c0.3,0.1,0.7,0.3,1,0.4c0.3,0.1,0.7,0.3,1,0.4c0.3,0.1,0.7,0.3,1,0.4
			l0.5,0.2l0.5,0.2c0.3,0.1,0.7,0.2,1,0.4l0.5,0.2l0.5,0.2c0.2,0.1,0.4,0.1,0.5,0.2l0.3,0.1l0.3,0.1c0.4,0.1,0.7,0.2,1.1,0.3
			c0.4,0.1,0.7,0.2,1.1,0.3c0.4,0.1,0.7,0.2,1.1,0.3c0.2,0,0.4,0.1,0.6,0.1l0.3,0.1l0.3,0.1c0.2,0,0.4,0.1,0.6,0.1l0.6,0.1
			c0.2,0,0.4,0.1,0.6,0.1l0.3,0.1l0.1,0l0.1,0l0.6,0.1c0.1,0,0.2,0,0.3,0l0.3,0l0.3,0c0.1,0,0.2,0,0.3,0l0.6,0.1l-0.1-0.1
			c-0.1,0.1-0.3,0.2-0.4,0.3c-0.1,0.1-0.1,0.1-0.2,0.1c0,0-0.1,0-0.1,0.1l-0.1,0.1c0,0,0,0-0.1,0l-0.1,0l-0.1,0.1c0,0-0.1,0-0.1,0.1
			c0,0-0.1,0-0.1,0.1c-0.1,0-0.2,0.1-0.3,0.1c0,0-0.1,0-0.1,0l-0.1,0c-0.1,0-0.2,0.1-0.3,0.1c-0.1,0-0.2,0-0.3,0.1l-0.1,0l-0.1,0
			l-0.1,0c-0.1,0-0.2,0-0.3,0.1c0,0-0.1,0-0.1,0l-0.1,0c-0.1,0-0.2,0-0.3,0c0,0-0.1,0-0.1,0l-0.1,0C77.6,21.3,77.5,21.3,77.4,21.3z"
			/>
	</g>
	<g>
		<path class="st3" d="M62.1,15.7c0,0,7.7,6,15.8,8.4c0,0-3.1,2.7-8.6,0.2c-5.5-2.5-10.1-7.7-10.1-7.7S60.9,16.3,62.1,15.7z"/>
	</g>
	<g>
		<path class="st4" d="M73.9,24.9l0.2,0c0.1,0,0.1,0,0.2,0l0.1,0l0.1,0c0.1,0,0.1,0,0.2,0c0.1,0,0.1,0,0.2,0l0.2,0l0.2,0
			c0.1,0,0.1,0,0.2,0c0.1,0,0.1,0,0.2,0c0.1,0,0.1,0,0.2,0c0.1,0,0.1,0,0.2-0.1c0.1,0,0.1,0,0.2-0.1c0.1,0,0.1,0,0.2-0.1
			c0.1,0,0.1,0,0.2-0.1l0.1,0l0.1,0c0.1,0,0.1-0.1,0.2-0.1l0.1-0.1l-0.1,0L76.3,24c-0.1,0-0.2-0.1-0.3-0.1l-0.3-0.1
			c-0.2-0.1-0.3-0.1-0.5-0.2l-0.5-0.2c-0.2-0.1-0.3-0.1-0.5-0.2C74.2,23.1,74,23,73.8,23l-0.5-0.2c-0.2-0.1-0.3-0.1-0.5-0.2
			l-0.2-0.1l-0.2-0.1l-0.5-0.2c-0.3-0.2-0.6-0.3-1-0.5c-0.3-0.2-0.6-0.3-0.9-0.5c-0.3-0.2-0.6-0.3-0.9-0.5c-0.3-0.2-0.6-0.3-0.9-0.5
			l-0.5-0.3l-0.5-0.3c-0.3-0.2-0.6-0.4-0.9-0.5c-0.3-0.2-0.6-0.4-0.9-0.5c-0.3-0.2-0.6-0.4-0.9-0.6c-0.3-0.2-0.6-0.4-0.9-0.6
			c-0.3-0.2-0.6-0.4-0.9-0.6c-0.3-0.2-0.6-0.4-0.8-0.6c0.3,0.2,0.5,0.4,0.8,0.6c0.3,0.2,0.5,0.4,0.8,0.6c0.3,0.2,0.6,0.4,0.8,0.6
			c0.3,0.2,0.6,0.4,0.9,0.6c0.3,0.2,0.6,0.4,0.9,0.6c0.3,0.2,0.6,0.4,0.9,0.5l0.4,0.3l0.5,0.3c0.2,0.1,0.3,0.2,0.5,0.3
			c0.2,0.1,0.3,0.2,0.5,0.3c0.3,0.2,0.6,0.3,0.9,0.5c0.3,0.2,0.6,0.3,0.9,0.5c0.3,0.2,0.6,0.3,1,0.5c0.3,0.2,0.6,0.3,1,0.4
			c0.2,0.1,0.3,0.1,0.5,0.2l0.5,0.2c0.2,0.1,0.3,0.1,0.5,0.2c0.2,0.1,0.3,0.1,0.5,0.2l0.5,0.2c0.2,0.1,0.3,0.1,0.5,0.2L76,24
			c0.1,0,0.2,0.1,0.3,0.1l0.5,0.2l0-0.1c-0.1,0-0.1,0.1-0.2,0.1l-0.1,0l-0.1,0c-0.1,0-0.1,0-0.2,0.1c-0.1,0-0.1,0-0.2,0.1
			c-0.1,0-0.1,0-0.2,0.1c-0.1,0-0.1,0-0.2,0.1c-0.1,0-0.1,0-0.2,0.1c-0.1,0-0.1,0-0.2,0c-0.1,0-0.1,0-0.2,0l-0.2,0l-0.2,0
			c-0.1,0-0.1,0-0.2,0c-0.1,0-0.1,0-0.2,0l-0.1,0l-0.1,0c-0.1,0-0.1,0-0.2,0L73.9,24.9z"/>
	</g>
	<g>
		<path class="st3" d="M59.1,16.6c0,0,3.7,5.7,9.2,8.1c0,0-3.4,2.3-6.7-0.1c-3.3-2.4-4.9-7.1-4.9-7.1S57.3,17,59.1,16.6z"/>
	</g>
	<g>
		<path class="st4" d="M64.8,25.2l0.2,0c0.1,0,0.1,0,0.2,0c0.1,0,0.1,0,0.2,0c0.1,0,0.1,0,0.2,0l0.1,0l0.1,0c0.1,0,0.1,0,0.2,0
			c0.1,0,0.1,0,0.2,0c0.1,0,0.1,0,0.2,0c0.1,0,0.1,0,0.2,0c0.1,0,0.1,0,0.2,0c0,0,0.1,0,0.1,0c0,0,0.1,0,0.1,0c0,0,0.1,0,0.1,0
			c0,0,0.1,0,0.1-0.1c0,0,0.1,0,0.1-0.1c0,0,0.1,0,0.1-0.1l0.1,0l-0.1-0.1l-0.3-0.2c-0.1,0-0.1-0.1-0.2-0.1l-0.2-0.1
			c-0.1-0.1-0.2-0.1-0.3-0.2L66.1,24l-0.2-0.1c-0.2-0.1-0.4-0.3-0.6-0.4L65,23.2c-0.1-0.1-0.2-0.1-0.3-0.2l-0.1-0.1l-0.1-0.1
			c-0.1-0.1-0.2-0.1-0.3-0.2l-0.3-0.2c-0.1-0.1-0.2-0.2-0.3-0.2L63.5,22l-0.1-0.1c-0.1-0.1-0.2-0.2-0.3-0.2
			c-0.2-0.2-0.4-0.3-0.5-0.5c-0.2-0.2-0.3-0.3-0.5-0.5c-0.1-0.1-0.2-0.2-0.3-0.2c-0.1-0.1-0.2-0.2-0.2-0.2c-0.2-0.2-0.3-0.3-0.5-0.5
			l-0.2-0.3l-0.2-0.3c-0.2-0.2-0.3-0.3-0.5-0.5c-0.2-0.2-0.3-0.3-0.5-0.5c-0.3-0.3-0.6-0.7-0.9-1.1c0.1,0.2,0.2,0.4,0.4,0.6
			c0.1,0.2,0.3,0.4,0.4,0.5c0.1,0.1,0.1,0.2,0.2,0.3c0.1,0.1,0.1,0.2,0.2,0.3c0.1,0.1,0.1,0.2,0.2,0.3c0.1,0.1,0.1,0.2,0.2,0.3
			l0.2,0.3l0.2,0.3c0.1,0.1,0.2,0.2,0.2,0.3l0.2,0.3c0.1,0.1,0.2,0.2,0.2,0.3c0.1,0.1,0.2,0.2,0.2,0.3c0.2,0.2,0.3,0.3,0.5,0.5
			c0.2,0.2,0.3,0.3,0.5,0.5c0.1,0.1,0.2,0.2,0.3,0.2l0.1,0.1l0.1,0.1c0.1,0.1,0.2,0.2,0.3,0.2l0.3,0.2c0.1,0.1,0.2,0.1,0.3,0.2
			l0.1,0.1l0.2,0.1c0.1,0.1,0.2,0.1,0.3,0.2l0.3,0.2c0.2,0.1,0.4,0.3,0.6,0.4l0.2,0.1l0.2,0.1c0.1,0.1,0.2,0.1,0.3,0.2
			c0.1,0.1,0.2,0.1,0.3,0.2l0.3,0.2l0-0.1c0,0-0.1,0-0.1,0.1c0,0-0.1,0-0.1,0.1c0,0-0.1,0-0.1,0.1c0,0-0.1,0-0.1,0.1
			c0,0-0.1,0-0.1,0.1c0,0-0.1,0-0.1,0c0,0-0.1,0-0.1,0c0,0-0.1,0-0.1,0c0,0-0.1,0-0.1,0c0,0-0.1,0-0.1,0c0,0-0.1,0-0.2,0l-0.1,0
			l-0.1,0c-0.1,0-0.1,0-0.2,0c-0.1,0-0.1,0-0.2,0c-0.1,0-0.1,0-0.2,0L64.8,25.2z"/>
	</g>
	<g>
		<path class="st3" d="M56.4,17.5c0,0,1.3,5.4,5.2,7.7c0,0-3.5,2-5.5-0.3c-2-2.3-2.1-6.1-2.1-6.1S54.9,18.1,56.4,17.5z"/>
	</g>
	<g>
		<path class="st4" d="M58.7,25.6l0.1,0c0,0,0.1,0,0.1,0c0,0,0.1,0,0.1,0c0,0,0.1,0,0.1,0c0,0,0.1,0,0.1,0c0,0,0.1,0,0.1,0
			c0,0,0.1,0,0.1,0c0,0,0.1,0,0.1,0c0,0,0.1,0,0.1,0c0,0,0.1,0,0.1,0c0,0,0.1,0,0.1,0c0,0,0.1,0,0.1,0c0,0,0.1,0,0.1,0
			c0,0,0.1,0,0.1,0c0.1,0,0.2-0.1,0.2-0.1l0.1,0l-0.1-0.1l-0.2-0.2c-0.1-0.1-0.1-0.1-0.2-0.2c-0.1-0.1-0.1-0.1-0.2-0.2L60,24.5
			l-0.1-0.1l-0.1-0.1l0,0l0,0L59.5,24l-0.2-0.2l0-0.1l0-0.1l-0.1-0.1L59,23.5c0,0-0.1-0.1-0.1-0.1c-0.1-0.1-0.1-0.1-0.2-0.2L58.6,23
			c-0.1-0.1-0.1-0.1-0.2-0.2c-0.1-0.1-0.2-0.3-0.3-0.4L58,22.1L57.9,22l-0.1-0.1l-0.1-0.2l-0.1-0.2l-0.1-0.1l-0.1-0.1L57.3,21
			l-0.1-0.2c0-0.1-0.1-0.2-0.1-0.2c-0.1-0.2-0.2-0.3-0.2-0.5c-0.1-0.2-0.2-0.3-0.2-0.5c-0.1-0.2-0.1-0.3-0.2-0.5
			c-0.1-0.2-0.1-0.3-0.2-0.5L56,18.2c0.1,0.3,0.2,0.6,0.3,1c0.1,0.2,0.1,0.3,0.2,0.5c0.1,0.2,0.1,0.3,0.2,0.5
			c0.1,0.2,0.1,0.3,0.2,0.5c0.1,0.2,0.1,0.3,0.2,0.5l0.1,0.2l0.1,0.1l0.1,0.1l0.1,0.2l0.1,0.2l0.1,0.1l0.1,0.1l0.1,0.2
			c0.1,0.1,0.2,0.3,0.3,0.4c0.1,0.1,0.2,0.3,0.3,0.4c0.1,0.1,0.1,0.1,0.2,0.2c0,0,0.1,0.1,0.1,0.1l0.1,0.1l0.1,0.1l0,0.1l0,0.1
			l0.2,0.2c0.1,0.1,0.3,0.3,0.4,0.4l0.1,0.1l0.1,0.1c0.1,0.1,0.1,0.1,0.2,0.2c0.1,0.1,0.2,0.1,0.2,0.2l0.2,0.2l0-0.1
			c-0.1,0-0.1,0.1-0.2,0.1c-0.1,0-0.2,0.1-0.2,0.1c0,0-0.1,0-0.1,0c0,0-0.1,0-0.1,0c0,0-0.1,0-0.1,0c0,0-0.1,0-0.1,0
			c0,0-0.1,0-0.1,0c0,0-0.1,0-0.1,0c0,0-0.1,0-0.1,0c0,0-0.1,0-0.1,0c0,0-0.1,0-0.1,0c0,0-0.1,0-0.1,0c0,0-0.1,0-0.1,0L58.7,25.6z"
			/>
	</g>
	<g>
		<path class="st3" d="M53.8,19c0,0-0.2,4.1,2.2,6.3c0,0-3.8,0.9-4.6-1c-0.9-2.1-0.2-4.4-0.2-4.4S52.4,19.6,53.8,19z"/>
	</g>
	<g>
		<path class="st4" d="M52.8,24.9L52.8,24.9l0.1,0.1c0,0,0.1,0,0.1,0c0,0,0.1,0,0.1,0c0,0,0.1,0,0.1,0c0,0,0.1,0,0.1,0
			c0,0,0.1,0,0.1,0c0.1,0,0.2,0,0.3,0c0.1,0,0.2,0,0.3,0c0,0,0.1,0,0.1,0c0,0,0.1,0,0.1,0c0.1,0,0.2,0,0.3,0c0.1,0,0.2,0,0.3,0
			l0.2,0L55.1,25l-0.2-0.3l0,0l0,0l0-0.1l-0.1-0.2l0-0.1l0-0.1l-0.1-0.2c0-0.1-0.1-0.1-0.1-0.2l-0.1-0.2l-0.1-0.2l-0.1-0.2
			c0-0.1-0.1-0.2-0.1-0.3c0-0.1-0.1-0.2-0.1-0.3l-0.1-0.2c0-0.1,0-0.1-0.1-0.2c0-0.1-0.1-0.2-0.1-0.3c0-0.1-0.1-0.2-0.1-0.3
			l-0.1-0.3l-0.1-0.3c0-0.1,0-0.2-0.1-0.3c0-0.1,0-0.2-0.1-0.3c0-0.1,0-0.2-0.1-0.3l-0.1-0.3c0,0.1,0,0.2,0,0.3l0,0.2l0,0.2
			c0,0.1,0,0.2,0,0.3c0,0.1,0,0.2,0,0.3c0,0.1,0,0.2,0,0.3l0.1,0.3c0,0.1,0.1,0.2,0.1,0.3c0,0.1,0.1,0.2,0.1,0.3
			c0,0.1,0,0.1,0.1,0.2l0.1,0.2l0,0.1c0,0,0,0.1,0,0.1l0.1,0.2c0,0.1,0,0.1,0.1,0.2l0.1,0.2l0.1,0.2l0.1,0.2
			c0.1,0.1,0.1,0.2,0.2,0.3l0.1,0.2l0,0.1l0.1,0.1l0.1,0.2l0.1,0.1l0,0l0,0l0.2,0.3l0.1-0.1c-0.1,0-0.2,0-0.3,0c-0.1,0-0.2,0-0.3,0
			c0,0-0.1,0-0.1,0c0,0-0.1,0-0.1,0c-0.1,0-0.2,0-0.3,0c-0.1,0-0.2,0-0.3,0c0,0-0.1,0-0.1,0c0,0-0.1,0-0.1,0c0,0-0.1,0-0.1,0
			c0,0-0.1,0-0.1,0c0,0-0.1,0-0.1,0C52.9,24.9,52.8,24.9,52.8,24.9z"/>
	</g>
	<g>
		<path class="st3" d="M51,20c0,0-1,2.3,0,4.3c0,0.1-3.2,0.3-3.1-2.2c0-1.2-0.1-1.5-0.1-1.7C47.7,20.4,49.9,20.3,51,20z"/>
	</g>
	<g>
		<path class="st4" d="M49,23.4C49,23.4,49.1,23.4,49,23.4c0.1,0.1,0.1,0.1,0.1,0.1c0,0,0,0,0.1,0c0,0,0,0,0.1,0c0,0,0,0,0.1,0
			c0,0,0,0,0.1,0c0,0,0,0,0.1,0c0,0,0.1,0,0.1,0c0,0,0.1,0,0.1,0c0,0,0.1,0,0.1,0c0.1,0,0.1,0,0.2,0.1c0.1,0,0.2,0.1,0.3,0.1l0.2,0
			l0-0.1l0-0.2c0-0.1,0-0.1,0-0.2c0-0.1,0-0.1,0-0.2c0,0,0-0.1,0-0.1l0-0.1l0-0.1c0,0,0-0.1,0-0.1c0-0.1,0-0.1,0-0.2
			c0-0.1,0-0.1,0-0.2c0-0.1,0-0.1,0-0.2c0-0.1,0-0.1,0-0.2c0-0.1,0-0.1,0-0.2c0-0.1,0-0.1,0-0.2l0-0.2c0-0.1,0-0.1,0-0.2l0-0.2
			l0-0.2c0-0.1,0-0.1,0-0.2c0,0.1-0.1,0.1-0.1,0.2l0,0.1l0,0.1c0,0.1,0,0.1-0.1,0.2c0,0.1,0,0.1,0,0.2c0,0.1,0,0.1,0,0.2
			c0,0.1,0,0.1,0,0.2c0,0.1,0,0.1,0,0.2c0,0.1,0,0.1,0,0.2c0,0.1,0,0.1,0,0.2c0,0.1,0,0.1,0,0.2c0,0.1,0,0.1,0,0.2c0,0,0,0.1,0,0.1
			l0,0.1l0,0.1c0,0,0,0.1,0,0.1c0,0.1,0,0.1,0,0.2c0,0.1,0,0.1,0.1,0.2l0.1,0.2l0.1-0.1c-0.1,0-0.1,0-0.2,0c0,0-0.1,0-0.1,0
			c0,0-0.1,0-0.1,0c-0.1,0-0.1,0-0.2,0c0,0-0.1,0-0.1,0c0,0-0.1,0-0.1,0c0,0-0.1,0-0.1,0c0,0-0.1,0-0.1,0c0,0-0.1,0-0.1,0
			c0,0-0.1,0-0.1,0c0,0,0,0-0.1,0c0,0,0,0-0.1,0C49.1,23.5,49.1,23.5,49,23.4C49.1,23.4,49,23.4,49,23.4z"/>
	</g>
	<g>
		<path class="st4" d="M67.9,13.6c0,0,1.1,0.2,2.1,0.4c0,0-1.9-0.2-2.4-0.3l1.5,0.5c0,0-1.6-0.2-2.1-0.3l1.3,0.4
			c0,0-1.3-0.1-1.6-0.2l1,0.3l-1.6-0.2l0.9,0.3l-1.3-0.2l0.6,0.2l-1-0.1l1.1,0.6c0,0-1.5-0.6-1.6-0.6c0,0,0.7-0.7,1.2-1.2L67.9,13.6
			z"/>
	</g>
	<g>
		<path class="st4" d="M64.4,14.9c0,0,3.2,1.4,4.1,1.7c0,0-1.2-0.2-1.8-0.5l0.7,0.4c0,0-1-0.2-1.6-0.4l0.8,0.3c0,0-0.9-0.2-1.4-0.4
			l0.7,0.4c0,0-1.1-0.3-1.5-0.5l0.6,0.4c0,0-0.9-0.2-1.2-0.4l0.5,0.3c0,0-0.7-0.2-1-0.4l0.4,0.5c0,0-0.9-0.6-1-0.6
			C62.7,15.7,64,15.2,64.4,14.9z"/>
	</g>
	<g>
		<path class="st4" d="M61.9,16.1c0,0,2,1.5,3.2,2.3c0,0-1.3-0.6-1.8-0.9l0.8,0.7c0,0-1.2-0.6-1.5-0.8l0.8,0.7c0,0-1-0.5-1.4-0.8
			l0.6,0.6c0,0-0.9-0.4-1.2-0.6l0.6,0.5c0,0-0.6-0.3-1-0.5l0.3,0.4c0,0-0.5-0.2-1-0.6l0.2,0.4c0,0-0.9-0.6-1.1-0.8
			C59.7,16.7,61.4,16.4,61.9,16.1z"/>
	</g>
	<g>
		<path class="st4" d="M58.8,17c0,0,1,1.4,2,2.5c0,0-0.8-0.5-1.1-0.9l0.5,0.9c0,0-0.8-0.7-1-1l0.4,0.7c0,0-0.6-0.5-0.9-0.8l0.3,0.7
			c0,0-0.4-0.4-0.7-0.8l0.2,0.6c0,0-0.5-0.5-0.7-0.9l0,0.8c0,0-0.3-0.7-0.6-1.2C57,17.6,58,17.1,58.8,17z"/>
	</g>
	<g>
		<path class="st4" d="M56,18.1c0,0,0.8,2.2,1.3,3c0,0-0.7-0.8-1-1.4c0,0,0.2,0.9,0.3,1.1c0,0-0.4-0.6-0.6-1.2c0,0,0.1,0.7,0.1,0.9
			c0,0-0.4-0.6-0.5-1c0,0,0,0.7,0.1,0.9c0,0-0.3-0.6-0.4-0.9c0,0,0,0.5,0,0.7c0,0-0.3-0.4-0.4-0.8c0,0,0,0.4,0,0.6
			c0,0-0.2-0.5-0.3-0.8c0,0-0.1,0.5-0.1,0.6c0,0-0.2-0.3-0.3-0.7C54.2,19,55.1,18.4,56,18.1z"/>
	</g>
	<g>
		<path class="st4" d="M53.2,19.6c0,0,0,1.2,0.2,2.2c0,0-0.4-0.5-0.4-1.1c0,0,0,0.5,0,0.8c0,0-0.3-0.5-0.3-0.9c0,0,0,0.3,0,0.6
			c0,0-0.2-0.4-0.2-0.7c0,0,0,0.3,0,0.5c0,0-0.2-0.3-0.2-0.6c0,0,0,0.3,0,0.5c0,0-0.2-0.3-0.2-0.6c0,0-0.1,0.3-0.1,0.5
			c0,0-0.1-0.3-0.1-0.5l-0.1,0.3c0,0-0.1-0.2-0.1-0.4C51.6,20.1,52.9,19.7,53.2,19.6z"/>
	</g>
	<g>
		<path class="st4" d="M50.4,20.4c0,0-0.2,0.2-0.4,1.7c0,0-0.1-0.3-0.2-0.8c0,0-0.1,0.4-0.1,0.6c0,0-0.2-0.4-0.2-0.7
			c0,0-0.1,0.2-0.1,0.4c0,0-0.2-0.4-0.2-0.6c0,0-0.1,0.3-0.1,0.4c0,0-0.2-0.3-0.2-0.5c0,0,0,0.2-0.1,0.4c0,0-0.2-0.3-0.2-0.5
			l-0.1,0.4c0,0-0.2-0.4-0.5-0.5C48.1,20.7,49.2,20.7,50.4,20.4z"/>
	</g>
	<g>
		<path class="st4" d="M56.9,10.2c0,0,4.5,2.7,7.9,2.4c0,0-1.4,0.3-2.8,0.1c0,0,1,0.2,1.7,0.2c0,0-1.5,0.3-3.1-0.1
			c0,0,0.8,0.3,1.2,0.4c0,0-1.2,0-2-0.3c0,0,0.3,0.2,0.5,0.3c0,0-1.3-0.1-2.3-1c0,0,0.3,0.2,0.5,0.2c0,0-0.7-0.5-1-1
			c0,0,0.9,0.5,1.2,0.7c0,0-1.1-0.8-1.5-1.2c0,0,0.7,0.4,1.4,0.7C58.4,11.5,57.5,11,56.9,10.2z"/>
	</g>
</g>
<g>
	<g>
		<g>
			<ellipse class="st5" cx="42.5" cy="21" rx="3.6" ry="2.8"/>
		</g>
		<g>
			<g>
				<path class="st3" d="M46.8,16.1h-8.6c-1.1,0-2,0.7-2,1.6v6.6c0,0.9,0.9,1.6,2,1.6h8.6c1.1,0,2-0.7,2-1.6v-6.6
					C48.8,16.8,47.9,16.1,46.8,16.1z M42.5,24c-2.2,0-3.9-1.4-3.9-3s1.8-3,3.9-3c2.2,0,3.9,1.4,3.9,3S44.7,24,42.5,24z"/>
			</g>
			<g>
				<path class="st4" d="M46.8,25.7h-8.6c-1,0-1.8-0.6-1.8-1.4v-6.6c0-0.8,0.8-1.4,1.8-1.4h8.6c1,0,1.8,0.6,1.8,1.4v6.6
					C48.6,25,47.8,25.7,46.8,25.7z M38.2,16.5c-0.8,0-1.5,0.5-1.5,1.2v6.6c0,0.6,0.7,1.2,1.5,1.2h8.6c0.8,0,1.5-0.5,1.5-1.2v-6.6
					c0-0.6-0.7-1.2-1.5-1.2H38.2z M42.5,24.4c-2.5,0-4.4-1.5-4.4-3.4c0-1.9,2-3.4,4.4-3.4c2.5,0,4.4,1.5,4.4,3.4
					C46.9,22.9,45,24.4,42.5,24.4z M42.5,17.7c-2.3,0-4.2,1.4-4.2,3.2c0,1.8,1.9,3.2,4.2,3.2c2.3,0,4.2-1.4,4.2-3.2
					C46.7,19.2,44.8,17.7,42.5,17.7z"/>
			</g>
			<g>
				<g>
					<path class="st4" d="M46.5,25.4c0,0,0.5,0,1-0.4c0.5-0.3,0.7-0.8,0.7-0.8s-0.1,0.5-0.6,0.8C47.1,25.5,46.5,25.4,46.5,25.4z"/>
				</g>
				<g>
					<path class="st4" d="M46.8,25.4c0,0,0.4-0.1,0.9-0.3c0.5-0.3,0.7-0.7,0.7-0.7s-0.1,0.4-0.6,0.7C47.3,25.5,46.8,25.4,46.8,25.4z
						"/>
				</g>
				<g>
					<path class="st4" d="M47,25.5c0,0,0.4,0,0.7-0.3c0.4-0.2,0.5-0.5,0.5-0.5s-0.1,0.4-0.5,0.6C47.4,25.5,47,25.5,47,25.5z"/>
				</g>
			</g>
			<g>
				<g>
					<path class="st4" d="M38.4,25.4c0,0-0.5,0-1-0.4c-0.5-0.3-0.7-0.8-0.7-0.8s0.1,0.5,0.6,0.8C37.9,25.5,38.4,25.4,38.4,25.4z"/>
				</g>
				<g>
					<path class="st4" d="M38.2,25.4c0,0-0.4-0.1-0.9-0.3c-0.5-0.3-0.7-0.7-0.7-0.7s0.1,0.4,0.6,0.7C37.7,25.5,38.2,25.4,38.2,25.4z
						"/>
				</g>
				<g>
					<path class="st4" d="M38,25.5c0,0-0.4,0-0.7-0.3c-0.4-0.2-0.5-0.5-0.5-0.5s0.1,0.4,0.5,0.6C37.6,25.5,38,25.5,38,25.5z"/>
				</g>
			</g>
			<g>
				<g>
					<path class="st4" d="M46.5,16.5c0,0,0.5,0,1,0.4c0.5,0.3,0.7,0.8,0.7,0.8s-0.1-0.5-0.6-0.8C47.1,16.5,46.5,16.5,46.5,16.5z"/>
				</g>
				<g>
					<path class="st4" d="M46.8,16.5c0,0,0.4,0.1,0.9,0.3c0.5,0.3,0.7,0.7,0.7,0.7s-0.1-0.4-0.6-0.7C47.3,16.5,46.8,16.5,46.8,16.5z
						"/>
				</g>
				<g>
					<path class="st4" d="M47,16.5c0,0,0.4,0,0.7,0.3c0.4,0.2,0.5,0.5,0.5,0.5s-0.1-0.4-0.5-0.6C47.4,16.5,47,16.5,47,16.5z"/>
				</g>
			</g>
			<g>
				<g>
					<path class="st4" d="M38.4,16.5c0,0-0.5,0-1,0.4c-0.5,0.3-0.7,0.8-0.7,0.8s0.1-0.5,0.6-0.8C37.9,16.5,38.4,16.5,38.4,16.5z"/>
				</g>
				<g>
					<path class="st4" d="M38.2,16.5c0,0-0.4,0.1-0.9,0.3c-0.5,0.3-0.7,0.7-0.7,0.7s0.1-0.4,0.6-0.7C37.7,16.5,38.2,16.5,38.2,16.5z
						"/>
				</g>
				<g>
					<path class="st4" d="M38,16.5c0,0-0.4,0-0.7,0.3c-0.4,0.2-0.5,0.5-0.5,0.5s0.1-0.4,0.5-0.6C37.6,16.5,38,16.5,38,16.5z"/>
				</g>
			</g>
		</g>
		<g>
			<g>
				<path class="st1" d="M44.8,20.6v0.8c0,0.2-0.2,0.3-0.4,0.3h-0.9v0.7c0,0.2-0.2,0.3-0.4,0.3h-1c-0.2,0-0.4-0.2-0.4-0.3v-0.7h-0.9
					c-0.2,0-0.4-0.2-0.4-0.3v-0.8c0-0.2,0.2-0.3,0.4-0.3h0.9v-0.7c0-0.2,0.2-0.3,0.4-0.3h1c0.2,0,0.4,0.2,0.4,0.3v0.7h0.9
					C44.6,20.2,44.8,20.4,44.8,20.6z"/>
			</g>
		</g>
	</g>
	<g>
		<g>
			<ellipse class="st3" cx="42.5" cy="13.1" rx="3.5" ry="2.7"/>
		</g>
		<g>
			<path class="st4" d="M42.5,15.3c0,0-0.1,0-0.2,0c-0.1,0-0.1,0-0.2,0c-0.1,0-0.2,0-0.3,0c-0.1,0-0.2,0-0.3,0c-0.1,0-0.1,0-0.2,0
				c-0.1,0-0.1,0-0.2,0c-0.3-0.1-0.5-0.2-0.8-0.4c-0.3-0.2-0.5-0.4-0.7-0.6c-0.2-0.3-0.3-0.6-0.4-0.9c0,0,0-0.1,0-0.1l0-0.1l0-0.1
				l0-0.1l0-0.1l0-0.1c0-0.1,0-0.2,0.1-0.3c0-0.1,0.1-0.2,0.1-0.3c0.2-0.3,0.4-0.7,0.7-0.9c0.3-0.3,0.7-0.5,1.2-0.6
				c0.4-0.1,0.9-0.2,1.3-0.1c0.4,0,0.9,0.1,1.2,0.3c0.3,0.2,0.6,0.3,0.8,0.6c0.2,0.2,0.4,0.4,0.5,0.6c0,0,0,0.1,0.1,0.1
				c0,0,0,0.1,0,0.1c0,0.1,0,0.2,0.1,0.2c0,0.1,0,0.1,0,0.2c0,0.1,0,0.1,0,0.1c0,0.1,0,0.1,0,0.1s0,0,0-0.1c0,0,0-0.1,0-0.1
				c0-0.1,0-0.1-0.1-0.2c0-0.1-0.1-0.1-0.1-0.2c-0.1-0.1-0.1-0.2-0.2-0.2c-0.1-0.2-0.3-0.3-0.5-0.5c-0.2-0.2-0.5-0.3-0.8-0.4
				c-0.3-0.1-0.7-0.2-1-0.2l-0.2,0l-0.1,0l0,0c0,0,0,0,0,0l0,0l0,0l0,0c-0.1,0-0.2,0-0.3,0c-0.1,0-0.2,0-0.3,0c-0.1,0-0.2,0-0.3,0.1
				c-0.3,0.1-0.7,0.3-0.9,0.5c-0.3,0.2-0.5,0.5-0.6,0.7c0,0.1-0.1,0.1-0.1,0.2c0,0.1,0,0.1-0.1,0.2l0,0l0,0.1l0,0.1l0,0l0,0l0,0
				c0,0,0,0,0,0l0,0l0,0.1l0,0.1c0,0.3,0.1,0.5,0.2,0.8c0.1,0.2,0.3,0.4,0.5,0.6c0.2,0.2,0.4,0.3,0.6,0.4c0.1,0.1,0.2,0.1,0.3,0.1
				c0.1,0,0.2,0.1,0.3,0.1c0.1,0,0.2,0,0.2,0c0.1,0,0.1,0,0.2,0C42.4,15.3,42.5,15.3,42.5,15.3z"/>
		</g>
		<g>
			<path class="st4" d="M42.2,14.9c0,0,0,0-0.1,0c-0.1,0-0.2,0-0.4,0c-0.1,0-0.2,0-0.3,0c-0.1,0-0.2,0-0.3-0.1
				c-0.2-0.1-0.5-0.2-0.7-0.3c-0.2-0.1-0.4-0.3-0.6-0.6c-0.2-0.2-0.3-0.5-0.3-0.8l0-0.1l0-0.1l0-0.1l0-0.1l0-0.1l0-0.1
				c0-0.2,0.1-0.3,0.1-0.5c0.1-0.3,0.3-0.6,0.6-0.8c0.3-0.2,0.6-0.4,1-0.5c0.4-0.1,0.8-0.1,1.2-0.1c0.4,0,0.7,0.1,1,0.3
				c0.3,0.1,0.5,0.3,0.7,0.5c0.2,0.2,0.3,0.4,0.4,0.5c0,0,0,0.1,0.1,0.1c0,0,0,0.1,0,0.1c0,0.1,0,0.1,0,0.2c0,0.1,0,0.2,0,0.3
				c0,0.1,0,0.1,0,0.1s0,0,0-0.1c0,0,0-0.1,0-0.1c0,0,0-0.1-0.1-0.2c0-0.1-0.1-0.1-0.1-0.2c0-0.1-0.1-0.1-0.1-0.2
				c-0.1-0.1-0.3-0.3-0.4-0.4c-0.2-0.1-0.4-0.3-0.7-0.3c-0.3-0.1-0.5-0.1-0.8-0.2l-0.1,0l-0.1,0l0,0c0,0,0,0,0,0l0,0l0,0l0,0
				c-0.1,0-0.2,0-0.2,0c-0.1,0-0.2,0-0.2,0c-0.1,0-0.1,0-0.2,0.1c-0.3,0.1-0.6,0.2-0.8,0.4c-0.2,0.2-0.4,0.4-0.5,0.6
				c0,0.1,0,0.1-0.1,0.2c0,0.1,0,0.1,0,0.2l0,0l0,0.1l0,0.1l0,0l0,0l0,0c0,0,0,0,0,0l0,0l0,0l0,0.1c0,0.2,0.1,0.5,0.2,0.7
				c0.1,0.2,0.3,0.4,0.4,0.5c0.2,0.1,0.4,0.3,0.5,0.3c0.1,0,0.2,0.1,0.3,0.1c0.1,0,0.2,0.1,0.2,0.1c0.1,0,0.1,0,0.2,0
				c0.1,0,0.1,0,0.2,0C42.1,14.9,42.2,14.9,42.2,14.9z"/>
		</g>
		<g>
			<path class="st4" d="M41.9,14.2c0,0,0,0-0.1,0c-0.1,0-0.2,0-0.3,0c-0.1,0-0.1,0-0.2,0c-0.1,0-0.2,0-0.3-0.1
				c-0.2,0-0.4-0.1-0.6-0.2c-0.2-0.1-0.4-0.3-0.5-0.5c-0.1-0.2-0.2-0.4-0.3-0.6l0-0.1l0,0l0-0.1l0-0.1l0,0l0,0c0-0.1,0-0.3,0.1-0.4
				c0.1-0.2,0.3-0.5,0.5-0.7c0.2-0.2,0.5-0.3,0.8-0.4c0.3-0.1,0.7-0.1,1-0.1c0.3,0,0.6,0.1,0.8,0.2c0.2,0.1,0.4,0.3,0.6,0.4
				c0.1,0.1,0.2,0.3,0.3,0.4c0,0.1,0,0.1,0.1,0.2c0,0.1,0,0.1,0,0.2c0,0.1,0,0.2,0,0.2c0,0.1,0,0.1,0,0.1s0,0,0-0.1c0,0,0-0.1,0-0.1
				c0,0,0-0.1,0-0.1c0,0,0-0.1-0.1-0.1c0,0-0.1-0.1-0.1-0.2c-0.1-0.1-0.2-0.2-0.4-0.3c-0.1-0.1-0.3-0.2-0.5-0.3
				c-0.2-0.1-0.4-0.1-0.6-0.1l-0.1,0l-0.1,0l0,0c0,0,0,0,0,0l0,0l0,0l0,0c-0.1,0-0.1,0-0.2,0c-0.1,0-0.1,0-0.2,0c-0.1,0-0.1,0-0.2,0
				c-0.2,0.1-0.4,0.2-0.6,0.3c-0.2,0.1-0.3,0.3-0.4,0.5c0,0.1-0.1,0.2-0.1,0.3l0,0l0,0l0,0.1l0,0l0,0l0,0c0,0,0,0,0,0l0,0l0,0l0,0.1
				c0,0.2,0.1,0.4,0.1,0.5c0.1,0.2,0.2,0.3,0.3,0.4c0.1,0.1,0.3,0.2,0.4,0.3c0.1,0,0.1,0.1,0.2,0.1c0.1,0,0.1,0,0.2,0.1
				c0.1,0,0.1,0,0.2,0c0,0,0.1,0,0.1,0C41.8,14.1,41.9,14.2,41.9,14.2z"/>
		</g>
		<g>
			<path class="st6" d="M42.6,12.5c0,0.4-0.4,0.7-1,0.7c-0.5,0-1-0.3-1-0.7c0-0.4,0.4-0.7,1-0.7C42.2,11.8,42.6,12.1,42.6,12.5z"/>
		</g>
	</g>
	<g>
		<g>
			<path class="st3" d="M42.5,25.7h-1.6c-0.4,0-0.7,0.2-0.7,0.4l2,28c0,0.3,0.8,0.3,0.8,0l2-28c0-0.2-0.3-0.4-0.7-0.4H42.5z"/>
		</g>
		<g>
			<g>
				<path class="st4" d="M41.5,26c-0.2,0-0.4,0.1-0.4,0.2l1.3,27.6L42.3,26H41.5z"/>
			</g>
			<g>
				<g>
					<polygon class="st4" points="42.3,26 43,26.1 42.3,26.1 					"/>
				</g>
				<g>
					<polygon class="st4" points="42.3,26.1 43,26.2 42.3,26.2 					"/>
				</g>
				<g>
					<polygon class="st4" points="42.3,26.3 43,26.3 42.3,26.3 					"/>
				</g>
				<g>
					<polygon class="st4" points="42.3,26.4 43,26.4 42.3,26.5 					"/>
				</g>
				<g>
					<polygon class="st4" points="42.3,26.5 43,26.6 42.3,26.6 					"/>
				</g>
				<g>
					<polygon class="st4" points="42.3,26.7 43,26.7 42.3,26.7 					"/>
				</g>
				<g>
					<polygon class="st4" points="42.3,26.8 43,26.8 42.3,26.9 					"/>
				</g>
				<g>
					<polygon class="st4" points="42.3,26.9 43,26.9 42.3,27 					"/>
				</g>
				<g>
					<polygon class="st4" points="42.3,27 43,27.1 42.3,27.1 					"/>
				</g>
				<g>
					<polygon class="st4" points="42.3,27.2 43,27.2 42.3,27.2 					"/>
				</g>
				<g>
					<polygon class="st4" points="42.3,27.3 43,27.3 42.3,27.4 					"/>
				</g>
				<g>
					<polygon class="st4" points="42.3,27.4 43,27.5 42.3,27.5 					"/>
				</g>
				<g>
					<polygon class="st4" points="42.3,27.6 43,27.6 42.3,27.6 					"/>
				</g>
				<g>
					<polygon class="st4" points="42.3,27.7 43,27.7 42.3,27.8 					"/>
				</g>
				<g>
					<polygon class="st4" points="42.3,27.8 43,27.8 42.3,27.9 					"/>
				</g>
				<g>
					<polygon class="st4" points="42.3,27.9 43,28 42.3,28 					"/>
				</g>
				<g>
					<polygon class="st4" points="42.3,28.1 42.9,28.1 42.3,28.1 					"/>
				</g>
				<g>
					<polygon class="st4" points="42.3,28.2 42.9,28.2 42.3,28.3 					"/>
				</g>
				<g>
					<polygon class="st4" points="42.3,28.3 42.9,28.4 42.3,28.4 					"/>
				</g>
				<g>
					<polygon class="st4" points="42.3,28.5 42.9,28.5 42.3,28.5 					"/>
				</g>
				<g>
					<polygon class="st4" points="42.3,28.6 42.9,28.6 42.3,28.6 					"/>
				</g>
				<g>
					<polygon class="st4" points="42.3,28.7 42.9,28.7 42.3,28.8 					"/>
				</g>
				<g>
					<polygon class="st4" points="42.3,28.8 42.9,28.9 42.3,28.9 					"/>
				</g>
				<g>
					<polygon class="st4" points="42.3,29 42.9,29 42.3,29 					"/>
				</g>
				<g>
					<polygon class="st4" points="42.3,29.1 42.9,29.1 42.3,29.2 					"/>
				</g>
				<g>
					<polygon class="st4" points="42.3,29.2 42.9,29.3 42.3,29.3 					"/>
				</g>
				<g>
					<polygon class="st4" points="42.3,29.4 42.9,29.4 42.3,29.4 					"/>
				</g>
				<g>
					<polygon class="st4" points="42.3,29.5 42.9,29.5 42.3,29.5 					"/>
				</g>
				<g>
					<polygon class="st4" points="42.3,29.6 42.9,29.6 42.3,29.7 					"/>
				</g>
				<g>
					<polygon class="st4" points="42.3,29.7 42.9,29.8 42.3,29.8 					"/>
				</g>
				<g>
					<polygon class="st4" points="42.3,29.9 42.9,29.9 42.3,29.9 					"/>
				</g>
				<g>
					<polygon class="st4" points="42.3,30 42.9,30 42.3,30.1 					"/>
				</g>
				<g>
					<polygon class="st4" points="42.3,30.1 42.9,30.2 42.3,30.2 					"/>
				</g>
				<g>
					<polygon class="st4" points="42.3,30.3 42.9,30.3 42.3,30.3 					"/>
				</g>
				<g>
					<polygon class="st4" points="42.3,30.4 42.9,30.4 42.3,30.4 					"/>
				</g>
				<g>
					<polygon class="st4" points="42.3,30.5 42.9,30.5 42.3,30.6 					"/>
				</g>
				<g>
					<polygon class="st4" points="42.3,30.6 42.9,30.7 42.3,30.7 					"/>
				</g>
				<g>
					<polygon class="st4" points="42.3,30.8 42.9,30.8 42.3,30.8 					"/>
				</g>
				<g>
					<polygon class="st4" points="42.3,30.9 42.9,30.9 42.3,31 					"/>
				</g>
				<g>
					<polygon class="st4" points="42.3,31 42.9,31.1 42.3,31.1 					"/>
				</g>
				<g>
					<polygon class="st4" points="42.3,31.1 42.9,31.2 42.3,31.2 					"/>
				</g>
				<g>
					<polygon class="st4" points="42.3,31.3 42.9,31.3 42.3,31.3 					"/>
				</g>
				<g>
					<polygon class="st4" points="42.3,31.4 42.9,31.4 42.3,31.5 					"/>
				</g>
				<g>
					<polygon class="st4" points="42.3,31.5 42.9,31.6 42.3,31.6 					"/>
				</g>
				<g>
					<polygon class="st4" points="42.3,31.7 42.9,31.7 42.3,31.7 					"/>
				</g>
				<g>
					<polygon class="st4" points="42.3,31.8 42.9,31.8 42.3,31.9 					"/>
				</g>
				<g>
					<polygon class="st4" points="42.3,31.9 42.9,32 42.3,32 					"/>
				</g>
				<g>
					<polygon class="st4" points="42.3,32 42.9,32.1 42.3,32.1 					"/>
				</g>
				<g>
					<polygon class="st4" points="42.3,32.2 42.9,32.2 42.3,32.2 					"/>
				</g>
				<g>
					<polygon class="st4" points="42.3,32.3 42.9,32.3 42.3,32.4 					"/>
				</g>
				<g>
					<polygon class="st4" points="42.3,32.4 42.9,32.5 42.3,32.5 					"/>
				</g>
				<g>
					<polygon class="st4" points="42.3,32.6 42.9,32.6 42.3,32.6 					"/>
				</g>
				<g>
					<polygon class="st4" points="42.3,32.7 42.9,32.7 42.3,32.8 					"/>
				</g>
				<g>
					<polygon class="st4" points="42.3,32.8 42.9,32.8 42.3,32.9 					"/>
				</g>
				<g>
					<polygon class="st4" points="42.3,32.9 42.9,33 42.3,33 					"/>
				</g>
				<g>
					<polygon class="st4" points="42.3,33.1 42.9,33.1 42.3,33.1 					"/>
				</g>
				<g>
					<polygon class="st4" points="42.3,33.2 42.9,33.2 42.3,33.3 					"/>
				</g>
				<g>
					<polygon class="st4" points="42.3,33.3 42.9,33.4 42.3,33.4 					"/>
				</g>
				<g>
					<polygon class="st4" points="42.3,33.5 42.9,33.5 42.3,33.5 					"/>
				</g>
				<g>
					<polygon class="st4" points="42.3,33.6 42.9,33.6 42.3,33.7 					"/>
				</g>
				<g>
					<polygon class="st4" points="42.3,33.7 42.9,33.7 42.3,33.8 					"/>
				</g>
				<g>
					<polygon class="st4" points="42.3,33.8 42.9,33.9 42.3,33.9 					"/>
				</g>
				<g>
					<polygon class="st4" points="42.3,34 42.9,34 42.3,34 					"/>
				</g>
				<g>
					<polygon class="st4" points="42.3,34.1 42.9,34.1 42.3,34.2 					"/>
				</g>
				<g>
					<polygon class="st4" points="42.3,34.2 42.9,34.3 42.3,34.3 					"/>
				</g>
				<g>
					<polygon class="st4" points="42.3,34.4 42.9,34.4 42.3,34.4 					"/>
				</g>
				<g>
					<polygon class="st4" points="42.3,34.5 42.9,34.5 42.3,34.5 					"/>
				</g>
				<g>
					<polygon class="st4" points="42.4,34.6 42.9,34.6 42.4,34.7 					"/>
				</g>
				<g>
					<polygon class="st4" points="42.4,34.7 42.9,34.8 42.4,34.8 					"/>
				</g>
				<g>
					<polygon class="st4" points="42.4,34.9 42.9,34.9 42.4,34.9 					"/>
				</g>
				<g>
					<polygon class="st4" points="42.4,35 42.9,35 42.4,35.1 					"/>
				</g>
				<g>
					<polygon class="st4" points="42.4,35.1 42.8,35.2 42.4,35.2 					"/>
				</g>
				<g>
					<polygon class="st4" points="42.4,35.3 42.8,35.3 42.4,35.3 					"/>
				</g>
				<g>
					<polygon class="st4" points="42.4,35.4 42.8,35.4 42.4,35.4 					"/>
				</g>
				<g>
					<polygon class="st4" points="42.4,35.5 42.8,35.5 42.4,35.6 					"/>
				</g>
				<g>
					<polygon class="st4" points="42.4,35.6 42.8,35.7 42.4,35.7 					"/>
				</g>
				<g>
					<polygon class="st4" points="42.4,35.8 42.8,35.8 42.4,35.8 					"/>
				</g>
				<g>
					<polygon class="st4" points="42.4,35.9 42.8,35.9 42.4,36 					"/>
				</g>
				<g>
					<polygon class="st4" points="42.4,36 42.8,36.1 42.4,36.1 					"/>
				</g>
				<g>
					<polygon class="st4" points="42.4,36.2 42.8,36.2 42.4,36.2 					"/>
				</g>
				<g>
					<polygon class="st4" points="42.4,36.3 42.8,36.3 42.4,36.3 					"/>
				</g>
				<g>
					<polygon class="st4" points="42.4,36.4 42.8,36.4 42.4,36.5 					"/>
				</g>
				<g>
					<polygon class="st4" points="42.4,36.5 42.8,36.6 42.4,36.6 					"/>
				</g>
				<g>
					<polygon class="st4" points="42.4,36.7 42.8,36.7 42.4,36.7 					"/>
				</g>
				<g>
					<polygon class="st4" points="42.4,36.8 42.8,36.8 42.4,36.9 					"/>
				</g>
				<g>
					<polygon class="st4" points="42.4,36.9 42.8,37 42.4,37 					"/>
				</g>
				<g>
					<polygon class="st4" points="42.4,37 42.8,37.1 42.4,37.1 					"/>
				</g>
				<g>
					<polygon class="st4" points="42.4,37.2 42.8,37.2 42.4,37.2 					"/>
				</g>
				<g>
					<polygon class="st4" points="42.4,37.3 42.8,37.3 42.4,37.4 					"/>
				</g>
				<g>
					<polygon class="st4" points="42.4,37.4 42.8,37.5 42.4,37.5 					"/>
				</g>
				<g>
					<polygon class="st4" points="42.4,37.6 42.8,37.6 42.4,37.6 					"/>
				</g>
				<g>
					<polygon class="st4" points="42.4,37.7 42.8,37.7 42.4,37.8 					"/>
				</g>
				<g>
					<polygon class="st4" points="42.4,37.8 42.8,37.9 42.4,37.9 					"/>
				</g>
				<g>
					<polygon class="st4" points="42.4,37.9 42.8,38 42.4,38 					"/>
				</g>
				<g>
					<polygon class="st4" points="42.4,38.1 42.8,38.1 42.4,38.1 					"/>
				</g>
				<g>
					<polygon class="st4" points="42.4,38.2 42.8,38.2 42.4,38.3 					"/>
				</g>
				<g>
					<polygon class="st4" points="42.4,38.3 42.8,38.4 42.4,38.4 					"/>
				</g>
				<g>
					<polygon class="st4" points="42.4,38.5 42.8,38.5 42.4,38.5 					"/>
				</g>
				<g>
					<polygon class="st4" points="42.4,38.6 42.8,38.6 42.4,38.7 					"/>
				</g>
				<g>
					<polygon class="st4" points="42.4,38.7 42.8,38.7 42.4,38.8 					"/>
				</g>
				<g>
					<polygon class="st4" points="42.4,38.8 42.8,38.9 42.4,38.9 					"/>
				</g>
				<g>
					<polygon class="st4" points="42.4,39 42.8,39 42.4,39 					"/>
				</g>
				<g>
					<polygon class="st4" points="42.4,39.1 42.8,39.1 42.4,39.2 					"/>
				</g>
				<g>
					<polygon class="st4" points="42.4,39.2 42.8,39.3 42.4,39.3 					"/>
				</g>
				<g>
					<polygon class="st4" points="42.4,39.4 42.8,39.4 42.4,39.4 					"/>
				</g>
				<g>
					<polygon class="st4" points="42.4,39.5 42.8,39.5 42.4,39.6 					"/>
				</g>
				<g>
					<polygon class="st4" points="42.4,39.6 42.8,39.6 42.4,39.7 					"/>
				</g>
				<g>
					<polygon class="st4" points="42.4,39.7 42.8,39.8 42.4,39.8 					"/>
				</g>
				<g>
					<polygon class="st4" points="42.4,39.9 42.8,39.9 42.4,39.9 					"/>
				</g>
				<g>
					<polygon class="st4" points="42.4,40 42.8,40 42.4,40.1 					"/>
				</g>
				<g>
					<polygon class="st4" points="42.4,40.1 42.8,40.2 42.4,40.2 					"/>
				</g>
				<g>
					<polygon class="st4" points="42.4,40.3 42.8,40.3 42.4,40.3 					"/>
				</g>
				<g>
					<polygon class="st4" points="42.4,40.4 42.8,40.4 42.4,40.4 					"/>
				</g>
				<g>
					<polygon class="st4" points="42.4,40.5 42.8,40.5 42.4,40.6 					"/>
				</g>
				<g>
					<polygon class="st4" points="42.4,40.6 42.8,40.7 42.4,40.7 					"/>
				</g>
				<g>
					<polygon class="st4" points="42.4,40.8 42.8,40.8 42.4,40.8 					"/>
				</g>
				<g>
					<polygon class="st4" points="42.4,40.9 42.8,40.9 42.4,41 					"/>
				</g>
				<g>
					<polygon class="st4" points="42.4,41 42.8,41.1 42.4,41.1 					"/>
				</g>
				<g>
					<polygon class="st4" points="42.4,41.2 42.8,41.2 42.4,41.2 					"/>
				</g>
				<g>
					<polygon class="st4" points="42.4,41.3 42.8,41.3 42.4,41.3 					"/>
				</g>
				<g>
					<polygon class="st4" points="42.4,41.4 42.8,41.4 42.4,41.5 					"/>
				</g>
				<g>
					<polygon class="st4" points="42.4,41.5 42.8,41.6 42.4,41.6 					"/>
				</g>
				<g>
					<polygon class="st4" points="42.4,41.7 42.8,41.7 42.4,41.7 					"/>
				</g>
				<g>
					<polygon class="st4" points="42.4,41.8 42.8,41.8 42.4,41.9 					"/>
				</g>
				<g>
					<polygon class="st4" points="42.4,41.9 42.8,42 42.4,42 					"/>
				</g>
				<g>
					<polygon class="st4" points="42.4,42.1 42.8,42.1 42.4,42.1 					"/>
				</g>
				<g>
					<polygon class="st4" points="42.4,42.2 42.8,42.2 42.4,42.2 					"/>
				</g>
				<g>
					<polygon class="st4" points="42.4,42.3 42.7,42.3 42.4,42.4 					"/>
				</g>
				<g>
					<polygon class="st4" points="42.4,42.4 42.7,42.5 42.4,42.5 					"/>
				</g>
				<g>
					<polygon class="st4" points="42.4,42.6 42.7,42.6 42.4,42.6 					"/>
				</g>
				<g>
					<polygon class="st4" points="42.4,42.7 42.7,42.7 42.4,42.8 					"/>
				</g>
				<g>
					<polygon class="st4" points="42.4,42.8 42.7,42.9 42.4,42.9 					"/>
				</g>
				<g>
					<polygon class="st4" points="42.4,42.9 42.7,43 42.4,43 					"/>
				</g>
				<g>
					<polygon class="st4" points="42.4,43.1 42.7,43.1 42.4,43.1 					"/>
				</g>
				<g>
					<polygon class="st4" points="42.4,43.2 42.7,43.2 42.4,43.3 					"/>
				</g>
				<g>
					<polygon class="st4" points="42.4,43.3 42.7,43.4 42.4,43.4 					"/>
				</g>
				<g>
					<polygon class="st4" points="42.4,43.5 42.7,43.5 42.4,43.5 					"/>
				</g>
				<g>
					<polygon class="st4" points="42.4,43.6 42.7,43.6 42.4,43.7 					"/>
				</g>
				<g>
					<polygon class="st4" points="42.4,43.7 42.7,43.8 42.4,43.8 					"/>
				</g>
				<g>
					<polygon class="st4" points="42.4,43.8 42.7,43.9 42.4,43.9 					"/>
				</g>
				<g>
					<polygon class="st4" points="42.4,44 42.7,44 42.4,44 					"/>
				</g>
				<g>
					<polygon class="st4" points="42.4,44.1 42.7,44.1 42.4,44.2 					"/>
				</g>
				<g>
					<polygon class="st4" points="42.4,44.2 42.7,44.3 42.4,44.3 					"/>
				</g>
				<g>
					<polygon class="st4" points="42.4,44.4 42.7,44.4 42.4,44.4 					"/>
				</g>
				<g>
					<polygon class="st4" points="42.4,44.5 42.7,44.5 42.4,44.6 					"/>
				</g>
				<g>
					<polygon class="st4" points="42.4,44.6 42.7,44.6 42.4,44.7 					"/>
				</g>
				<g>
					<polygon class="st4" points="42.4,44.7 42.7,44.8 42.4,44.8 					"/>
				</g>
				<g>
					<polygon class="st4" points="42.4,44.9 42.7,44.9 42.4,44.9 					"/>
				</g>
				<g>
					<polygon class="st4" points="42.4,45 42.7,45 42.4,45.1 					"/>
				</g>
				<g>
					<polygon class="st4" points="42.4,45.1 42.7,45.2 42.4,45.2 					"/>
				</g>
				<g>
					<polygon class="st4" points="42.4,45.3 42.7,45.3 42.4,45.3 					"/>
				</g>
				<g>
					<polygon class="st4" points="42.4,45.4 42.7,45.4 42.4,45.5 					"/>
				</g>
				<g>
					<polygon class="st4" points="42.4,45.5 42.7,45.5 42.4,45.6 					"/>
				</g>
				<g>
					<polygon class="st4" points="42.4,45.6 42.7,45.7 42.4,45.7 					"/>
				</g>
				<g>
					<polygon class="st4" points="42.4,45.8 42.7,45.8 42.4,45.8 					"/>
				</g>
				<g>
					<polygon class="st4" points="42.4,45.9 42.7,45.9 42.4,46 					"/>
				</g>
				<g>
					<polygon class="st4" points="42.4,46 42.7,46.1 42.4,46.1 					"/>
				</g>
				<g>
					<polygon class="st4" points="42.4,46.2 42.7,46.2 42.4,46.2 					"/>
				</g>
				<g>
					<polygon class="st4" points="42.4,46.3 42.7,46.3 42.4,46.3 					"/>
				</g>
				<g>
					<polygon class="st4" points="42.4,46.4 42.7,46.4 42.4,46.5 					"/>
				</g>
				<g>
					<polygon class="st4" points="42.4,46.5 42.7,46.6 42.4,46.6 					"/>
				</g>
				<g>
					<polygon class="st4" points="42.4,46.7 42.7,46.7 42.4,46.7 					"/>
				</g>
				<g>
					<polygon class="st4" points="42.4,46.8 42.7,46.8 42.4,46.9 					"/>
				</g>
				<g>
					<polygon class="st4" points="42.4,46.9 42.7,47 42.4,47 					"/>
				</g>
				<g>
					<polygon class="st4" points="42.4,47.1 42.7,47.1 42.4,47.1 					"/>
				</g>
				<g>
					<polygon class="st4" points="42.4,47.2 42.7,47.2 42.4,47.2 					"/>
				</g>
				<g>
					<polygon class="st4" points="42.4,47.3 42.7,47.3 42.4,47.4 					"/>
				</g>
				<g>
					<polygon class="st4" points="42.4,47.4 42.7,47.5 42.4,47.5 					"/>
				</g>
				<g>
					<polygon class="st4" points="42.4,47.6 42.7,47.6 42.4,47.6 					"/>
				</g>
				<g>
					<polygon class="st4" points="42.4,47.7 42.7,47.7 42.4,47.8 					"/>
				</g>
				<g>
					<polygon class="st4" points="42.4,47.8 42.7,47.9 42.4,47.9 					"/>
				</g>
				<g>
					<polygon class="st4" points="42.4,48 42.7,48 42.4,48 					"/>
				</g>
				<g>
					<polygon class="st4" points="42.4,48.1 42.7,48.1 42.4,48.1 					"/>
				</g>
				<g>
					<polygon class="st4" points="42.4,48.2 42.7,48.2 42.4,48.3 					"/>
				</g>
				<g>
					<polygon class="st4" points="42.4,48.3 42.7,48.4 42.4,48.4 					"/>
				</g>
				<g>
					<polygon class="st4" points="42.4,48.5 42.7,48.5 42.4,48.5 					"/>
				</g>
				<g>
					<polygon class="st4" points="42.4,48.6 42.7,48.6 42.4,48.7 					"/>
				</g>
				<g>
					<polygon class="st4" points="42.4,48.7 42.7,48.8 42.4,48.8 					"/>
				</g>
				<g>
					<polygon class="st4" points="42.4,48.8 42.7,48.9 42.4,48.9 					"/>
				</g>
				<g>
					<polygon class="st4" points="42.4,49 42.7,49 42.4,49 					"/>
				</g>
				<g>
					<polygon class="st4" points="42.4,49.1 42.7,49.1 42.4,49.2 					"/>
				</g>
				<g>
					<polygon class="st4" points="42.4,49.2 42.7,49.3 42.4,49.3 					"/>
				</g>
				<g>
					<polygon class="st4" points="42.4,49.4 42.6,49.4 42.4,49.4 					"/>
				</g>
				<g>
					<polygon class="st4" points="42.4,49.5 42.6,49.5 42.4,49.6 					"/>
				</g>
				<g>
					<polygon class="st4" points="42.4,49.6 42.6,49.7 42.4,49.7 					"/>
				</g>
				<g>
					<polygon class="st4" points="42.4,49.7 42.6,49.8 42.4,49.8 					"/>
				</g>
				<g>
					<polygon class="st4" points="42.4,49.9 42.6,49.9 42.4,49.9 					"/>
				</g>
				<g>
					<polygon class="st4" points="42.4,50 42.6,50 42.4,50.1 					"/>
				</g>
				<g>
					<polygon class="st4" points="42.4,50.1 42.6,50.2 42.4,50.2 					"/>
				</g>
				<g>
					<polygon class="st4" points="42.4,50.3 42.6,50.3 42.4,50.3 					"/>
				</g>
				<g>
					<polygon class="st4" points="42.4,50.4 42.6,50.4 42.4,50.5 					"/>
				</g>
				<g>
					<polygon class="st4" points="42.4,50.5 42.6,50.5 42.4,50.6 					"/>
				</g>
				<g>
					<polygon class="st4" points="42.4,50.6 42.6,50.7 42.4,50.7 					"/>
				</g>
				<g>
					<polygon class="st4" points="42.4,50.8 42.6,50.8 42.4,50.8 					"/>
				</g>
				<g>
					<polygon class="st4" points="42.4,50.9 42.6,50.9 42.4,51 					"/>
				</g>
				<g>
					<polygon class="st4" points="42.4,51 42.6,51.1 42.4,51.1 					"/>
				</g>
				<g>
					<polygon class="st4" points="42.4,51.2 42.6,51.2 42.4,51.2 					"/>
				</g>
				<g>
					<polygon class="st4" points="42.4,51.3 42.6,51.3 42.4,51.4 					"/>
				</g>
				<g>
					<polygon class="st4" points="42.4,51.4 42.6,51.4 42.4,51.5 					"/>
				</g>
				<g>
					<polygon class="st4" points="42.4,51.5 42.6,51.6 42.4,51.6 					"/>
				</g>
				<g>
					<polygon class="st4" points="42.4,51.7 42.6,51.7 42.4,51.7 					"/>
				</g>
				<g>
					<polygon class="st4" points="42.4,51.8 42.6,51.8 42.4,51.9 					"/>
				</g>
				<g>
					<polygon class="st4" points="42.4,51.9 42.6,52 42.4,52 					"/>
				</g>
				<g>
					<polygon class="st4" points="42.4,52.1 42.6,52.1 42.4,52.1 					"/>
				</g>
				<g>
					<polygon class="st4" points="42.4,52.2 42.6,52.2 42.4,52.2 					"/>
				</g>
				<g>
					<polygon class="st4" points="42.4,52.3 42.6,52.3 42.4,52.4 					"/>
				</g>
				<g>
					<polygon class="st4" points="42.4,52.4 42.6,52.5 42.4,52.5 					"/>
				</g>
				<g>
					<polygon class="st4" points="42.4,52.6 42.6,52.6 42.4,52.6 					"/>
				</g>
				<g>
					<polygon class="st4" points="42.4,52.7 42.6,52.7 42.4,52.8 					"/>
				</g>
				<g>
					<polygon class="st4" points="42.4,52.8 42.6,52.9 42.4,52.9 					"/>
				</g>
				<g>
					<polygon class="st4" points="42.4,53 42.6,53 42.4,53 					"/>
				</g>
				<g>
					<polygon class="st4" points="42.4,53.1 42.6,53.1 42.4,53.1 					"/>
				</g>
				<g>
					<polygon class="st4" points="42.4,53.2 42.6,53.2 42.4,53.3 					"/>
				</g>
				<g>
					<polygon class="st4" points="42.4,53.3 42.6,53.4 42.4,53.4 					"/>
				</g>
				<g>
					<polygon class="st4" points="42.4,53.5 42.6,53.5 42.4,53.5 					"/>
				</g>
				<g>
					<polygon class="st4" points="42.4,53.6 42.6,53.6 42.4,53.7 					"/>
				</g>
				<g>
					<polygon class="st4" points="42.4,53.7 42.6,53.8 42.4,53.8 					"/>
				</g>
			</g>
		</g>
	</g>
</g>
</svg>
