<?xml version="1.0" encoding="utf-8"?>
<!-- Generator: Adobe Illustrator 26.5.0, SVG Export Plug-In . SVG Version: 6.00 Build 0)  -->
<svg version="1.1" id="Capa_1" xmlns="http://www.w3.org/2000/svg" xmlns:xlink="http://www.w3.org/1999/xlink" x="0px" y="0px"
	 viewBox="0 0 85 63" style="enable-background:new 0 0 85 63;" xml:space="preserve">
<style type="text/css">
	.st0{display:none;fill:none;stroke:#304269;stroke-width:5;stroke-miterlimit:10;}
	.st1{fill:#FFFFFF;}
	.st2{fill:#304269;}
	.st3{fill:#4F6DB0;}
	.st4{fill:#668DE3;}
	.st5{fill:#D52B1E;}
	.st6{fill:#F9E300;}
	.st7{fill:#007934;}
</style>
<circle class="st0" cx="42.5" cy="32.2" r="28.2"/>
<g>
	<path class="st1" d="M42.5,19.6H28.3c-3.6,0-6.4,0.3-6.3,0.6l17,42.4c0.2,0.4,6.8,0.4,7,0l17-42.4c0.1-0.3-2.7-0.6-6.3-0.6H42.5z"
		/>
</g>
<g>
	<g>
		<g>
			<path class="st2" d="M-58.6-59.7c0,0-6.4-0.1-6-3.4c0.5-3.3-1.8-5.1-5.4-3.2c-3.6,1.9-6.3,1.7-6.3,1.7s0.1,2.8,5.6,4
				c5.6,1.2,6.6,3.9,12.1,4V-59.7z"/>
		</g>
		<g>
			<path class="st3" d="M-59.2-59.3v2.4c0,0-1.8-0.2-3.3-0.8c0,0,1.3,0.3,1.9,0.4c0,0-2-0.5-2.6-0.8c0,0,1.8,0.3,2.1,0.3
				c0,0-2-0.6-2.6-0.8c0,0,1.9,0.3,2.3,0.3c0,0-2.3-0.7-3-1c0,0,2.1,0.5,2.5,0.5c0,0-2.1-0.5-3.3-1.4c0,0,1.2,0.4,2.9,0.9
				c0,0-2.3-0.8-3.1-1.6c0,0,1.7,0.8,3.5,1.2C-60-59.3-59.2-59.3-59.2-59.3z"/>
		</g>
		<g>
			<path class="st3" d="M-75.6-64.1C-75.6-64.1-75.6-64.1-75.6-64.1c0.1,0,0.2,0,0.3,0c0.2,0,0.4,0,0.7-0.1c0.3-0.1,0.7-0.1,1.1-0.2
				c0.4-0.1,0.9-0.2,1.4-0.4c0.5-0.2,1-0.4,1.6-0.7c0.1-0.1,0.3-0.1,0.4-0.2c0.1-0.1,0.3-0.1,0.4-0.2c0.1,0,0.1-0.1,0.2-0.1
				c0.1,0,0.1-0.1,0.2-0.1c0.1-0.1,0.3-0.1,0.5-0.2c0.2-0.1,0.3-0.1,0.5-0.2c0.2-0.1,0.3-0.1,0.5-0.1c0.4-0.1,0.7-0.1,1.1,0
				c0.2,0,0.4,0.1,0.5,0.2c0,0,0.1,0,0.1,0.1c0,0,0.1,0,0.1,0.1c0,0,0.1,0.1,0.1,0.1c0,0,0,0,0.1,0l0,0c0,0,0,0,0,0l0,0l0,0l0.1,0.1
				c0,0,0,0,0,0l0,0c0.1,0.1,0.1,0.1,0.2,0.2c0,0,0,0.1,0.1,0.1c0,0,0,0.1,0.1,0.1c0,0.1,0.1,0.1,0.1,0.2c0.1,0.3,0.2,0.6,0.2,0.9
				c0,0.3,0,0.6,0,0.9c0,0,0,0.1,0,0.1l0,0.1c0,0.1,0,0.1,0,0.2c0,0.1,0,0.1,0,0.2c0,0,0,0.1,0,0.1c0,0,0,0.1,0,0.1
				c0,0.1,0,0.3,0,0.4c0,0,0,0.1,0,0.1l0,0l0,0c0,0,0,0.1,0,0.1c0,0,0,0.1,0,0.1c0.1,0.3,0.2,0.5,0.3,0.7c0.2,0.2,0.3,0.4,0.5,0.6
				c0.2,0.2,0.4,0.3,0.7,0.5c0.2,0.1,0.5,0.2,0.7,0.3c0.2,0.1,0.5,0.2,0.7,0.2c0.2,0.1,0.5,0.1,0.7,0.2c0.4,0.1,0.8,0.2,1.1,0.2
				c0.3,0,0.6,0.1,0.7,0.1c0.2,0,0.3,0,0.3,0s-0.1,0-0.3,0c-0.2,0-0.4,0-0.7-0.1c-0.3,0-0.7-0.1-1.1-0.2c-0.4-0.1-0.9-0.2-1.4-0.4
				c-0.5-0.2-1-0.4-1.5-0.8c-0.2-0.2-0.4-0.4-0.6-0.6c0-0.1-0.1-0.1-0.1-0.2c0,0,0-0.1-0.1-0.1c0,0,0-0.1,0-0.1c0,0,0-0.1,0-0.1
				c0,0,0-0.1,0-0.1c0,0,0-0.1,0-0.1c0,0,0,0,0,0l0-0.1c0,0,0-0.1,0-0.1c0,0,0-0.1,0-0.1l0-0.1l0-0.1c0,0,0-0.1,0-0.1
				c0-0.1,0-0.3,0-0.4c0,0,0-0.1,0-0.1c0,0,0-0.1,0-0.1c0-0.1,0-0.1,0-0.2c0-0.1,0-0.1,0-0.2l0-0.1c0,0,0-0.1,0-0.1
				c0-0.3,0-0.6,0-0.8c0-0.3-0.1-0.5-0.2-0.8c0-0.1-0.1-0.1-0.1-0.2c0,0,0-0.1-0.1-0.1c0,0,0-0.1-0.1-0.1c0-0.1-0.1-0.1-0.1-0.2l0,0
				c0,0,0,0,0,0l-0.1-0.1l0,0l0,0c0,0,0,0,0,0l0,0c0,0,0,0,0,0c0,0-0.1,0-0.1-0.1c0,0-0.1,0-0.1-0.1c0,0-0.1,0-0.1-0.1
				c-0.1,0-0.1-0.1-0.2-0.1c-0.1,0-0.2,0-0.2-0.1c-0.1,0-0.2,0-0.2,0c0,0-0.1,0-0.1,0l0,0l0,0l0,0l-0.1,0c-0.2,0-0.3,0-0.5,0.1
				c-0.2,0-0.3,0.1-0.5,0.1c-0.2,0-0.3,0.1-0.5,0.2c-0.1,0.1-0.3,0.1-0.4,0.2c-0.1,0-0.1,0.1-0.2,0.1c-0.1,0-0.1,0.1-0.2,0.1
				c-0.1,0.1-0.3,0.1-0.4,0.2c-0.1,0.1-0.3,0.1-0.4,0.2c-0.5,0.2-1.1,0.5-1.6,0.6c-0.1,0-0.1,0-0.2,0.1c-0.1,0-0.1,0-0.2,0.1
				c-0.1,0-0.2,0.1-0.4,0.1c-0.1,0-0.2,0.1-0.3,0.1c-0.1,0-0.2,0.1-0.3,0.1c-0.4,0.1-0.8,0.2-1.1,0.2c-0.1,0-0.2,0-0.2,0
				c-0.1,0-0.1,0-0.2,0c-0.1,0-0.2,0-0.3,0C-75.4-64.2-75.5-64.2-75.6-64.1C-75.6-64.1-75.6-64.1-75.6-64.1z"/>
		</g>
		<g>
			<path class="st2" d="M-76.7-63.8c0,0-10.6,2.8-19.3,2.2c0,0,1.3,3.5,7.6,3c6.3-0.4,12.9-3.5,12.9-3.5S-76.3-62.9-76.7-63.8z"/>
		</g>
		<g>
			<path class="st3" d="M-89.4-59c-0.1,0-0.3,0-0.4,0l-0.2,0c-0.1,0-0.1,0-0.2,0l-0.2,0c0,0-0.1,0-0.1,0l-0.1,0l-0.2,0
				c-0.1,0-0.1,0-0.2,0c-0.1,0-0.1,0-0.2,0l-0.2,0l-0.1,0l-0.1,0l-0.2,0c-0.1,0-0.1,0-0.2,0l-0.1,0l0,0l0,0c-0.1,0-0.3-0.1-0.4-0.1
				c-0.1,0-0.1,0-0.2-0.1l-0.2-0.1c-0.1,0-0.1-0.1-0.2-0.1c-0.1,0-0.1-0.1-0.2-0.1l-0.2-0.1c0,0-0.1,0-0.1,0l-0.1,0
				c-0.1,0-0.1-0.1-0.2-0.1l-0.2-0.1c0,0-0.1,0-0.1-0.1l-0.1-0.1l-0.2-0.1c0,0-0.1-0.1-0.1-0.1c0,0-0.1-0.1-0.1-0.1
				c-0.2-0.2-0.3-0.3-0.5-0.5l-0.1-0.1l0.2,0c0.4,0,0.8,0,1.1,0c0.2,0,0.4,0,0.6,0l0.6,0c0.1,0,0.2,0,0.3,0l0.3,0l0.3,0
				c0.1,0,0.2,0,0.3,0l0.6,0l0.6,0c0.2,0,0.4,0,0.6,0c0.2,0,0.4,0,0.6,0l0.6,0c0.2,0,0.4,0,0.6-0.1l0.3,0l0.3,0c0.2,0,0.4,0,0.6-0.1
				l0.6-0.1l0.6-0.1c0.2,0,0.4,0,0.6-0.1c0.2,0,0.4,0,0.6-0.1c0.2,0,0.4-0.1,0.6-0.1l0.6-0.1l0.6-0.1l0.6-0.1
				c0.4-0.1,0.7-0.1,1.1-0.2c0.4-0.1,0.7-0.1,1.1-0.2c0.4-0.1,0.7-0.1,1.1-0.2c0.4-0.1,0.7-0.1,1.1-0.2c0.4-0.1,0.7-0.2,1.1-0.2
				c-0.4,0.1-0.7,0.2-1.1,0.3c-0.4,0.1-0.7,0.2-1.1,0.3c-0.4,0.1-0.7,0.2-1.1,0.2c-0.4,0.1-0.7,0.2-1.1,0.2
				c-0.4,0.1-0.7,0.1-1.1,0.2l-0.6,0.1l-0.6,0.1c-0.4,0.1-0.7,0.1-1.1,0.2c-0.2,0-0.4,0.1-0.6,0.1c-0.2,0-0.4,0.1-0.6,0.1
				c-0.2,0-0.4,0.1-0.6,0.1l-0.6,0.1c-0.2,0-0.4,0-0.6,0.1l-0.3,0l-0.3,0c-0.2,0-0.4,0-0.6,0.1l-0.6,0c-0.2,0-0.4,0-0.6,0
				c-0.2,0-0.4,0-0.6,0l-0.6,0l-0.6,0c-0.1,0-0.2,0-0.3,0l-0.3,0l-0.3,0c-0.1,0-0.2,0-0.3,0l-0.6,0c-0.2,0-0.4,0-0.6,0
				c-0.4,0-0.8,0-1.1,0l0.1-0.1c0.1,0.2,0.3,0.3,0.5,0.5c0,0,0.1,0.1,0.1,0.1c0,0,0.1,0.1,0.1,0.1l0.1,0.1l0.1,0.1
				c0,0,0.1,0,0.1,0.1l0.2,0.1c0.1,0,0.1,0.1,0.2,0.1l0.1,0c0,0,0.1,0,0.1,0l0.2,0.1c0.1,0,0.1,0.1,0.2,0.1c0.1,0,0.1,0.1,0.2,0.1
				l0.2,0.1c0.1,0,0.1,0,0.2,0.1c0.1,0,0.2,0.1,0.4,0.1l0,0l0,0l0.1,0c0.1,0,0.1,0,0.2,0.1l0.2,0l0.1,0l0.1,0l0.2,0
				c0.1,0,0.1,0,0.2,0c0.1,0,0.1,0,0.2,0l0.2,0l0.1,0c0,0,0.1,0,0.1,0l0.2,0c0.1,0,0.1,0,0.2,0l0.2,0C-89.7-59-89.5-59-89.4-59z"/>
		</g>
		<g>
			<path class="st2" d="M-75.3-62c0,0-9.7,4.4-18.3,5.2c0,0,2.2,3.2,8.3,1.8c6.1-1.4,12.1-5.7,12.1-5.7S-74.4-61.3-75.3-62z"/>
		</g>
		<g>
			<path class="st3" d="M-88.3-55.2c-0.1,0-0.2,0-0.3,0l-0.1,0c0,0-0.1,0-0.1,0c-0.1,0-0.2,0-0.3,0l-0.1,0c0,0-0.1,0-0.1,0
				c-0.1,0-0.2,0-0.3,0l-0.1,0l-0.1,0l-0.1,0c-0.1,0-0.2,0-0.3-0.1c-0.1,0-0.2,0-0.3-0.1l-0.1,0c0,0-0.1,0-0.1,0
				c-0.1,0-0.2-0.1-0.3-0.1c0,0-0.1,0-0.1-0.1c0,0-0.1,0-0.1-0.1l-0.1-0.1l-0.1,0c0,0,0,0-0.1,0l-0.1-0.1c0,0-0.1,0-0.1-0.1
				c-0.1,0-0.2-0.1-0.2-0.1c-0.2-0.1-0.3-0.2-0.4-0.3l-0.1-0.1l0.2,0l0.6-0.1c0.1,0,0.2,0,0.3,0l0.3,0l0.3,0c0.1,0,0.2,0,0.3,0
				l0.6-0.1l0.1,0l0.1,0l0.3-0.1c0.2,0,0.4-0.1,0.6-0.1l0.6-0.1l0.6-0.1l0.3-0.1l0.3-0.1c0.2,0,0.4-0.1,0.5-0.1l0.5-0.1
				c0.2,0,0.4-0.1,0.5-0.1c0.4-0.1,0.7-0.2,1.1-0.3c0.4-0.1,0.7-0.2,1.1-0.3c0.2-0.1,0.4-0.1,0.5-0.2c0.2-0.1,0.4-0.1,0.5-0.2
				l0.5-0.2l0.5-0.2l0.5-0.2c0.2-0.1,0.4-0.1,0.5-0.2l0.5-0.2l0.5-0.2c0.3-0.1,0.7-0.2,1-0.4c0.3-0.1,0.7-0.3,1-0.4
				c0.2-0.1,0.3-0.1,0.5-0.2l0.5-0.2c0.3-0.1,0.7-0.3,1-0.4c-0.3,0.2-0.7,0.3-1,0.4c-0.3,0.1-0.7,0.3-1,0.4c-0.3,0.1-0.7,0.3-1,0.4
				c-0.3,0.1-0.7,0.3-1,0.4l-0.5,0.2l-0.5,0.2c-0.3,0.1-0.7,0.2-1,0.4l-0.5,0.2l-0.5,0.2c-0.2,0.1-0.4,0.1-0.5,0.2l-0.3,0.1
				l-0.3,0.1c-0.4,0.1-0.7,0.2-1.1,0.3c-0.4,0.1-0.7,0.2-1.1,0.3c-0.4,0.1-0.7,0.2-1.1,0.3c-0.2,0-0.4,0.1-0.6,0.1l-0.3,0.1
				l-0.3,0.1c-0.2,0-0.4,0.1-0.6,0.1l-0.6,0.1c-0.2,0-0.4,0.1-0.6,0.1l-0.3,0.1l-0.1,0l-0.1,0l-0.6,0.1c-0.1,0-0.2,0-0.3,0l-0.3,0
				l-0.3,0c-0.1,0-0.2,0-0.3,0l-0.6,0.1l0.1-0.1c0.1,0.1,0.3,0.2,0.4,0.3c0.1,0.1,0.1,0.1,0.2,0.1c0,0,0.1,0,0.1,0.1l0.1,0.1
				c0,0,0,0,0.1,0l0.1,0l0.1,0.1c0,0,0.1,0,0.1,0.1c0,0,0.1,0,0.1,0.1c0.1,0,0.2,0.1,0.3,0.1c0,0,0.1,0,0.1,0l0.1,0
				c0.1,0,0.2,0.1,0.3,0.1c0.1,0,0.2,0,0.3,0.1l0.1,0l0.1,0l0.1,0c0.1,0,0.2,0,0.3,0.1c0,0,0.1,0,0.1,0l0.1,0c0.1,0,0.2,0,0.3,0
				c0,0,0.1,0,0.1,0l0.1,0C-88.5-55.2-88.4-55.2-88.3-55.2z"/>
		</g>
		<g>
			<path class="st2" d="M-73-60.7c0,0-7.7,6-15.8,8.4c0,0,3.1,2.7,8.6,0.2c5.5-2.5,10.1-7.7,10.1-7.7S-71.8-60.2-73-60.7z"/>
		</g>
		<g>
			<path class="st3" d="M-84.7-51.6l-0.2,0c-0.1,0-0.1,0-0.2,0l-0.1,0l-0.1,0c-0.1,0-0.1,0-0.2,0c-0.1,0-0.1,0-0.2,0l-0.2,0l-0.2,0
				c-0.1,0-0.1,0-0.2,0c-0.1,0-0.1,0-0.2,0c-0.1,0-0.1,0-0.2,0c-0.1,0-0.1,0-0.2-0.1c-0.1,0-0.1,0-0.2-0.1c-0.1,0-0.1,0-0.2-0.1
				c-0.1,0-0.1,0-0.2-0.1l-0.1,0l-0.1,0c-0.1,0-0.1-0.1-0.2-0.1l-0.1-0.1l0.1,0l0.5-0.2c0.1,0,0.2-0.1,0.3-0.1l0.3-0.1
				c0.2-0.1,0.3-0.1,0.5-0.2l0.5-0.2c0.2-0.1,0.3-0.1,0.5-0.2c0.2-0.1,0.3-0.1,0.5-0.2l0.5-0.2c0.2-0.1,0.3-0.1,0.5-0.2l0.2-0.1
				l0.2-0.1l0.5-0.2c0.3-0.2,0.6-0.3,1-0.5c0.3-0.2,0.6-0.3,0.9-0.5c0.3-0.2,0.6-0.3,0.9-0.5c0.3-0.2,0.6-0.3,0.9-0.5l0.5-0.3
				l0.5-0.3c0.3-0.2,0.6-0.4,0.9-0.5c0.3-0.2,0.6-0.4,0.9-0.5c0.3-0.2,0.6-0.4,0.9-0.6c0.3-0.2,0.6-0.4,0.9-0.6
				c0.3-0.2,0.6-0.4,0.9-0.6c0.3-0.2,0.6-0.4,0.8-0.6c-0.3,0.2-0.5,0.4-0.8,0.6c-0.3,0.2-0.5,0.4-0.8,0.6c-0.3,0.2-0.6,0.4-0.8,0.6
				c-0.3,0.2-0.6,0.4-0.9,0.6c-0.3,0.2-0.6,0.4-0.9,0.6c-0.3,0.2-0.6,0.4-0.9,0.5l-0.4,0.3l-0.5,0.3c-0.2,0.1-0.3,0.2-0.5,0.3
				c-0.2,0.1-0.3,0.2-0.5,0.3c-0.3,0.2-0.6,0.3-0.9,0.5c-0.3,0.2-0.6,0.3-0.9,0.5c-0.3,0.2-0.6,0.3-1,0.5c-0.3,0.2-0.6,0.3-1,0.4
				c-0.2,0.1-0.3,0.1-0.5,0.2l-0.5,0.2c-0.2,0.1-0.3,0.1-0.5,0.2c-0.2,0.1-0.3,0.1-0.5,0.2l-0.5,0.2c-0.2,0.1-0.3,0.1-0.5,0.2
				l-0.3,0.1c-0.1,0-0.2,0.1-0.3,0.1l-0.5,0.2l0-0.1c0.1,0,0.1,0.1,0.2,0.1l0.1,0l0.1,0c0.1,0,0.1,0,0.2,0.1c0.1,0,0.1,0,0.2,0.1
				c0.1,0,0.1,0,0.2,0.1c0.1,0,0.1,0,0.2,0.1c0.1,0,0.1,0,0.2,0.1c0.1,0,0.1,0,0.2,0c0.1,0,0.1,0,0.2,0l0.2,0l0.2,0
				c0.1,0,0.1,0,0.2,0c0.1,0,0.1,0,0.2,0l0.1,0l0.1,0c0.1,0,0.1,0,0.2,0L-84.7-51.6z"/>
		</g>
		<g>
			<path class="st2" d="M-69.9-59.9c0,0-3.7,5.7-9.2,8.1c0,0,3.4,2.3,6.7-0.1c3.3-2.4,4.9-7.1,4.9-7.1S-68.1-59.5-69.9-59.9z"/>
		</g>
		<g>
			<path class="st3" d="M-75.6-51.2l-0.2,0c-0.1,0-0.1,0-0.2,0c-0.1,0-0.1,0-0.2,0c-0.1,0-0.1,0-0.2,0l-0.1,0l-0.1,0
				c-0.1,0-0.1,0-0.2,0c-0.1,0-0.1,0-0.2,0c-0.1,0-0.1,0-0.2,0c-0.1,0-0.1,0-0.2,0c-0.1,0-0.1,0-0.2,0c0,0-0.1,0-0.1,0
				c0,0-0.1,0-0.1,0c0,0-0.1,0-0.1,0c0,0-0.1,0-0.1-0.1c0,0-0.1,0-0.1-0.1c0,0-0.1,0-0.1-0.1l-0.1,0l0.1-0.1l0.3-0.2
				c0.1,0,0.1-0.1,0.2-0.1l0.2-0.1c0.1-0.1,0.2-0.1,0.3-0.2l0.2-0.1l0.2-0.1c0.2-0.1,0.4-0.3,0.6-0.4l0.3-0.2
				c0.1-0.1,0.2-0.1,0.3-0.2l0.1-0.1l0.1-0.1c0.1-0.1,0.2-0.1,0.3-0.2l0.3-0.2c0.1-0.1,0.2-0.2,0.3-0.2l0.1-0.1l0.1-0.1
				c0.1-0.1,0.2-0.2,0.3-0.2c0.2-0.2,0.4-0.3,0.5-0.5c0.2-0.2,0.3-0.3,0.5-0.5c0.1-0.1,0.2-0.2,0.3-0.2c0.1-0.1,0.2-0.2,0.2-0.2
				c0.2-0.2,0.3-0.3,0.5-0.5l0.2-0.3l0.2-0.3c0.2-0.2,0.3-0.3,0.5-0.5c0.2-0.2,0.3-0.3,0.5-0.5c0.3-0.3,0.6-0.7,0.9-1.1
				c-0.1,0.2-0.2,0.4-0.4,0.6c-0.1,0.2-0.3,0.4-0.4,0.5c-0.1,0.1-0.1,0.2-0.2,0.3c-0.1,0.1-0.1,0.2-0.2,0.3
				c-0.1,0.1-0.1,0.2-0.2,0.3c-0.1,0.1-0.1,0.2-0.2,0.3l-0.2,0.3l-0.2,0.3c-0.1,0.1-0.2,0.2-0.2,0.3l-0.2,0.3
				c-0.1,0.1-0.2,0.2-0.2,0.3c-0.1,0.1-0.2,0.2-0.2,0.3c-0.2,0.2-0.3,0.3-0.5,0.5c-0.2,0.2-0.3,0.3-0.5,0.5
				c-0.1,0.1-0.2,0.2-0.3,0.2l-0.1,0.1l-0.1,0.1c-0.1,0.1-0.2,0.2-0.3,0.2l-0.3,0.2c-0.1,0.1-0.2,0.1-0.3,0.2l-0.1,0.1l-0.2,0.1
				c-0.1,0.1-0.2,0.1-0.3,0.2l-0.3,0.2c-0.2,0.1-0.4,0.3-0.6,0.4l-0.2,0.1l-0.2,0.1c-0.1,0.1-0.2,0.1-0.3,0.2
				c-0.1,0.1-0.2,0.1-0.3,0.2l-0.3,0.2l0-0.1c0,0,0.1,0,0.1,0.1c0,0,0.1,0,0.1,0.1c0,0,0.1,0,0.1,0.1c0,0,0.1,0,0.1,0.1
				c0,0,0.1,0,0.1,0.1c0,0,0.1,0,0.1,0c0,0,0.1,0,0.1,0c0,0,0.1,0,0.1,0c0,0,0.1,0,0.1,0c0,0,0.1,0,0.1,0c0,0,0.1,0,0.2,0l0.1,0
				l0.1,0c0.1,0,0.1,0,0.2,0c0.1,0,0.1,0,0.2,0c0.1,0,0.1,0,0.2,0L-75.6-51.2z"/>
		</g>
		<g>
			<path class="st2" d="M-67.3-59c0,0-1.3,5.4-5.2,7.7c0,0,3.5,2,5.5-0.3c2-2.3,2.1-6.1,2.1-6.1S-65.7-58.4-67.3-59z"/>
		</g>
		<g>
			<path class="st3" d="M-69.5-50.9l-0.1,0c0,0-0.1,0-0.1,0c0,0-0.1,0-0.1,0c0,0-0.1,0-0.1,0c0,0-0.1,0-0.1,0c0,0-0.1,0-0.1,0
				c0,0-0.1,0-0.1,0c0,0-0.1,0-0.1,0c0,0-0.1,0-0.1,0c0,0-0.1,0-0.1,0c0,0-0.1,0-0.1,0c0,0-0.1,0-0.1,0c0,0-0.1,0-0.1,0
				c0,0-0.1,0-0.1,0c-0.1,0-0.2-0.1-0.2-0.1l-0.1,0l0.1-0.1l0.2-0.2c0.1-0.1,0.1-0.1,0.2-0.2c0.1-0.1,0.1-0.1,0.2-0.2l0.1-0.1
				l0.1-0.1l0.1-0.1l0,0l0,0l0.2-0.2l0.2-0.2l0-0.1l0-0.1l0.1-0.1l0.1-0.1c0,0,0.1-0.1,0.1-0.1c0.1-0.1,0.1-0.1,0.2-0.2l0.2-0.2
				c0.1-0.1,0.1-0.1,0.2-0.2c0.1-0.1,0.2-0.3,0.3-0.4l0.1-0.2l0.1-0.1l0.1-0.1l0.1-0.2l0.1-0.2l0.1-0.1l0.1-0.1l0.1-0.2l0.1-0.2
				c0-0.1,0.1-0.2,0.1-0.2c0.1-0.2,0.2-0.3,0.2-0.5c0.1-0.2,0.2-0.3,0.2-0.5c0.1-0.2,0.1-0.3,0.2-0.5c0.1-0.2,0.1-0.3,0.2-0.5
				l0.2-0.5c-0.1,0.3-0.2,0.6-0.3,1c-0.1,0.2-0.1,0.3-0.2,0.5c-0.1,0.2-0.1,0.3-0.2,0.5c-0.1,0.2-0.1,0.3-0.2,0.5
				c-0.1,0.2-0.1,0.3-0.2,0.5l-0.1,0.2l-0.1,0.1l-0.1,0.1l-0.1,0.2l-0.1,0.2l-0.1,0.1l-0.1,0.1l-0.1,0.2c-0.1,0.1-0.2,0.3-0.3,0.4
				c-0.1,0.1-0.2,0.3-0.3,0.4c-0.1,0.1-0.1,0.1-0.2,0.2c0,0-0.1,0.1-0.1,0.1l-0.1,0.1l-0.1,0.1l0,0.1l0,0.1l-0.2,0.2
				c-0.1,0.1-0.3,0.3-0.4,0.4l-0.1,0.1l-0.1,0.1c-0.1,0.1-0.1,0.1-0.2,0.2c-0.1,0.1-0.2,0.1-0.2,0.2l-0.2,0.2l0-0.1
				c0.1,0,0.1,0.1,0.2,0.1c0.1,0,0.2,0.1,0.2,0.1c0,0,0.1,0,0.1,0c0,0,0.1,0,0.1,0c0,0,0.1,0,0.1,0c0,0,0.1,0,0.1,0c0,0,0.1,0,0.1,0
				c0,0,0.1,0,0.1,0c0,0,0.1,0,0.1,0c0,0,0.1,0,0.1,0c0,0,0.1,0,0.1,0c0,0,0.1,0,0.1,0c0,0,0.1,0,0.1,0L-69.5-50.9z"/>
		</g>
		<g>
			<path class="st2" d="M-64.6-57.5c0,0,0.2,4.1-2.2,6.3c0,0,3.8,0.9,4.6-1c0.9-2.1,0.2-4.4,0.2-4.4S-63.2-56.9-64.6-57.5z"/>
		</g>
		<g>
			<path class="st3" d="M-63.6-51.6L-63.6-51.6l-0.1,0.1c0,0-0.1,0-0.1,0c0,0-0.1,0-0.1,0c0,0-0.1,0-0.1,0c0,0-0.1,0-0.1,0
				c0,0-0.1,0-0.1,0c-0.1,0-0.2,0-0.3,0c-0.1,0-0.2,0-0.3,0c0,0-0.1,0-0.1,0c0,0-0.1,0-0.1,0c-0.1,0-0.2,0-0.3,0c-0.1,0-0.2,0-0.3,0
				l-0.2,0l0.1-0.1l0.2-0.3l0,0l0,0l0-0.1l0.1-0.2l0-0.1l0-0.1l0.1-0.2c0-0.1,0.1-0.1,0.1-0.2l0.1-0.2l0.1-0.2L-65-53
				c0-0.1,0.1-0.2,0.1-0.3c0-0.1,0.1-0.2,0.1-0.3l0.1-0.2c0-0.1,0-0.1,0.1-0.2c0-0.1,0.1-0.2,0.1-0.3c0-0.1,0.1-0.2,0.1-0.3l0.1-0.3
				l0.1-0.3c0-0.1,0-0.2,0.1-0.3c0-0.1,0-0.2,0.1-0.3c0-0.1,0-0.2,0.1-0.3l0.1-0.3c0,0.1,0,0.2,0,0.3l0,0.2l0,0.2c0,0.1,0,0.2,0,0.3
				c0,0.1,0,0.2,0,0.3c0,0.1,0,0.2,0,0.3l-0.1,0.3c0,0.1-0.1,0.2-0.1,0.3c0,0.1-0.1,0.2-0.1,0.3c0,0.1,0,0.1-0.1,0.2l-0.1,0.2l0,0.1
				c0,0,0,0.1,0,0.1l-0.1,0.2c0,0.1,0,0.1-0.1,0.2l-0.1,0.2l-0.1,0.2l-0.1,0.2c-0.1,0.1-0.1,0.2-0.2,0.3l-0.1,0.2l0,0.1l-0.1,0.1
				l-0.1,0.2l-0.1,0.1l0,0l0,0l-0.2,0.3l-0.1-0.1c0.1,0,0.2,0,0.3,0c0.1,0,0.2,0,0.3,0c0,0,0.1,0,0.1,0c0,0,0.1,0,0.1,0
				c0.1,0,0.2,0,0.3,0c0.1,0,0.2,0,0.3,0c0,0,0.1,0,0.1,0c0,0,0.1,0,0.1,0c0,0,0.1,0,0.1,0c0,0,0.1,0,0.1,0c0,0,0.1,0,0.1,0
				C-63.7-51.6-63.7-51.6-63.6-51.6z"/>
		</g>
		<g>
			<path class="st2" d="M-61.9-56.5c0,0,1,2.3,0,4.3c0,0.1,3.2,0.3,3.1-2.2c0-1.2,0.1-1.5,0.1-1.7C-58.6-56.1-60.8-56.1-61.9-56.5z"
				/>
		</g>
		<g>
			<path class="st3" d="M-59.9-53C-59.9-53-59.9-53-59.9-53C-59.9-53-60-53-60-52.9c0,0,0,0-0.1,0c0,0,0,0-0.1,0c0,0,0,0-0.1,0
				c0,0,0,0-0.1,0c0,0,0,0-0.1,0c0,0-0.1,0-0.1,0c0,0-0.1,0-0.1,0c0,0-0.1,0-0.1,0c-0.1,0-0.1,0-0.2,0.1c-0.1,0-0.2,0.1-0.3,0.1
				l-0.2,0l0-0.1l0-0.2c0-0.1,0-0.1,0-0.2c0-0.1,0-0.1,0-0.2c0,0,0-0.1,0-0.1l0-0.1l0-0.1c0,0,0-0.1,0-0.1c0-0.1,0-0.1,0-0.2
				c0-0.1,0-0.1,0-0.2c0-0.1,0-0.1,0-0.2c0-0.1,0-0.1,0-0.2c0-0.1,0-0.1,0-0.2c0-0.1,0-0.1,0-0.2l0-0.2c0-0.1,0-0.1,0-0.2l0-0.2
				l0-0.2c0-0.1,0-0.1,0-0.2c0,0.1,0.1,0.1,0.1,0.2l0,0.1l0,0.1c0,0.1,0,0.1,0.1,0.2c0,0.1,0,0.1,0,0.2c0,0.1,0,0.1,0,0.2
				c0,0.1,0,0.1,0,0.2c0,0.1,0,0.1,0,0.2c0,0.1,0,0.1,0,0.2c0,0.1,0,0.1,0,0.2c0,0.1,0,0.1,0,0.2c0,0.1,0,0.1,0,0.2c0,0,0,0.1,0,0.1
				l0,0.1l0,0.1c0,0,0,0.1,0,0.1c0,0.1,0,0.1,0,0.2c0,0.1,0,0.1-0.1,0.2l-0.1,0.2l-0.1-0.1c0.1,0,0.1,0,0.2,0c0,0,0.1,0,0.1,0
				c0,0,0.1,0,0.1,0c0.1,0,0.1,0,0.2,0c0,0,0.1,0,0.1,0c0,0,0.1,0,0.1,0c0,0,0.1,0,0.1,0c0,0,0.1,0,0.1,0c0,0,0.1,0,0.1,0
				c0,0,0.1,0,0.1,0c0,0,0,0,0.1,0c0,0,0,0,0.1,0C-60-53-60-53-59.9-53C-59.9-53-59.9-53-59.9-53z"/>
		</g>
		<g>
			<path class="st3" d="M-78.7-62.9c0,0-1.1,0.2-2.1,0.4c0,0,1.9-0.2,2.4-0.3l-1.5,0.5c0,0,1.6-0.2,2.1-0.3l-1.3,0.4
				c0,0,1.3-0.1,1.6-0.2l-1,0.3l1.6-0.2l-0.9,0.3l1.3-0.2l-0.6,0.2l1-0.1l-1.1,0.6c0,0,1.5-0.6,1.6-0.6c0,0-0.7-0.7-1.2-1.2
				L-78.7-62.9z"/>
		</g>
		<g>
			<path class="st3" d="M-75.3-61.6c0,0-3.2,1.4-4.1,1.7c0,0,1.2-0.2,1.8-0.5l-0.7,0.4c0,0,1-0.2,1.6-0.4l-0.8,0.3
				c0,0,0.9-0.2,1.4-0.4l-0.7,0.4c0,0,1.1-0.3,1.5-0.5l-0.6,0.4c0,0,0.9-0.2,1.2-0.4l-0.5,0.3c0,0,0.7-0.2,1-0.4l-0.4,0.5
				c0,0,0.9-0.6,1-0.6C-73.6-60.8-74.8-61.3-75.3-61.6z"/>
		</g>
		<g>
			<path class="st3" d="M-72.8-60.3c0,0-2,1.5-3.2,2.3c0,0,1.3-0.6,1.8-0.9l-0.8,0.7c0,0,1.2-0.6,1.5-0.8l-0.8,0.7
				c0,0,1-0.5,1.4-0.8l-0.6,0.6c0,0,0.9-0.4,1.2-0.6l-0.6,0.5c0,0,0.6-0.3,1-0.5l-0.3,0.4c0,0,0.5-0.2,1-0.6l-0.2,0.4
				c0,0,0.9-0.6,1.1-0.8C-70.5-59.7-72.2-60-72.8-60.3z"/>
		</g>
		<g>
			<path class="st3" d="M-69.6-59.5c0,0-1,1.4-2,2.5c0,0,0.8-0.5,1.1-0.9L-71-57c0,0,0.8-0.7,1-1l-0.4,0.7c0,0,0.6-0.5,0.9-0.8
				l-0.3,0.7c0,0,0.4-0.4,0.7-0.8l-0.2,0.6c0,0,0.5-0.5,0.7-0.9l0,0.8c0,0,0.3-0.7,0.6-1.2C-67.9-58.8-68.8-59.4-69.6-59.5z"/>
		</g>
		<g>
			<path class="st3" d="M-66.9-58.3c0,0-0.8,2.2-1.3,3c0,0,0.7-0.8,1-1.4c0,0-0.2,0.9-0.3,1.1c0,0,0.4-0.6,0.6-1.2
				c0,0-0.1,0.7-0.1,0.9c0,0,0.4-0.6,0.5-1c0,0,0,0.7-0.1,0.9c0,0,0.3-0.6,0.4-0.9c0,0,0,0.5,0,0.7c0,0,0.3-0.4,0.4-0.8
				c0,0,0,0.4,0,0.6c0,0,0.2-0.5,0.3-0.8c0,0,0.1,0.5,0.1,0.6c0,0,0.2-0.3,0.3-0.7C-65.1-57.4-66-58-66.9-58.3z"/>
		</g>
		<g>
			<path class="st3" d="M-64.1-56.9c0,0,0,1.2-0.2,2.2c0,0,0.4-0.5,0.4-1.1c0,0,0,0.5,0,0.8c0,0,0.3-0.5,0.3-0.9c0,0,0,0.3,0,0.6
				c0,0,0.2-0.4,0.2-0.7c0,0,0,0.3,0,0.5c0,0,0.2-0.3,0.2-0.6c0,0,0,0.3,0,0.5c0,0,0.2-0.3,0.2-0.6c0,0,0.1,0.3,0.1,0.5
				c0,0,0.1-0.3,0.1-0.5l0.1,0.3c0,0,0.1-0.2,0.1-0.4C-62.4-56.4-63.7-56.7-64.1-56.9z"/>
		</g>
		<g>
			<path class="st3" d="M-61.2-56c0,0,0.2,0.2,0.4,1.7c0,0,0.1-0.3,0.2-0.8c0,0,0.1,0.4,0.1,0.6c0,0,0.2-0.4,0.2-0.7
				c0,0,0.1,0.2,0.1,0.4c0,0,0.2-0.4,0.2-0.6c0,0,0.1,0.3,0.1,0.4c0,0,0.2-0.3,0.2-0.5c0,0,0,0.2,0.1,0.4c0,0,0.2-0.3,0.2-0.5
				l0.1,0.4c0,0,0.2-0.4,0.5-0.5C-59-55.8-60.1-55.8-61.2-56z"/>
		</g>
		<g>
			<path class="st3" d="M-67.7-66.3c0,0-4.5,2.7-7.9,2.4c0,0,1.4,0.3,2.8,0.1c0,0-1,0.2-1.7,0.2c0,0,1.5,0.3,3.1-0.1
				c0,0-0.8,0.3-1.2,0.4c0,0,1.2,0,2-0.3c0,0-0.3,0.2-0.5,0.3c0,0,1.3-0.1,2.3-1c0,0-0.3,0.2-0.5,0.2c0,0,0.7-0.5,1-1
				c0,0-0.9,0.5-1.2,0.7c0,0,1.1-0.8,1.5-1.2c0,0-0.7,0.4-1.4,0.7C-69.3-65-68.4-65.4-67.7-66.3z"/>
		</g>
	</g>
	<g>
		<path class="st2" d="M-48.1-59.7c0,0,6.4-0.1,6-3.4c-0.5-3.3,1.8-5.1,5.4-3.2c3.6,1.9,6.3,1.7,6.3,1.7s-0.1,2.8-5.6,4
			c-5.6,1.2-6.6,3.9-12.1,4V-59.7z"/>
	</g>
	<g>
		<path class="st3" d="M-47.5-59.3v2.4c0,0,1.8-0.2,3.3-0.8c0,0-1.3,0.3-1.9,0.4c0,0,2-0.5,2.6-0.8c0,0-1.8,0.3-2.1,0.3
			c0,0,2-0.6,2.6-0.8c0,0-1.9,0.3-2.3,0.3c0,0,2.3-0.7,3-1c0,0-2.1,0.5-2.5,0.5c0,0,2.1-0.5,3.3-1.4c0,0-1.2,0.4-2.9,0.9
			c0,0,2.3-0.8,3.1-1.6c0,0-1.7,0.8-3.5,1.2S-47.5-59.3-47.5-59.3z"/>
	</g>
	<g>
		<path class="st3" d="M-31.1-64.1C-31.1-64.1-31.1-64.1-31.1-64.1c-0.1,0-0.2,0-0.3,0c-0.2,0-0.4,0-0.7-0.1
			c-0.3-0.1-0.7-0.1-1.1-0.2c-0.4-0.1-0.9-0.2-1.4-0.4c-0.5-0.2-1-0.4-1.6-0.7c-0.1-0.1-0.3-0.1-0.4-0.2c-0.1-0.1-0.3-0.1-0.4-0.2
			c-0.1,0-0.1-0.1-0.2-0.1c-0.1,0-0.1-0.1-0.2-0.1c-0.1-0.1-0.3-0.1-0.5-0.2c-0.2-0.1-0.3-0.1-0.5-0.2c-0.2-0.1-0.3-0.1-0.5-0.1
			c-0.4-0.1-0.7-0.1-1.1,0c-0.2,0-0.4,0.1-0.5,0.2c0,0-0.1,0-0.1,0.1c0,0-0.1,0-0.1,0.1c0,0-0.1,0.1-0.1,0.1c0,0,0,0-0.1,0l0,0
			c0,0,0,0,0,0l0,0l0,0l-0.1,0.1c0,0,0,0,0,0l0,0c-0.1,0.1-0.1,0.1-0.2,0.2c0,0,0,0.1-0.1,0.1c0,0,0,0.1-0.1,0.1
			c0,0.1-0.1,0.1-0.1,0.2c-0.1,0.3-0.2,0.6-0.2,0.9c0,0.3,0,0.6,0,0.9c0,0,0,0.1,0,0.1l0,0.1c0,0.1,0,0.1,0,0.2c0,0.1,0,0.1,0,0.2
			c0,0,0,0.1,0,0.1c0,0,0,0.1,0,0.1c0,0.1,0,0.3,0,0.4c0,0,0,0.1,0,0.1l0,0l0,0c0,0,0,0.1,0,0.1c0,0,0,0.1,0,0.1
			c-0.1,0.3-0.2,0.5-0.3,0.7c-0.2,0.2-0.3,0.4-0.5,0.6c-0.2,0.2-0.4,0.3-0.7,0.5c-0.2,0.1-0.5,0.2-0.7,0.3c-0.2,0.1-0.5,0.2-0.7,0.2
			c-0.2,0.1-0.5,0.1-0.7,0.2c-0.4,0.1-0.8,0.2-1.1,0.2c-0.3,0-0.6,0.1-0.7,0.1c-0.2,0-0.3,0-0.3,0s0.1,0,0.3,0c0.2,0,0.4,0,0.7-0.1
			c0.3,0,0.7-0.1,1.1-0.2c0.4-0.1,0.9-0.2,1.4-0.4c0.5-0.2,1-0.4,1.5-0.8c0.2-0.2,0.4-0.4,0.6-0.6c0-0.1,0.1-0.1,0.1-0.2
			c0,0,0-0.1,0.1-0.1c0,0,0-0.1,0-0.1c0,0,0-0.1,0-0.1c0,0,0-0.1,0-0.1c0,0,0-0.1,0-0.1c0,0,0,0,0,0l0-0.1c0,0,0-0.1,0-0.1
			c0,0,0-0.1,0-0.1l0-0.1l0-0.1c0,0,0-0.1,0-0.1c0-0.1,0-0.3,0-0.4c0,0,0-0.1,0-0.1c0,0,0-0.1,0-0.1c0-0.1,0-0.1,0-0.2
			c0-0.1,0-0.1,0-0.2l0-0.1c0,0,0-0.1,0-0.1c0-0.3,0-0.6,0-0.8c0-0.3,0.1-0.5,0.2-0.8c0-0.1,0.1-0.1,0.1-0.2c0,0,0-0.1,0.1-0.1
			c0,0,0-0.1,0.1-0.1c0-0.1,0.1-0.1,0.1-0.2l0,0c0,0,0,0,0,0l0.1-0.1l0,0l0,0c0,0,0,0,0,0l0,0c0,0,0,0,0,0c0,0,0.1,0,0.1-0.1
			c0,0,0.1,0,0.1-0.1c0,0,0.1,0,0.1-0.1c0.1,0,0.1-0.1,0.2-0.1c0.1,0,0.2,0,0.2-0.1c0.1,0,0.2,0,0.2,0c0,0,0.1,0,0.1,0l0,0l0,0l0,0
			l0.1,0c0.2,0,0.3,0,0.5,0.1c0.2,0,0.3,0.1,0.5,0.1c0.2,0,0.3,0.1,0.5,0.2c0.1,0.1,0.3,0.1,0.4,0.2c0.1,0,0.1,0.1,0.2,0.1
			c0.1,0,0.1,0.1,0.2,0.1c0.1,0.1,0.3,0.1,0.4,0.2c0.1,0.1,0.3,0.1,0.4,0.2c0.5,0.2,1.1,0.5,1.6,0.6c0.1,0,0.1,0,0.2,0.1
			c0.1,0,0.1,0,0.2,0.1c0.1,0,0.2,0.1,0.4,0.1c0.1,0,0.2,0.1,0.3,0.1c0.1,0,0.2,0.1,0.3,0.1c0.4,0.1,0.8,0.2,1.1,0.2
			c0.1,0,0.2,0,0.2,0c0.1,0,0.1,0,0.2,0c0.1,0,0.2,0,0.3,0C-31.3-64.2-31.2-64.2-31.1-64.1C-31.1-64.1-31.1-64.1-31.1-64.1z"/>
	</g>
	<g>
		<path class="st2" d="M-30-63.8c0,0,10.6,2.8,19.3,2.2c0,0-1.3,3.5-7.6,3c-6.3-0.4-12.9-3.5-12.9-3.5S-30.4-62.9-30-63.8z"/>
	</g>
	<g>
		<path class="st3" d="M-17.3-59c0.1,0,0.3,0,0.4,0l0.2,0c0.1,0,0.1,0,0.2,0l0.2,0c0,0,0.1,0,0.1,0l0.1,0l0.2,0c0.1,0,0.1,0,0.2,0
			c0.1,0,0.1,0,0.2,0l0.2,0l0.1,0l0.1,0l0.2,0c0.1,0,0.1,0,0.2,0l0.1,0l0,0l0,0c0.1,0,0.3-0.1,0.4-0.1c0.1,0,0.1,0,0.2-0.1l0.2-0.1
			c0.1,0,0.1-0.1,0.2-0.1c0.1,0,0.1-0.1,0.2-0.1l0.2-0.1c0,0,0.1,0,0.1,0l0.1,0c0.1,0,0.1-0.1,0.2-0.1l0.2-0.1c0,0,0.1,0,0.1-0.1
			l0.1-0.1l0.2-0.1c0,0,0.1-0.1,0.1-0.1c0,0,0.1-0.1,0.1-0.1c0.2-0.2,0.3-0.3,0.5-0.5l0.1-0.1l-0.2,0c-0.4,0-0.8,0-1.1,0
			c-0.2,0-0.4,0-0.6,0l-0.6,0c-0.1,0-0.2,0-0.3,0l-0.3,0l-0.3,0c-0.1,0-0.2,0-0.3,0l-0.6,0l-0.6,0c-0.2,0-0.4,0-0.6,0
			c-0.2,0-0.4,0-0.6,0l-0.6,0c-0.2,0-0.4,0-0.6-0.1l-0.3,0l-0.3,0c-0.2,0-0.4,0-0.6-0.1l-0.6-0.1l-0.6-0.1c-0.2,0-0.4,0-0.6-0.1
			c-0.2,0-0.4,0-0.6-0.1c-0.2,0-0.4-0.1-0.6-0.1L-23-62l-0.6-0.1l-0.6-0.1c-0.4-0.1-0.7-0.1-1.1-0.2c-0.4-0.1-0.7-0.1-1.1-0.2
			c-0.4-0.1-0.7-0.1-1.1-0.2c-0.4-0.1-0.7-0.1-1.1-0.2c-0.4-0.1-0.7-0.2-1.1-0.2c0.4,0.1,0.7,0.2,1.1,0.3c0.4,0.1,0.7,0.2,1.1,0.3
			c0.4,0.1,0.7,0.2,1.1,0.2c0.4,0.1,0.7,0.2,1.1,0.2c0.4,0.1,0.7,0.1,1.1,0.2l0.6,0.1l0.6,0.1c0.4,0.1,0.7,0.1,1.1,0.2
			c0.2,0,0.4,0.1,0.6,0.1c0.2,0,0.4,0.1,0.6,0.1c0.2,0,0.4,0.1,0.6,0.1l0.6,0.1c0.2,0,0.4,0,0.6,0.1l0.3,0l0.3,0
			c0.2,0,0.4,0,0.6,0.1l0.6,0c0.2,0,0.4,0,0.6,0c0.2,0,0.4,0,0.6,0l0.6,0l0.6,0c0.1,0,0.2,0,0.3,0l0.3,0l0.3,0c0.1,0,0.2,0,0.3,0
			l0.6,0c0.2,0,0.4,0,0.6,0c0.4,0,0.8,0,1.1,0l-0.1-0.1c-0.1,0.2-0.3,0.3-0.5,0.5c0,0-0.1,0.1-0.1,0.1c0,0-0.1,0.1-0.1,0.1l-0.1,0.1
			l-0.1,0.1c0,0-0.1,0-0.1,0.1l-0.2,0.1c-0.1,0-0.1,0.1-0.2,0.1l-0.1,0c0,0-0.1,0-0.1,0l-0.2,0.1c-0.1,0-0.1,0.1-0.2,0.1
			c-0.1,0-0.1,0.1-0.2,0.1l-0.2,0.1c-0.1,0-0.1,0-0.2,0.1c-0.1,0-0.2,0.1-0.4,0.1l0,0l0,0l-0.1,0c-0.1,0-0.1,0-0.2,0.1l-0.2,0
			l-0.1,0l-0.1,0l-0.2,0c-0.1,0-0.1,0-0.2,0c-0.1,0-0.1,0-0.2,0l-0.2,0l-0.1,0c0,0-0.1,0-0.1,0l-0.2,0c-0.1,0-0.1,0-0.2,0l-0.2,0
			C-17-59-17.2-59-17.3-59z"/>
	</g>
	<g>
		<path class="st2" d="M-31.4-62c0,0,9.7,4.4,18.3,5.2c0,0-2.2,3.2-8.3,1.8c-6.1-1.4-12.1-5.7-12.1-5.7S-32.3-61.3-31.4-62z"/>
	</g>
	<g>
		<path class="st3" d="M-18.4-55.2c0.1,0,0.2,0,0.3,0l0.1,0c0,0,0.1,0,0.1,0c0.1,0,0.2,0,0.3,0l0.1,0c0,0,0.1,0,0.1,0
			c0.1,0,0.2,0,0.3,0l0.1,0l0.1,0l0.1,0c0.1,0,0.2,0,0.3-0.1c0.1,0,0.2,0,0.3-0.1l0.1,0c0,0,0.1,0,0.1,0c0.1,0,0.2-0.1,0.3-0.1
			c0,0,0.1,0,0.1-0.1c0,0,0.1,0,0.1-0.1l0.1-0.1l0.1,0c0,0,0,0,0.1,0l0.1-0.1c0,0,0.1,0,0.1-0.1c0.1,0,0.2-0.1,0.2-0.1
			c0.2-0.1,0.3-0.2,0.4-0.3l0.1-0.1l-0.2,0l-0.6-0.1c-0.1,0-0.2,0-0.3,0l-0.3,0l-0.3,0c-0.1,0-0.2,0-0.3,0l-0.6-0.1l-0.1,0l-0.1,0
			l-0.3-0.1c-0.2,0-0.4-0.1-0.6-0.1l-0.6-0.1l-0.6-0.1l-0.3-0.1l-0.3-0.1c-0.2,0-0.4-0.1-0.5-0.1l-0.5-0.1c-0.2,0-0.4-0.1-0.5-0.1
			c-0.4-0.1-0.7-0.2-1.1-0.3c-0.4-0.1-0.7-0.2-1.1-0.3c-0.2-0.1-0.4-0.1-0.5-0.2c-0.2-0.1-0.4-0.1-0.5-0.2l-0.5-0.2l-0.5-0.2
			l-0.5-0.2c-0.2-0.1-0.4-0.1-0.5-0.2l-0.5-0.2l-0.5-0.2c-0.3-0.1-0.7-0.2-1-0.4c-0.3-0.1-0.7-0.3-1-0.4c-0.2-0.1-0.3-0.1-0.5-0.2
			l-0.5-0.2c-0.3-0.1-0.7-0.3-1-0.4c0.3,0.2,0.7,0.3,1,0.4c0.3,0.1,0.7,0.3,1,0.4c0.3,0.1,0.7,0.3,1,0.4c0.3,0.1,0.7,0.3,1,0.4
			l0.5,0.2l0.5,0.2c0.3,0.1,0.7,0.2,1,0.4l0.5,0.2l0.5,0.2c0.2,0.1,0.4,0.1,0.5,0.2l0.3,0.1l0.3,0.1c0.4,0.1,0.7,0.2,1.1,0.3
			c0.4,0.1,0.7,0.2,1.1,0.3c0.4,0.1,0.7,0.2,1.1,0.3c0.2,0,0.4,0.1,0.6,0.1l0.3,0.1l0.3,0.1c0.2,0,0.4,0.1,0.6,0.1l0.6,0.1
			c0.2,0,0.4,0.1,0.6,0.1l0.3,0.1l0.1,0l0.1,0l0.6,0.1c0.1,0,0.2,0,0.3,0l0.3,0l0.3,0c0.1,0,0.2,0,0.3,0l0.6,0.1l-0.1-0.1
			c-0.1,0.1-0.3,0.2-0.4,0.3c-0.1,0.1-0.1,0.1-0.2,0.1c0,0-0.1,0-0.1,0.1l-0.1,0.1c0,0,0,0-0.1,0l-0.1,0l-0.1,0.1c0,0-0.1,0-0.1,0.1
			c0,0-0.1,0-0.1,0.1c-0.1,0-0.2,0.1-0.3,0.1c0,0-0.1,0-0.1,0l-0.1,0c-0.1,0-0.2,0.1-0.3,0.1c-0.1,0-0.2,0-0.3,0.1l-0.1,0l-0.1,0
			l-0.1,0c-0.1,0-0.2,0-0.3,0.1c0,0-0.1,0-0.1,0l-0.1,0c-0.1,0-0.2,0-0.3,0c0,0-0.1,0-0.1,0l-0.1,0C-18.2-55.2-18.3-55.2-18.4-55.2z
			"/>
	</g>
	<g>
		<path class="st2" d="M-33.7-60.7c0,0,7.7,6,15.8,8.4c0,0-3.1,2.7-8.6,0.2c-5.5-2.5-10.1-7.7-10.1-7.7S-34.9-60.2-33.7-60.7z"/>
	</g>
	<g>
		<path class="st3" d="M-22-51.6l0.2,0c0.1,0,0.1,0,0.2,0l0.1,0l0.1,0c0.1,0,0.1,0,0.2,0c0.1,0,0.1,0,0.2,0l0.2,0l0.2,0
			c0.1,0,0.1,0,0.2,0c0.1,0,0.1,0,0.2,0c0.1,0,0.1,0,0.2,0c0.1,0,0.1,0,0.2-0.1c0.1,0,0.1,0,0.2-0.1c0.1,0,0.1,0,0.2-0.1
			c0.1,0,0.1,0,0.2-0.1l0.1,0l0.1,0c0.1,0,0.1-0.1,0.2-0.1l0.1-0.1l-0.1,0l-0.5-0.2c-0.1,0-0.2-0.1-0.3-0.1l-0.3-0.1
			c-0.2-0.1-0.3-0.1-0.5-0.2l-0.5-0.2c-0.2-0.1-0.3-0.1-0.5-0.2c-0.2-0.1-0.3-0.1-0.5-0.2l-0.5-0.2c-0.2-0.1-0.3-0.1-0.5-0.2
			l-0.2-0.1l-0.2-0.1l-0.5-0.2c-0.3-0.2-0.6-0.3-1-0.5c-0.3-0.2-0.6-0.3-0.9-0.5c-0.3-0.2-0.6-0.3-0.9-0.5c-0.3-0.2-0.6-0.3-0.9-0.5
			l-0.5-0.3l-0.5-0.3c-0.3-0.2-0.6-0.4-0.9-0.5c-0.3-0.2-0.6-0.4-0.9-0.5c-0.3-0.2-0.6-0.4-0.9-0.6c-0.3-0.2-0.6-0.4-0.9-0.6
			c-0.3-0.2-0.6-0.4-0.9-0.6c-0.3-0.2-0.6-0.4-0.8-0.6c0.3,0.2,0.5,0.4,0.8,0.6c0.3,0.2,0.5,0.4,0.8,0.6c0.3,0.2,0.6,0.4,0.8,0.6
			c0.3,0.2,0.6,0.4,0.9,0.6c0.3,0.2,0.6,0.4,0.9,0.6c0.3,0.2,0.6,0.4,0.9,0.5l0.4,0.3l0.5,0.3c0.2,0.1,0.3,0.2,0.5,0.3
			c0.2,0.1,0.3,0.2,0.5,0.3c0.3,0.2,0.6,0.3,0.9,0.5c0.3,0.2,0.6,0.3,0.9,0.5c0.3,0.2,0.6,0.3,1,0.5c0.3,0.2,0.6,0.3,1,0.4
			c0.2,0.1,0.3,0.1,0.5,0.2l0.5,0.2c0.2,0.1,0.3,0.1,0.5,0.2c0.2,0.1,0.3,0.1,0.5,0.2l0.5,0.2c0.2,0.1,0.3,0.1,0.5,0.2l0.3,0.1
			c0.1,0,0.2,0.1,0.3,0.1l0.5,0.2l0-0.1c-0.1,0-0.1,0.1-0.2,0.1l-0.1,0l-0.1,0c-0.1,0-0.1,0-0.2,0.1c-0.1,0-0.1,0-0.2,0.1
			c-0.1,0-0.1,0-0.2,0.1c-0.1,0-0.1,0-0.2,0.1c-0.1,0-0.1,0-0.2,0.1c-0.1,0-0.1,0-0.2,0c-0.1,0-0.1,0-0.2,0l-0.2,0l-0.2,0
			c-0.1,0-0.1,0-0.2,0c-0.1,0-0.1,0-0.2,0l-0.1,0l-0.1,0c-0.1,0-0.1,0-0.2,0L-22-51.6z"/>
	</g>
	<g>
		<path class="st2" d="M-36.8-59.9c0,0,3.7,5.7,9.2,8.1c0,0-3.4,2.3-6.7-0.1c-3.3-2.4-4.9-7.1-4.9-7.1S-38.6-59.5-36.8-59.9z"/>
	</g>
	<g>
		<path class="st3" d="M-31-51.2l0.2,0c0.1,0,0.1,0,0.2,0c0.1,0,0.1,0,0.2,0c0.1,0,0.1,0,0.2,0l0.1,0l0.1,0c0.1,0,0.1,0,0.2,0
			c0.1,0,0.1,0,0.2,0c0.1,0,0.1,0,0.2,0c0.1,0,0.1,0,0.2,0c0.1,0,0.1,0,0.2,0c0,0,0.1,0,0.1,0c0,0,0.1,0,0.1,0c0,0,0.1,0,0.1,0
			c0,0,0.1,0,0.1-0.1c0,0,0.1,0,0.1-0.1c0,0,0.1,0,0.1-0.1l0.1,0l-0.1-0.1l-0.3-0.2c-0.1,0-0.1-0.1-0.2-0.1l-0.2-0.1
			c-0.1-0.1-0.2-0.1-0.3-0.2l-0.2-0.1l-0.2-0.1c-0.2-0.1-0.4-0.3-0.6-0.4l-0.3-0.2c-0.1-0.1-0.2-0.1-0.3-0.2l-0.1-0.1l-0.1-0.1
			c-0.1-0.1-0.2-0.1-0.3-0.2l-0.3-0.2c-0.1-0.1-0.2-0.2-0.3-0.2l-0.1-0.1l-0.1-0.1c-0.1-0.1-0.2-0.2-0.3-0.2
			c-0.2-0.2-0.4-0.3-0.5-0.5c-0.2-0.2-0.3-0.3-0.5-0.5c-0.1-0.1-0.2-0.2-0.3-0.2c-0.1-0.1-0.2-0.2-0.2-0.2c-0.2-0.2-0.3-0.3-0.5-0.5
			L-35-57l-0.2-0.3c-0.2-0.2-0.3-0.3-0.5-0.5c-0.2-0.2-0.3-0.3-0.5-0.5c-0.3-0.3-0.6-0.7-0.9-1.1c0.1,0.2,0.2,0.4,0.4,0.6
			c0.1,0.2,0.3,0.4,0.4,0.5c0.1,0.1,0.1,0.2,0.2,0.3c0.1,0.1,0.1,0.2,0.2,0.3c0.1,0.1,0.1,0.2,0.2,0.3c0.1,0.1,0.1,0.2,0.2,0.3
			l0.2,0.3l0.2,0.3c0.1,0.1,0.2,0.2,0.2,0.3l0.2,0.3c0.1,0.1,0.2,0.2,0.2,0.3c0.1,0.1,0.2,0.2,0.2,0.3c0.2,0.2,0.3,0.3,0.5,0.5
			c0.2,0.2,0.3,0.3,0.5,0.5c0.1,0.1,0.2,0.2,0.3,0.2l0.1,0.1l0.1,0.1c0.1,0.1,0.2,0.2,0.3,0.2l0.3,0.2c0.1,0.1,0.2,0.1,0.3,0.2
			l0.1,0.1l0.2,0.1c0.1,0.1,0.2,0.1,0.3,0.2l0.3,0.2c0.2,0.1,0.4,0.3,0.6,0.4l0.2,0.1l0.2,0.1c0.1,0.1,0.2,0.1,0.3,0.2
			c0.1,0.1,0.2,0.1,0.3,0.2l0.3,0.2l0-0.1c0,0-0.1,0-0.1,0.1c0,0-0.1,0-0.1,0.1c0,0-0.1,0-0.1,0.1c0,0-0.1,0-0.1,0.1
			c0,0-0.1,0-0.1,0.1c0,0-0.1,0-0.1,0c0,0-0.1,0-0.1,0c0,0-0.1,0-0.1,0c0,0-0.1,0-0.1,0c0,0-0.1,0-0.1,0c0,0-0.1,0-0.2,0l-0.1,0
			l-0.1,0c-0.1,0-0.1,0-0.2,0c-0.1,0-0.1,0-0.2,0c-0.1,0-0.1,0-0.2,0L-31-51.2z"/>
	</g>
	<g>
		<path class="st2" d="M-39.4-59c0,0,1.3,5.4,5.2,7.7c0,0-3.5,2-5.5-0.3c-2-2.3-2.1-6.1-2.1-6.1S-41-58.4-39.4-59z"/>
	</g>
	<g>
		<path class="st3" d="M-37.2-50.9l0.1,0c0,0,0.1,0,0.1,0c0,0,0.1,0,0.1,0c0,0,0.1,0,0.1,0c0,0,0.1,0,0.1,0c0,0,0.1,0,0.1,0
			c0,0,0.1,0,0.1,0c0,0,0.1,0,0.1,0c0,0,0.1,0,0.1,0c0,0,0.1,0,0.1,0c0,0,0.1,0,0.1,0c0,0,0.1,0,0.1,0c0,0,0.1,0,0.1,0
			c0,0,0.1,0,0.1,0c0.1,0,0.2-0.1,0.2-0.1l0.1,0l-0.1-0.1l-0.2-0.2c-0.1-0.1-0.1-0.1-0.2-0.2c-0.1-0.1-0.1-0.1-0.2-0.2l-0.1-0.1
			l-0.1-0.1l-0.1-0.1l0,0l0,0l-0.2-0.2l-0.2-0.2l0-0.1l0-0.1l-0.1-0.1l-0.1-0.1c0,0-0.1-0.1-0.1-0.1c-0.1-0.1-0.1-0.1-0.2-0.2
			l-0.2-0.2c-0.1-0.1-0.1-0.1-0.2-0.2c-0.1-0.1-0.2-0.3-0.3-0.4l-0.1-0.2l-0.1-0.1l-0.1-0.1l-0.1-0.2l-0.1-0.2l-0.1-0.1l-0.1-0.1
			l-0.1-0.2l-0.1-0.2c0-0.1-0.1-0.2-0.1-0.2c-0.1-0.2-0.2-0.3-0.2-0.5c-0.1-0.2-0.2-0.3-0.2-0.5c-0.1-0.2-0.1-0.3-0.2-0.5
			c-0.1-0.2-0.1-0.3-0.2-0.5l-0.2-0.5c0.1,0.3,0.2,0.6,0.3,1c0.1,0.2,0.1,0.3,0.2,0.5c0.1,0.2,0.1,0.3,0.2,0.5
			c0.1,0.2,0.1,0.3,0.2,0.5c0.1,0.2,0.1,0.3,0.2,0.5l0.1,0.2l0.1,0.1l0.1,0.1l0.1,0.2l0.1,0.2l0.1,0.1l0.1,0.1L-38-54
			c0.1,0.1,0.2,0.3,0.3,0.4c0.1,0.1,0.2,0.3,0.3,0.4c0.1,0.1,0.1,0.1,0.2,0.2c0,0,0.1,0.1,0.1,0.1l0.1,0.1l0.1,0.1l0,0.1l0,0.1
			l0.2,0.2c0.1,0.1,0.3,0.3,0.4,0.4l0.1,0.1l0.1,0.1c0.1,0.1,0.1,0.1,0.2,0.2c0.1,0.1,0.2,0.1,0.2,0.2l0.2,0.2l0-0.1
			c-0.1,0-0.1,0.1-0.2,0.1c-0.1,0-0.2,0.1-0.2,0.1c0,0-0.1,0-0.1,0c0,0-0.1,0-0.1,0c0,0-0.1,0-0.1,0c0,0-0.1,0-0.1,0
			c0,0-0.1,0-0.1,0c0,0-0.1,0-0.1,0c0,0-0.1,0-0.1,0c0,0-0.1,0-0.1,0c0,0-0.1,0-0.1,0c0,0-0.1,0-0.1,0c0,0-0.1,0-0.1,0L-37.2-50.9z"
			/>
	</g>
	<g>
		<path class="st2" d="M-42.1-57.5c0,0-0.2,4.1,2.2,6.3c0,0-3.8,0.9-4.6-1c-0.9-2.1-0.2-4.4-0.2-4.4S-43.4-56.9-42.1-57.5z"/>
	</g>
	<g>
		<path class="st3" d="M-43.1-51.6L-43.1-51.6l0.1,0.1c0,0,0.1,0,0.1,0c0,0,0.1,0,0.1,0c0,0,0.1,0,0.1,0c0,0,0.1,0,0.1,0
			c0,0,0.1,0,0.1,0c0.1,0,0.2,0,0.3,0c0.1,0,0.2,0,0.3,0c0,0,0.1,0,0.1,0c0,0,0.1,0,0.1,0c0.1,0,0.2,0,0.3,0c0.1,0,0.2,0,0.3,0
			l0.2,0l-0.1-0.1l-0.2-0.3l0,0l0,0l0-0.1l-0.1-0.2l0-0.1l0-0.1l-0.1-0.2c0-0.1-0.1-0.1-0.1-0.2l-0.1-0.2l-0.1-0.2l-0.1-0.2
			c0-0.1-0.1-0.2-0.1-0.3c0-0.1-0.1-0.2-0.1-0.3l-0.1-0.2c0-0.1,0-0.1-0.1-0.2c0-0.1-0.1-0.2-0.1-0.3c0-0.1-0.1-0.2-0.1-0.3
			l-0.1-0.3l-0.1-0.3c0-0.1,0-0.2-0.1-0.3c0-0.1,0-0.2-0.1-0.3c0-0.1,0-0.2-0.1-0.3l-0.1-0.3c0,0.1,0,0.2,0,0.3l0,0.2l0,0.2
			c0,0.1,0,0.2,0,0.3c0,0.1,0,0.2,0,0.3c0,0.1,0,0.2,0,0.3l0.1,0.3c0,0.1,0.1,0.2,0.1,0.3c0,0.1,0.1,0.2,0.1,0.3
			c0,0.1,0,0.1,0.1,0.2l0.1,0.2l0,0.1c0,0,0,0.1,0,0.1l0.1,0.2c0,0.1,0,0.1,0.1,0.2l0.1,0.2l0.1,0.2l0.1,0.2
			c0.1,0.1,0.1,0.2,0.2,0.3l0.1,0.2l0,0.1l0.1,0.1l0.1,0.2l0.1,0.1l0,0l0,0l0.2,0.3l0.1-0.1c-0.1,0-0.2,0-0.3,0c-0.1,0-0.2,0-0.3,0
			c0,0-0.1,0-0.1,0c0,0-0.1,0-0.1,0c-0.1,0-0.2,0-0.3,0c-0.1,0-0.2,0-0.3,0c0,0-0.1,0-0.1,0c0,0-0.1,0-0.1,0c0,0-0.1,0-0.1,0
			c0,0-0.1,0-0.1,0c0,0-0.1,0-0.1,0C-43-51.6-43-51.6-43.1-51.6z"/>
	</g>
	<g>
		<path class="st2" d="M-44.8-56.5c0,0-1,2.3,0,4.3c0,0.1-3.2,0.3-3.1-2.2c0-1.2-0.1-1.5-0.1-1.7C-48.1-56.1-45.9-56.1-44.8-56.5z"
			/>
	</g>
	<g>
		<path class="st3" d="M-46.8-53C-46.8-53-46.8-53-46.8-53c0.1,0.1,0.1,0.1,0.1,0.1c0,0,0,0,0.1,0c0,0,0,0,0.1,0c0,0,0,0,0.1,0
			c0,0,0,0,0.1,0c0,0,0,0,0.1,0c0,0,0.1,0,0.1,0c0,0,0.1,0,0.1,0c0,0,0.1,0,0.1,0c0.1,0,0.1,0,0.2,0.1c0.1,0,0.2,0.1,0.3,0.1l0.2,0
			l0-0.1l0-0.2c0-0.1,0-0.1,0-0.2c0-0.1,0-0.1,0-0.2c0,0,0-0.1,0-0.1l0-0.1l0-0.1c0,0,0-0.1,0-0.1c0-0.1,0-0.1,0-0.2
			c0-0.1,0-0.1,0-0.2c0-0.1,0-0.1,0-0.2c0-0.1,0-0.1,0-0.2c0-0.1,0-0.1,0-0.2c0-0.1,0-0.1,0-0.2l0-0.2c0-0.1,0-0.1,0-0.2l0-0.2
			l0-0.2c0-0.1,0-0.1,0-0.2c0,0.1-0.1,0.1-0.1,0.2l0,0.1l0,0.1c0,0.1,0,0.1-0.1,0.2c0,0.1,0,0.1,0,0.2c0,0.1,0,0.1,0,0.2
			c0,0.1,0,0.1,0,0.2c0,0.1,0,0.1,0,0.2c0,0.1,0,0.1,0,0.2c0,0.1,0,0.1,0,0.2c0,0.1,0,0.1,0,0.2c0,0.1,0,0.1,0,0.2c0,0,0,0.1,0,0.1
			l0,0.1l0,0.1c0,0,0,0.1,0,0.1c0,0.1,0,0.1,0,0.2c0,0.1,0,0.1,0.1,0.2l0.1,0.2l0.1-0.1c-0.1,0-0.1,0-0.2,0c0,0-0.1,0-0.1,0
			c0,0-0.1,0-0.1,0c-0.1,0-0.1,0-0.2,0c0,0-0.1,0-0.1,0c0,0-0.1,0-0.1,0c0,0-0.1,0-0.1,0c0,0-0.1,0-0.1,0c0,0-0.1,0-0.1,0
			c0,0-0.1,0-0.1,0c0,0,0,0-0.1,0c0,0,0,0-0.1,0C-46.7-53-46.7-53-46.8-53C-46.8-53-46.8-53-46.8-53z"/>
	</g>
	<g>
		<path class="st3" d="M-27.9-62.9c0,0,1.1,0.2,2.1,0.4c0,0-1.9-0.2-2.4-0.3l1.5,0.5c0,0-1.6-0.2-2.1-0.3l1.3,0.4
			c0,0-1.3-0.1-1.6-0.2l1,0.3l-1.6-0.2l0.9,0.3l-1.3-0.2l0.6,0.2l-1-0.1l1.1,0.6c0,0-1.5-0.6-1.6-0.6c0,0,0.7-0.7,1.2-1.2
			L-27.9-62.9z"/>
	</g>
	<g>
		<path class="st3" d="M-31.4-61.6c0,0,3.2,1.4,4.1,1.7c0,0-1.2-0.2-1.8-0.5l0.7,0.4c0,0-1-0.2-1.6-0.4l0.8,0.3c0,0-0.9-0.2-1.4-0.4
			l0.7,0.4c0,0-1.1-0.3-1.5-0.5l0.6,0.4c0,0-0.9-0.2-1.2-0.4l0.5,0.3c0,0-0.7-0.2-1-0.4l0.4,0.5c0,0-0.9-0.6-1-0.6
			C-33.1-60.8-31.9-61.3-31.4-61.6z"/>
	</g>
	<g>
		<path class="st3" d="M-33.9-60.3c0,0,2,1.5,3.2,2.3c0,0-1.3-0.6-1.8-0.9l0.8,0.7c0,0-1.2-0.6-1.5-0.8l0.8,0.7c0,0-1-0.5-1.4-0.8
			l0.6,0.6c0,0-0.9-0.4-1.2-0.6l0.6,0.5c0,0-0.6-0.3-1-0.5l0.3,0.4c0,0-0.5-0.2-1-0.6l0.2,0.4c0,0-0.9-0.6-1.1-0.8
			C-36.2-59.7-34.5-60-33.9-60.3z"/>
	</g>
	<g>
		<path class="st3" d="M-37.1-59.5c0,0,1,1.4,2,2.5c0,0-0.8-0.5-1.1-0.9l0.5,0.9c0,0-0.8-0.7-1-1l0.4,0.7c0,0-0.6-0.5-0.9-0.8
			l0.3,0.7c0,0-0.4-0.4-0.7-0.8l0.2,0.6c0,0-0.5-0.5-0.7-0.9l0,0.8c0,0-0.3-0.7-0.6-1.2C-38.8-58.8-37.9-59.4-37.1-59.5z"/>
	</g>
	<g>
		<path class="st3" d="M-39.8-58.3c0,0,0.8,2.2,1.3,3c0,0-0.7-0.8-1-1.4c0,0,0.2,0.9,0.3,1.1c0,0-0.4-0.6-0.6-1.2
			c0,0,0.1,0.7,0.1,0.9c0,0-0.4-0.6-0.5-1c0,0,0,0.7,0.1,0.9c0,0-0.3-0.6-0.4-0.9c0,0,0,0.5,0,0.7c0,0-0.3-0.4-0.4-0.8
			c0,0,0,0.4,0,0.6c0,0-0.2-0.5-0.3-0.8c0,0-0.1,0.5-0.1,0.6c0,0-0.2-0.3-0.3-0.7C-41.6-57.4-40.7-58-39.8-58.3z"/>
	</g>
	<g>
		<path class="st3" d="M-42.6-56.9c0,0,0,1.2,0.2,2.2c0,0-0.4-0.5-0.4-1.1c0,0,0,0.5,0,0.8c0,0-0.3-0.5-0.3-0.9c0,0,0,0.3,0,0.6
			c0,0-0.2-0.4-0.2-0.7c0,0,0,0.3,0,0.5c0,0-0.2-0.3-0.2-0.6c0,0,0,0.3,0,0.5c0,0-0.2-0.3-0.2-0.6c0,0-0.1,0.3-0.1,0.5
			c0,0-0.1-0.3-0.1-0.5l-0.1,0.3c0,0-0.1-0.2-0.1-0.4C-44.3-56.4-43-56.7-42.6-56.9z"/>
	</g>
	<g>
		<path class="st3" d="M-45.5-56c0,0-0.2,0.2-0.4,1.7c0,0-0.1-0.3-0.2-0.8c0,0-0.1,0.4-0.1,0.6c0,0-0.2-0.4-0.2-0.7
			c0,0-0.1,0.2-0.1,0.4c0,0-0.2-0.4-0.2-0.6c0,0-0.1,0.3-0.1,0.4c0,0-0.2-0.3-0.2-0.5c0,0,0,0.2-0.1,0.4c0,0-0.2-0.3-0.2-0.5
			l-0.1,0.4c0,0-0.2-0.4-0.5-0.5C-47.7-55.8-46.6-55.8-45.5-56z"/>
	</g>
	<g>
		<path class="st3" d="M-39-66.3c0,0,4.5,2.7,7.9,2.4c0,0-1.4,0.3-2.8,0.1c0,0,1,0.2,1.7,0.2c0,0-1.5,0.3-3.1-0.1
			c0,0,0.8,0.3,1.2,0.4c0,0-1.2,0-2-0.3c0,0,0.3,0.2,0.5,0.3c0,0-1.3-0.1-2.3-1c0,0,0.3,0.2,0.5,0.2c0,0-0.7-0.5-1-1
			c0,0,0.9,0.5,1.2,0.7c0,0-1.1-0.8-1.5-1.2c0,0,0.7,0.4,1.4,0.7C-37.4-65-38.3-65.4-39-66.3z"/>
	</g>
</g>
<g>
	<g>
		<path class="st2" d="M-63.4-37.2h-0.8c-0.2,0-0.4,0.3-0.3,0.6L-63.6,9c0,0.4,0.4,0.4,0.4,0l0.9-45.6c0-0.3-0.1-0.6-0.3-0.6H-63.4z
			"/>
	</g>
	<g>
		<g>
			<path class="st3" d="M-63.8-36.6c-0.1,0-0.2,0.1-0.2,0.3l0.6,44.9l0-45.3H-63.8z"/>
		</g>
		<g>
			<g>
				<polygon class="st3" points="-63.4,-36.6 -63.1,-36.6 -63.4,-36.5 				"/>
			</g>
			<g>
				<polygon class="st3" points="-63.4,-36.4 -63.1,-36.4 -63.4,-36.3 				"/>
			</g>
			<g>
				<polygon class="st3" points="-63.4,-36.2 -63.1,-36.2 -63.4,-36.1 				"/>
			</g>
			<g>
				<polygon class="st3" points="-63.4,-36 -63.1,-36 -63.4,-35.9 				"/>
			</g>
			<g>
				<polygon class="st3" points="-63.4,-35.8 -63.1,-35.8 -63.4,-35.7 				"/>
			</g>
			<g>
				<polygon class="st3" points="-63.4,-35.6 -63.1,-35.6 -63.4,-35.5 				"/>
			</g>
			<g>
				<polygon class="st3" points="-63.4,-35.4 -63.1,-35.3 -63.4,-35.3 				"/>
			</g>
			<g>
				<polygon class="st3" points="-63.4,-35.2 -63.1,-35.1 -63.4,-35.1 				"/>
			</g>
			<g>
				<polygon class="st3" points="-63.4,-35 -63.1,-34.9 -63.4,-34.9 				"/>
			</g>
			<g>
				<polygon class="st3" points="-63.4,-34.8 -63.1,-34.7 -63.4,-34.7 				"/>
			</g>
			<g>
				<polygon class="st3" points="-63.4,-34.6 -63.1,-34.5 -63.4,-34.5 				"/>
			</g>
			<g>
				<polygon class="st3" points="-63.4,-34.4 -63.1,-34.3 -63.4,-34.2 				"/>
			</g>
			<g>
				<polygon class="st3" points="-63.4,-34.1 -63.1,-34.1 -63.4,-34 				"/>
			</g>
			<g>
				<polygon class="st3" points="-63.4,-33.9 -63.1,-33.9 -63.4,-33.8 				"/>
			</g>
			<g>
				<polygon class="st3" points="-63.4,-33.7 -63.1,-33.7 -63.4,-33.6 				"/>
			</g>
			<g>
				<polygon class="st3" points="-63.4,-33.5 -63.1,-33.5 -63.4,-33.4 				"/>
			</g>
			<g>
				<polygon class="st3" points="-63.4,-33.3 -63.1,-33.3 -63.4,-33.2 				"/>
			</g>
			<g>
				<polygon class="st3" points="-63.4,-33.1 -63.1,-33 -63.4,-33 				"/>
			</g>
			<g>
				<polygon class="st3" points="-63.4,-32.9 -63.1,-32.8 -63.4,-32.8 				"/>
			</g>
			<g>
				<polygon class="st3" points="-63.4,-32.7 -63.2,-32.6 -63.4,-32.6 				"/>
			</g>
			<g>
				<polygon class="st3" points="-63.4,-32.5 -63.2,-32.4 -63.4,-32.4 				"/>
			</g>
			<g>
				<polygon class="st3" points="-63.4,-32.3 -63.2,-32.2 -63.4,-32.2 				"/>
			</g>
			<g>
				<polygon class="st3" points="-63.4,-32.1 -63.2,-32 -63.4,-31.9 				"/>
			</g>
			<g>
				<polygon class="st3" points="-63.4,-31.8 -63.2,-31.8 -63.4,-31.7 				"/>
			</g>
			<g>
				<polygon class="st3" points="-63.4,-31.6 -63.2,-31.6 -63.4,-31.5 				"/>
			</g>
			<g>
				<polygon class="st3" points="-63.4,-31.4 -63.2,-31.4 -63.4,-31.3 				"/>
			</g>
			<g>
				<polygon class="st3" points="-63.4,-31.2 -63.2,-31.2 -63.4,-31.1 				"/>
			</g>
			<g>
				<polygon class="st3" points="-63.4,-31 -63.2,-31 -63.4,-30.9 				"/>
			</g>
			<g>
				<polygon class="st3" points="-63.4,-30.8 -63.2,-30.7 -63.4,-30.7 				"/>
			</g>
			<g>
				<polygon class="st3" points="-63.4,-30.6 -63.2,-30.5 -63.4,-30.5 				"/>
			</g>
			<g>
				<polygon class="st3" points="-63.4,-30.4 -63.2,-30.3 -63.4,-30.3 				"/>
			</g>
			<g>
				<polygon class="st3" points="-63.4,-30.2 -63.2,-30.1 -63.4,-30.1 				"/>
			</g>
			<g>
				<polygon class="st3" points="-63.4,-30 -63.2,-29.9 -63.4,-29.9 				"/>
			</g>
			<g>
				<polygon class="st3" points="-63.4,-29.8 -63.2,-29.7 -63.4,-29.7 				"/>
			</g>
			<g>
				<polygon class="st3" points="-63.4,-29.5 -63.2,-29.5 -63.4,-29.4 				"/>
			</g>
			<g>
				<polygon class="st3" points="-63.4,-29.3 -63.2,-29.3 -63.4,-29.2 				"/>
			</g>
			<g>
				<polygon class="st3" points="-63.4,-29.1 -63.2,-29.1 -63.4,-29 				"/>
			</g>
			<g>
				<polygon class="st3" points="-63.4,-28.9 -63.2,-28.9 -63.4,-28.8 				"/>
			</g>
			<g>
				<polygon class="st3" points="-63.4,-28.7 -63.2,-28.7 -63.4,-28.6 				"/>
			</g>
			<g>
				<polygon class="st3" points="-63.4,-28.5 -63.2,-28.5 -63.4,-28.4 				"/>
			</g>
			<g>
				<polygon class="st3" points="-63.4,-28.3 -63.2,-28.2 -63.4,-28.2 				"/>
			</g>
			<g>
				<polygon class="st3" points="-63.4,-28.1 -63.2,-28 -63.4,-28 				"/>
			</g>
			<g>
				<polygon class="st3" points="-63.4,-27.9 -63.2,-27.8 -63.4,-27.8 				"/>
			</g>
			<g>
				<polygon class="st3" points="-63.4,-27.7 -63.2,-27.6 -63.4,-27.6 				"/>
			</g>
			<g>
				<polygon class="st3" points="-63.4,-27.5 -63.2,-27.4 -63.4,-27.4 				"/>
			</g>
			<g>
				<polygon class="st3" points="-63.4,-27.3 -63.2,-27.2 -63.4,-27.1 				"/>
			</g>
			<g>
				<polygon class="st3" points="-63.4,-27 -63.2,-27 -63.4,-26.9 				"/>
			</g>
			<g>
				<polygon class="st3" points="-63.4,-26.8 -63.2,-26.8 -63.4,-26.7 				"/>
			</g>
			<g>
				<polygon class="st3" points="-63.4,-26.6 -63.2,-26.6 -63.4,-26.5 				"/>
			</g>
			<g>
				<polygon class="st3" points="-63.4,-26.4 -63.2,-26.4 -63.4,-26.3 				"/>
			</g>
			<g>
				<polygon class="st3" points="-63.4,-26.2 -63.2,-26.2 -63.4,-26.1 				"/>
			</g>
			<g>
				<polygon class="st3" points="-63.4,-26 -63.2,-25.9 -63.4,-25.9 				"/>
			</g>
			<g>
				<polygon class="st3" points="-63.4,-25.8 -63.2,-25.7 -63.4,-25.7 				"/>
			</g>
			<g>
				<polygon class="st3" points="-63.4,-25.6 -63.2,-25.5 -63.4,-25.5 				"/>
			</g>
			<g>
				<polygon class="st3" points="-63.4,-25.4 -63.2,-25.3 -63.4,-25.3 				"/>
			</g>
			<g>
				<polygon class="st3" points="-63.4,-25.2 -63.2,-25.1 -63.4,-25.1 				"/>
			</g>
			<g>
				<polygon class="st3" points="-63.4,-25 -63.2,-24.9 -63.4,-24.9 				"/>
			</g>
			<g>
				<polygon class="st3" points="-63.4,-24.7 -63.2,-24.7 -63.4,-24.6 				"/>
			</g>
			<g>
				<polygon class="st3" points="-63.4,-24.5 -63.2,-24.5 -63.4,-24.4 				"/>
			</g>
			<g>
				<polygon class="st3" points="-63.4,-24.3 -63.2,-24.3 -63.4,-24.2 				"/>
			</g>
			<g>
				<polygon class="st3" points="-63.4,-24.1 -63.2,-24.1 -63.4,-24 				"/>
			</g>
			<g>
				<polygon class="st3" points="-63.4,-23.9 -63.2,-23.9 -63.4,-23.8 				"/>
			</g>
			<g>
				<polygon class="st3" points="-63.4,-23.7 -63.2,-23.7 -63.4,-23.6 				"/>
			</g>
			<g>
				<polygon class="st3" points="-63.4,-23.5 -63.2,-23.4 -63.4,-23.4 				"/>
			</g>
			<g>
				<polygon class="st3" points="-63.4,-23.3 -63.2,-23.2 -63.4,-23.2 				"/>
			</g>
			<g>
				<polygon class="st3" points="-63.4,-23.1 -63.2,-23 -63.4,-23 				"/>
			</g>
			<g>
				<polygon class="st3" points="-63.4,-22.9 -63.2,-22.8 -63.4,-22.8 				"/>
			</g>
			<g>
				<polygon class="st3" points="-63.4,-22.7 -63.2,-22.6 -63.4,-22.6 				"/>
			</g>
			<g>
				<polygon class="st3" points="-63.4,-22.4 -63.2,-22.4 -63.4,-22.3 				"/>
			</g>
			<g>
				<polygon class="st3" points="-63.4,-22.2 -63.2,-22.2 -63.4,-22.1 				"/>
			</g>
			<g>
				<polygon class="st3" points="-63.4,-22 -63.2,-22 -63.4,-21.9 				"/>
			</g>
			<g>
				<polygon class="st3" points="-63.4,-21.8 -63.2,-21.8 -63.4,-21.7 				"/>
			</g>
			<g>
				<polygon class="st3" points="-63.4,-21.6 -63.2,-21.6 -63.4,-21.5 				"/>
			</g>
			<g>
				<polygon class="st3" points="-63.4,-21.4 -63.2,-21.4 -63.4,-21.3 				"/>
			</g>
			<g>
				<polygon class="st3" points="-63.4,-21.2 -63.2,-21.1 -63.4,-21.1 				"/>
			</g>
			<g>
				<polygon class="st3" points="-63.4,-21 -63.2,-20.9 -63.4,-20.9 				"/>
			</g>
			<g>
				<polygon class="st3" points="-63.4,-20.8 -63.2,-20.7 -63.4,-20.7 				"/>
			</g>
			<g>
				<polygon class="st3" points="-63.4,-20.6 -63.2,-20.5 -63.4,-20.5 				"/>
			</g>
			<g>
				<polygon class="st3" points="-63.4,-20.4 -63.2,-20.3 -63.4,-20.3 				"/>
			</g>
			<g>
				<polygon class="st3" points="-63.4,-20.2 -63.2,-20.1 -63.4,-20 				"/>
			</g>
			<g>
				<polygon class="st3" points="-63.4,-19.9 -63.2,-19.9 -63.4,-19.8 				"/>
			</g>
			<g>
				<polygon class="st3" points="-63.4,-19.7 -63.2,-19.7 -63.4,-19.6 				"/>
			</g>
			<g>
				<polygon class="st3" points="-63.4,-19.5 -63.2,-19.5 -63.4,-19.4 				"/>
			</g>
			<g>
				<polygon class="st3" points="-63.4,-19.3 -63.2,-19.3 -63.4,-19.2 				"/>
			</g>
			<g>
				<polygon class="st3" points="-63.4,-19.1 -63.2,-19.1 -63.4,-19 				"/>
			</g>
			<g>
				<polygon class="st3" points="-63.4,-18.9 -63.2,-18.8 -63.4,-18.8 				"/>
			</g>
			<g>
				<polygon class="st3" points="-63.4,-18.7 -63.2,-18.6 -63.4,-18.6 				"/>
			</g>
			<g>
				<polygon class="st3" points="-63.4,-18.5 -63.2,-18.4 -63.4,-18.4 				"/>
			</g>
			<g>
				<polygon class="st3" points="-63.4,-18.3 -63.2,-18.2 -63.4,-18.2 				"/>
			</g>
			<g>
				<polygon class="st3" points="-63.4,-18.1 -63.2,-18 -63.4,-18 				"/>
			</g>
			<g>
				<polygon class="st3" points="-63.4,-17.9 -63.2,-17.8 -63.4,-17.8 				"/>
			</g>
			<g>
				<polygon class="st3" points="-63.4,-17.6 -63.2,-17.6 -63.4,-17.5 				"/>
			</g>
			<g>
				<polygon class="st3" points="-63.4,-17.4 -63.2,-17.4 -63.4,-17.3 				"/>
			</g>
			<g>
				<polygon class="st3" points="-63.4,-17.2 -63.2,-17.2 -63.4,-17.1 				"/>
			</g>
			<g>
				<polygon class="st3" points="-63.4,-17 -63.2,-17 -63.4,-16.9 				"/>
			</g>
			<g>
				<polygon class="st3" points="-63.4,-16.8 -63.2,-16.8 -63.4,-16.7 				"/>
			</g>
			<g>
				<polygon class="st3" points="-63.4,-16.6 -63.2,-16.6 -63.4,-16.5 				"/>
			</g>
			<g>
				<polygon class="st3" points="-63.4,-16.4 -63.2,-16.3 -63.4,-16.3 				"/>
			</g>
			<g>
				<polygon class="st3" points="-63.4,-16.2 -63.2,-16.1 -63.4,-16.1 				"/>
			</g>
			<g>
				<polygon class="st3" points="-63.4,-16 -63.2,-15.9 -63.4,-15.9 				"/>
			</g>
			<g>
				<polygon class="st3" points="-63.4,-15.8 -63.2,-15.7 -63.4,-15.7 				"/>
			</g>
			<g>
				<polygon class="st3" points="-63.4,-15.6 -63.2,-15.5 -63.4,-15.5 				"/>
			</g>
			<g>
				<polygon class="st3" points="-63.4,-15.4 -63.2,-15.3 -63.4,-15.2 				"/>
			</g>
			<g>
				<polygon class="st3" points="-63.4,-15.1 -63.2,-15.1 -63.4,-15 				"/>
			</g>
			<g>
				<polygon class="st3" points="-63.4,-14.9 -63.2,-14.9 -63.4,-14.8 				"/>
			</g>
			<g>
				<polygon class="st3" points="-63.4,-14.7 -63.2,-14.7 -63.4,-14.6 				"/>
			</g>
			<g>
				<polygon class="st3" points="-63.4,-14.5 -63.2,-14.5 -63.4,-14.4 				"/>
			</g>
			<g>
				<polygon class="st3" points="-63.4,-14.3 -63.2,-14.3 -63.4,-14.2 				"/>
			</g>
			<g>
				<polygon class="st3" points="-63.4,-14.1 -63.2,-14 -63.4,-14 				"/>
			</g>
			<g>
				<polygon class="st3" points="-63.4,-13.9 -63.2,-13.8 -63.4,-13.8 				"/>
			</g>
			<g>
				<polygon class="st3" points="-63.4,-13.7 -63.2,-13.6 -63.4,-13.6 				"/>
			</g>
			<g>
				<polygon class="st3" points="-63.4,-13.5 -63.2,-13.4 -63.4,-13.4 				"/>
			</g>
			<g>
				<polygon class="st3" points="-63.4,-13.3 -63.2,-13.2 -63.4,-13.2 				"/>
			</g>
			<g>
				<polygon class="st3" points="-63.4,-13.1 -63.2,-13 -63.4,-12.9 				"/>
			</g>
			<g>
				<polygon class="st3" points="-63.4,-12.8 -63.2,-12.8 -63.4,-12.7 				"/>
			</g>
			<g>
				<polygon class="st3" points="-63.4,-12.6 -63.2,-12.6 -63.4,-12.5 				"/>
			</g>
			<g>
				<polygon class="st3" points="-63.4,-12.4 -63.2,-12.4 -63.4,-12.3 				"/>
			</g>
			<g>
				<polygon class="st3" points="-63.4,-12.2 -63.2,-12.2 -63.4,-12.1 				"/>
			</g>
			<g>
				<polygon class="st3" points="-63.4,-12 -63.2,-12 -63.4,-11.9 				"/>
			</g>
			<g>
				<polygon class="st3" points="-63.4,-11.8 -63.2,-11.7 -63.4,-11.7 				"/>
			</g>
			<g>
				<polygon class="st3" points="-63.4,-11.6 -63.2,-11.5 -63.4,-11.5 				"/>
			</g>
			<g>
				<polygon class="st3" points="-63.4,-11.4 -63.2,-11.3 -63.4,-11.3 				"/>
			</g>
			<g>
				<polygon class="st3" points="-63.4,-11.2 -63.2,-11.1 -63.4,-11.1 				"/>
			</g>
			<g>
				<polygon class="st3" points="-63.4,-11 -63.2,-10.9 -63.4,-10.9 				"/>
			</g>
			<g>
				<polygon class="st3" points="-63.4,-10.8 -63.2,-10.7 -63.4,-10.7 				"/>
			</g>
			<g>
				<polygon class="st3" points="-63.4,-10.5 -63.2,-10.5 -63.4,-10.4 				"/>
			</g>
			<g>
				<polygon class="st3" points="-63.4,-10.3 -63.2,-10.3 -63.4,-10.2 				"/>
			</g>
			<g>
				<polygon class="st3" points="-63.4,-10.1 -63.2,-10.1 -63.4,-10 				"/>
			</g>
			<g>
				<polygon class="st3" points="-63.4,-9.9 -63.2,-9.9 -63.4,-9.8 				"/>
			</g>
			<g>
				<polygon class="st3" points="-63.4,-9.7 -63.2,-9.7 -63.4,-9.6 				"/>
			</g>
			<g>
				<polygon class="st3" points="-63.4,-9.5 -63.2,-9.5 -63.4,-9.4 				"/>
			</g>
			<g>
				<polygon class="st3" points="-63.4,-9.3 -63.2,-9.2 -63.4,-9.2 				"/>
			</g>
			<g>
				<polygon class="st3" points="-63.4,-9.1 -63.2,-9 -63.4,-9 				"/>
			</g>
			<g>
				<polygon class="st3" points="-63.4,-8.9 -63.2,-8.8 -63.4,-8.8 				"/>
			</g>
			<g>
				<polygon class="st3" points="-63.4,-8.7 -63.2,-8.6 -63.4,-8.6 				"/>
			</g>
			<g>
				<polygon class="st3" points="-63.4,-8.5 -63.2,-8.4 -63.4,-8.4 				"/>
			</g>
			<g>
				<polygon class="st3" points="-63.4,-8.3 -63.3,-8.2 -63.4,-8.1 				"/>
			</g>
			<g>
				<polygon class="st3" points="-63.4,-8 -63.3,-8 -63.4,-7.9 				"/>
			</g>
			<g>
				<polygon class="st3" points="-63.4,-7.8 -63.3,-7.8 -63.4,-7.7 				"/>
			</g>
			<g>
				<polygon class="st3" points="-63.4,-7.6 -63.3,-7.6 -63.4,-7.5 				"/>
			</g>
			<g>
				<polygon class="st3" points="-63.4,-7.4 -63.3,-7.4 -63.4,-7.3 				"/>
			</g>
			<g>
				<polygon class="st3" points="-63.4,-7.2 -63.3,-7.2 -63.4,-7.1 				"/>
			</g>
			<g>
				<polygon class="st3" points="-63.4,-7 -63.3,-6.9 -63.4,-6.9 				"/>
			</g>
			<g>
				<polygon class="st3" points="-63.4,-6.8 -63.3,-6.7 -63.4,-6.7 				"/>
			</g>
			<g>
				<polygon class="st3" points="-63.4,-6.6 -63.3,-6.5 -63.4,-6.5 				"/>
			</g>
			<g>
				<polygon class="st3" points="-63.4,-6.4 -63.3,-6.3 -63.4,-6.3 				"/>
			</g>
			<g>
				<polygon class="st3" points="-63.4,-6.2 -63.3,-6.1 -63.4,-6.1 				"/>
			</g>
			<g>
				<polygon class="st3" points="-63.4,-6 -63.3,-5.9 -63.4,-5.9 				"/>
			</g>
			<g>
				<polygon class="st3" points="-63.4,-5.7 -63.3,-5.7 -63.4,-5.6 				"/>
			</g>
			<g>
				<polygon class="st3" points="-63.4,-5.5 -63.3,-5.5 -63.4,-5.4 				"/>
			</g>
			<g>
				<polygon class="st3" points="-63.4,-5.3 -63.3,-5.3 -63.4,-5.2 				"/>
			</g>
			<g>
				<polygon class="st3" points="-63.4,-5.1 -63.3,-5.1 -63.4,-5 				"/>
			</g>
			<g>
				<polygon class="st3" points="-63.4,-4.9 -63.3,-4.9 -63.4,-4.8 				"/>
			</g>
			<g>
				<polygon class="st3" points="-63.4,-4.7 -63.3,-4.7 -63.4,-4.6 				"/>
			</g>
			<g>
				<polygon class="st3" points="-63.4,-4.5 -63.3,-4.4 -63.4,-4.4 				"/>
			</g>
			<g>
				<polygon class="st3" points="-63.4,-4.3 -63.3,-4.2 -63.4,-4.2 				"/>
			</g>
			<g>
				<polygon class="st3" points="-63.4,-4.1 -63.3,-4 -63.4,-4 				"/>
			</g>
			<g>
				<polygon class="st3" points="-63.4,-3.9 -63.3,-3.8 -63.4,-3.8 				"/>
			</g>
			<g>
				<polygon class="st3" points="-63.4,-3.7 -63.3,-3.6 -63.4,-3.6 				"/>
			</g>
			<g>
				<polygon class="st3" points="-63.4,-3.4 -63.3,-3.4 -63.4,-3.3 				"/>
			</g>
			<g>
				<polygon class="st3" points="-63.4,-3.2 -63.3,-3.2 -63.4,-3.1 				"/>
			</g>
			<g>
				<polygon class="st3" points="-63.4,-3 -63.3,-3 -63.4,-2.9 				"/>
			</g>
			<g>
				<polygon class="st3" points="-63.4,-2.8 -63.3,-2.8 -63.4,-2.7 				"/>
			</g>
			<g>
				<polygon class="st3" points="-63.4,-2.6 -63.3,-2.6 -63.4,-2.5 				"/>
			</g>
			<g>
				<polygon class="st3" points="-63.4,-2.4 -63.3,-2.4 -63.4,-2.3 				"/>
			</g>
			<g>
				<polygon class="st3" points="-63.4,-2.2 -63.3,-2.1 -63.4,-2.1 				"/>
			</g>
			<g>
				<polygon class="st3" points="-63.4,-2 -63.3,-1.9 -63.4,-1.9 				"/>
			</g>
			<g>
				<polygon class="st3" points="-63.4,-1.8 -63.3,-1.7 -63.4,-1.7 				"/>
			</g>
			<g>
				<polygon class="st3" points="-63.4,-1.6 -63.3,-1.5 -63.4,-1.5 				"/>
			</g>
			<g>
				<polygon class="st3" points="-63.4,-1.4 -63.3,-1.3 -63.4,-1.3 				"/>
			</g>
			<g>
				<polygon class="st3" points="-63.4,-1.2 -63.3,-1.1 -63.4,-1 				"/>
			</g>
			<g>
				<polygon class="st3" points="-63.4,-0.9 -63.3,-0.9 -63.4,-0.8 				"/>
			</g>
			<g>
				<polygon class="st3" points="-63.4,-0.7 -63.3,-0.7 -63.4,-0.6 				"/>
			</g>
			<g>
				<polygon class="st3" points="-63.4,-0.5 -63.3,-0.5 -63.4,-0.4 				"/>
			</g>
			<g>
				<polygon class="st3" points="-63.4,-0.3 -63.3,-0.3 -63.4,-0.2 				"/>
			</g>
			<g>
				<polygon class="st3" points="-63.4,-0.1 -63.3,-0.1 -63.4,0 				"/>
			</g>
			<g>
				<polygon class="st3" points="-63.4,0.1 -63.3,0.2 -63.4,0.2 				"/>
			</g>
			<g>
				<polygon class="st3" points="-63.4,0.3 -63.3,0.4 -63.4,0.4 				"/>
			</g>
			<g>
				<polygon class="st3" points="-63.4,0.5 -63.3,0.6 -63.4,0.6 				"/>
			</g>
			<g>
				<polygon class="st3" points="-63.4,0.7 -63.3,0.8 -63.4,0.8 				"/>
			</g>
			<g>
				<polygon class="st3" points="-63.4,0.9 -63.3,1 -63.4,1 				"/>
			</g>
			<g>
				<polygon class="st3" points="-63.4,1.1 -63.3,1.2 -63.4,1.2 				"/>
			</g>
			<g>
				<polygon class="st3" points="-63.4,1.4 -63.3,1.4 -63.4,1.5 				"/>
			</g>
			<g>
				<polygon class="st3" points="-63.4,1.6 -63.3,1.6 -63.4,1.7 				"/>
			</g>
			<g>
				<polygon class="st3" points="-63.4,1.8 -63.3,1.8 -63.4,1.9 				"/>
			</g>
			<g>
				<polygon class="st3" points="-63.4,2 -63.3,2 -63.4,2.1 				"/>
			</g>
			<g>
				<polygon class="st3" points="-63.4,2.2 -63.3,2.2 -63.4,2.3 				"/>
			</g>
			<g>
				<polygon class="st3" points="-63.4,2.4 -63.3,2.4 -63.4,2.5 				"/>
			</g>
			<g>
				<polygon class="st3" points="-63.4,2.6 -63.3,2.7 -63.4,2.7 				"/>
			</g>
			<g>
				<polygon class="st3" points="-63.4,2.8 -63.3,2.9 -63.4,2.9 				"/>
			</g>
			<g>
				<polygon class="st3" points="-63.4,3 -63.3,3.1 -63.4,3.1 				"/>
			</g>
			<g>
				<polygon class="st3" points="-63.4,3.2 -63.3,3.3 -63.4,3.3 				"/>
			</g>
			<g>
				<polygon class="st3" points="-63.4,3.4 -63.3,3.5 -63.4,3.5 				"/>
			</g>
			<g>
				<polygon class="st3" points="-63.4,3.6 -63.3,3.7 -63.4,3.8 				"/>
			</g>
			<g>
				<polygon class="st3" points="-63.4,3.9 -63.3,3.9 -63.4,4 				"/>
			</g>
			<g>
				<polygon class="st3" points="-63.4,4.1 -63.3,4.1 -63.4,4.2 				"/>
			</g>
			<g>
				<polygon class="st3" points="-63.4,4.3 -63.3,4.3 -63.4,4.4 				"/>
			</g>
			<g>
				<polygon class="st3" points="-63.4,4.5 -63.3,4.5 -63.4,4.6 				"/>
			</g>
			<g>
				<polygon class="st3" points="-63.4,4.7 -63.3,4.7 -63.4,4.8 				"/>
			</g>
			<g>
				<polygon class="st3" points="-63.4,4.9 -63.3,5 -63.4,5 				"/>
			</g>
			<g>
				<polygon class="st3" points="-63.4,5.1 -63.3,5.2 -63.4,5.2 				"/>
			</g>
			<g>
				<polygon class="st3" points="-63.4,5.3 -63.3,5.4 -63.4,5.4 				"/>
			</g>
			<g>
				<polygon class="st3" points="-63.4,5.5 -63.3,5.6 -63.4,5.6 				"/>
			</g>
			<g>
				<polygon class="st3" points="-63.4,5.7 -63.3,5.8 -63.4,5.8 				"/>
			</g>
			<g>
				<polygon class="st3" points="-63.4,5.9 -63.3,6 -63.4,6.1 				"/>
			</g>
			<g>
				<polygon class="st3" points="-63.4,6.2 -63.3,6.2 -63.4,6.3 				"/>
			</g>
			<g>
				<polygon class="st3" points="-63.4,6.4 -63.3,6.4 -63.4,6.5 				"/>
			</g>
			<g>
				<polygon class="st3" points="-63.4,6.6 -63.3,6.6 -63.4,6.7 				"/>
			</g>
			<g>
				<polygon class="st3" points="-63.4,6.8 -63.3,6.8 -63.4,6.9 				"/>
			</g>
			<g>
				<polygon class="st3" points="-63.4,7 -63.3,7 -63.4,7.1 				"/>
			</g>
			<g>
				<polygon class="st3" points="-63.4,7.2 -63.3,7.3 -63.4,7.3 				"/>
			</g>
			<g>
				<polygon class="st3" points="-63.4,7.4 -63.3,7.5 -63.4,7.5 				"/>
			</g>
			<g>
				<polygon class="st3" points="-63.4,7.6 -63.3,7.7 -63.4,7.7 				"/>
			</g>
			<g>
				<polygon class="st3" points="-63.4,7.8 -63.3,7.9 -63.4,7.9 				"/>
			</g>
			<g>
				<polygon class="st3" points="-63.4,8 -63.3,8.1 -63.4,8.1 				"/>
			</g>
			<g>
				<polygon class="st3" points="-63.4,8.2 -63.3,8.3 -63.4,8.3 				"/>
			</g>
			<g>
				<polygon class="st3" points="-63.4,8.5 -63.3,8.5 -63.4,8.6 				"/>
			</g>
		</g>
	</g>
</g>
<g>
	<g>
		<path class="st2" d="M-36.9-50.4h-7.5c-1,0-1.8,0.6-1.8,1.4v5.8c0,0.8,0.8,1.4,1.8,1.4h7.5c1,0,1.8-0.6,1.8-1.4V-49
			C-35.2-49.8-36-50.4-36.9-50.4z M-40.7-43.5c-1.9,0-3.4-1.2-3.4-2.6s1.5-2.6,3.4-2.6s3.4,1.2,3.4,2.6S-38.8-43.5-40.7-43.5z"/>
	</g>
	<g>
		<path class="st3" d="M-36.9-42.1h-7.5c-0.9,0-1.5-0.5-1.5-1.2V-49c0-0.7,0.7-1.2,1.5-1.2h7.5c0.9,0,1.5,0.5,1.5,1.2v5.8
			C-35.4-42.6-36.1-42.1-36.9-42.1z M-44.4-50.1c-0.7,0-1.3,0.5-1.3,1v5.8c0,0.6,0.6,1,1.3,1h7.5c0.7,0,1.3-0.5,1.3-1V-49
			c0-0.6-0.6-1-1.3-1H-44.4z M-40.7-43.2c-2.1,0-3.9-1.3-3.9-3c0-1.6,1.7-3,3.9-3c2.1,0,3.9,1.3,3.9,3
			C-36.8-44.5-38.5-43.2-40.7-43.2z"/>
	</g>
	<g>
		<g>
			<path class="st3" d="M-37.2-42.3c0,0,0.4,0,0.9-0.3c0.4-0.3,0.6-0.7,0.6-0.7s-0.1,0.4-0.6,0.7C-36.7-42.3-37.2-42.3-37.2-42.3z"
				/>
		</g>
		<g>
			<path class="st3" d="M-37-42.3c0,0,0.4-0.1,0.8-0.3c0.4-0.2,0.6-0.6,0.6-0.6s-0.1,0.4-0.5,0.6C-36.5-42.2-37-42.3-37-42.3z"/>
		</g>
		<g>
			<path class="st3" d="M-36.8-42.2c0,0,0.3,0,0.6-0.2c0.3-0.2,0.5-0.5,0.5-0.5s-0.1,0.3-0.4,0.5C-36.4-42.2-36.8-42.2-36.8-42.2z"
				/>
		</g>
	</g>
	<g>
		<g>
			<path class="st3" d="M-44.2-42.3c0,0-0.4,0-0.9-0.3c-0.4-0.3-0.6-0.7-0.6-0.7s0.1,0.4,0.6,0.7C-44.7-42.3-44.2-42.3-44.2-42.3z"
				/>
		</g>
		<g>
			<path class="st3" d="M-44.4-42.3c0,0-0.4-0.1-0.8-0.3c-0.4-0.2-0.6-0.6-0.6-0.6s0.1,0.4,0.5,0.6C-44.8-42.2-44.4-42.3-44.4-42.3z
				"/>
		</g>
		<g>
			<path class="st3" d="M-44.6-42.2c0,0-0.3,0-0.6-0.2c-0.3-0.2-0.5-0.5-0.5-0.5s0.1,0.3,0.4,0.5C-44.9-42.2-44.6-42.2-44.6-42.2z"
				/>
		</g>
	</g>
	<g>
		<g>
			<path class="st3" d="M-37.2-50c0,0,0.4,0,0.9,0.3c0.4,0.3,0.6,0.7,0.6,0.7s-0.1-0.4-0.6-0.7C-36.7-50.1-37.2-50-37.2-50z"/>
		</g>
		<g>
			<path class="st3" d="M-37-50c0,0,0.4,0.1,0.8,0.3c0.4,0.2,0.6,0.6,0.6,0.6s-0.1-0.4-0.5-0.6C-36.5-50.1-37-50-37-50z"/>
		</g>
		<g>
			<path class="st3" d="M-36.8-50.1c0,0,0.3,0,0.6,0.2c0.3,0.2,0.5,0.5,0.5,0.5s-0.1-0.3-0.4-0.5C-36.4-50.1-36.8-50.1-36.8-50.1z"
				/>
		</g>
	</g>
	<g>
		<g>
			<path class="st3" d="M-44.2-50c0,0-0.4,0-0.9,0.3c-0.4,0.3-0.6,0.7-0.6,0.7s0.1-0.4,0.6-0.7C-44.7-50.1-44.2-50-44.2-50z"/>
		</g>
		<g>
			<path class="st3" d="M-44.4-50c0,0-0.4,0.1-0.8,0.3c-0.4,0.2-0.6,0.6-0.6,0.6s0.1-0.4,0.5-0.6C-44.8-50.1-44.4-50-44.4-50z"/>
		</g>
		<g>
			<path class="st3" d="M-44.6-50.1c0,0-0.3,0-0.6,0.2c-0.3,0.2-0.5,0.5-0.5,0.5s0.1-0.3,0.4-0.5C-44.9-50.1-44.6-50.1-44.6-50.1z"
				/>
		</g>
	</g>
</g>
<g>
	<g>
		<g>
			<circle class="st2" cx="42.5" cy="31.5" r="26.7"/>
		</g>
		<g>
			<path class="st3" d="M43.6,55.8c0,0-0.4,0-1.2,0.1c-0.4,0-0.9,0.1-1.5,0.1c-0.6,0-1.3-0.1-2.1-0.1c-0.8-0.1-1.6-0.2-2.5-0.4
				c-0.5-0.1-0.9-0.2-1.4-0.4c-0.5-0.1-1-0.3-1.5-0.5c-2.1-0.7-4.3-1.9-6.4-3.6c-2.1-1.7-4.2-3.9-5.7-6.7c-1.6-2.8-2.7-6-3.1-9.5
				c0-0.4-0.1-0.9-0.1-1.3l-0.1-0.7l0-0.7l0-1.2l0-0.6l0.1-0.7c0.1-0.9,0.2-1.9,0.5-2.8c0.2-0.9,0.4-1.8,0.8-2.7
				c1.2-3.5,3.3-6.8,5.9-9.5c2.7-2.7,6-4.7,9.5-5.9c3.5-1.2,7.3-1.6,10.7-1.2c3.6,0.4,6.8,1.5,9.6,3.1c2.8,1.6,5,3.6,6.7,5.7
				c1.7,2.1,2.9,4.3,3.6,6.4c0.2,0.5,0.4,1,0.5,1.5c0.1,0.5,0.3,1,0.4,1.4c0.2,0.9,0.3,1.8,0.4,2.5c0,0.8,0.1,1.4,0.1,2
				c0,0.6,0,1.1-0.1,1.5c-0.1,0.8-0.1,1.2-0.1,1.2s-0.1-0.4-0.2-1.2c-0.1-0.4-0.1-0.9-0.3-1.4c-0.1-0.6-0.3-1.2-0.5-1.9
				c-0.3-0.7-0.5-1.5-0.8-2.3c-0.4-0.8-0.7-1.7-1.3-2.5c-1-1.8-2.4-3.5-4.1-5.2c-1.7-1.7-3.9-3.2-6.3-4.3c-2.4-1.1-5.2-1.8-8-1.9
				l-1.2,0l-0.6,0l0,0c0.2,0,0,0,0.1,0l-0.1,0l-0.1,0l-0.3,0c-0.7,0.1-1.5,0.1-2.2,0.2c-0.7,0.1-1.5,0.2-2.2,0.5
				c-0.7,0.2-1.4,0.4-2.1,0.7c-2.8,1.1-5.4,2.7-7.5,4.9c-2.1,2.1-3.8,4.8-4.9,7.5c-0.3,0.7-0.5,1.4-0.7,2.1
				c-0.2,0.7-0.3,1.4-0.5,2.1L23,30.3l0,0.6l-0.1,1.2l0,0.3l0,0.2l0,0.1c0,0,0,0.1,0-0.1l0,0l0,0.5l0,1.1c0.1,2.9,0.8,5.6,1.9,8.1
				c1.1,2.4,2.6,4.6,4.3,6.3c1.7,1.7,3.5,3.1,5.2,4.1c0.8,0.6,1.7,0.8,2.5,1.3c0.8,0.3,1.6,0.6,2.3,0.8c0.7,0.2,1.3,0.3,1.9,0.5
				c0.6,0.2,1.1,0.2,1.5,0.3C43.2,55.7,43.6,55.8,43.6,55.8z"/>
		</g>
		<g>
			<path class="st3" d="M43.6,51.9c0,0-0.4,0-1,0.1c-0.7,0.1-1.6,0.1-2.9,0c-0.6-0.1-1.3-0.2-2.1-0.3c-0.7-0.2-1.6-0.4-2.4-0.7
				c-1.7-0.6-3.6-1.6-5.3-3.1c-1.8-1.4-3.5-3.3-4.8-5.6c-1.3-2.3-2.3-5.1-2.6-8l-0.1-1.1l0-0.6l0-0.6l0-1l0-0.5l0.1-0.6
				c0.2-1.6,0.5-3.1,1-4.6c1-3,2.7-5.8,4.9-8.1c2.2-2.3,5-4,8-5.1c2.9-1.1,6.2-1.4,9-1c3,0.3,5.8,1.3,8.1,2.7
				c2.3,1.4,4.1,3.1,5.5,4.9c1.4,1.8,2.4,3.7,2.9,5.4c0.2,0.4,0.3,0.8,0.4,1.3c0.1,0.4,0.2,0.8,0.3,1.2c0.1,0.8,0.2,1.5,0.3,2.1
				c0.1,1.3,0.1,2.3,0,2.9c-0.1,0.7-0.1,1-0.1,1s-0.1-0.3-0.2-1c-0.1-0.3-0.1-0.7-0.2-1.2c-0.1-0.5-0.3-1-0.4-1.6
				c-0.2-0.6-0.4-1.2-0.7-1.9c-0.4-0.6-0.6-1.4-1.1-2.1c-0.8-1.4-2-2.9-3.3-4.3c-1.4-1.4-3.1-2.6-5.1-3.5c-2-0.9-4.2-1.5-6.5-1.6
				l-1,0l-0.5,0l0,0c0.2,0,0,0,0.1,0l-0.1,0l-0.1,0l-0.2,0c-0.6,0.1-1.2,0.1-1.8,0.2c-0.6,0.1-1.2,0.2-1.7,0.4
				c-0.6,0.2-1.2,0.3-1.7,0.6c-2.2,0.9-4.3,2.2-6,4c-1.7,1.8-3,3.9-3.9,6.2c-0.2,0.6-0.4,1.1-0.5,1.7c-0.2,0.6-0.2,1.1-0.4,1.7
				L27,30.7l0,0.5l-0.1,1l0,0.3l0,0.1l0,0.1c0,0,0,0.1,0-0.1l0,0l0,0.4l0,0.9c0.1,2.3,0.6,4.6,1.5,6.6c0.9,2,2.1,3.8,3.4,5.2
				c1.3,1.4,2.8,2.6,4.2,3.4c0.7,0.5,1.4,0.7,2,1.1c0.7,0.3,1.3,0.5,1.8,0.7c0.6,0.2,1.1,0.3,1.5,0.4c0.5,0.1,0.9,0.2,1.2,0.3
				C43.2,51.8,43.6,51.9,43.6,51.9z"/>
		</g>
		<g>
			<path class="st3" d="M44.9,50.1c0,0-0.3,0-0.9,0.1c-0.6,0.1-1.4,0.1-2.5,0.1c-0.5-0.1-1.1-0.1-1.8-0.2c-0.6-0.2-1.4-0.3-2.1-0.6
				c-1.5-0.5-3.1-1.3-4.6-2.5c-1.5-1.2-3-2.8-4.2-4.8c-1.2-2-2-4.3-2.3-6.8l-0.1-0.9l0-0.5l0-0.5l0-0.8l0-0.4l0.1-0.5
				c0.1-1.4,0.4-2.7,0.8-4c0.8-2.6,2.3-5,4.2-7c1.9-2,4.3-3.5,6.9-4.4c2.5-0.9,5.3-1.2,7.7-0.9c2.6,0.3,5,1.2,6.9,2.4
				c2,1.2,3.5,2.7,4.7,4.3c1.2,1.6,1.9,3.2,2.4,4.6c0.3,0.7,0.4,1.4,0.5,2.1c0.1,0.7,0.2,1.3,0.2,1.8c0,1.1,0,1.9-0.1,2.5
				c-0.1,0.6-0.1,0.9-0.1,0.9s-0.1-0.3-0.2-0.8c-0.1-0.3-0.1-0.6-0.2-1c-0.1-0.4-0.3-0.8-0.4-1.3c-0.2-0.5-0.4-1-0.6-1.5
				c-0.3-0.5-0.5-1.1-0.9-1.7c-0.7-1.2-1.7-2.3-2.8-3.4c-1.2-1.1-2.6-2.1-4.2-2.8c-1.6-0.7-3.5-1.1-5.3-1.2l-0.8,0l-0.4,0l0,0
				c0.2,0,0.1,0,0.1,0l0,0l-0.1,0l-0.2,0c-0.5,0.1-1,0-1.4,0.2c-0.5,0.1-0.9,0.2-1.4,0.3c-0.5,0.1-0.9,0.3-1.4,0.5
				c-1.8,0.7-3.5,1.8-4.9,3.2c-1.4,1.4-2.4,3.1-3.1,4.9c-0.4,0.9-0.6,1.9-0.8,2.7l-0.1,0.3l0,0.4l-0.1,0.8l0,0.2l0,0.1l0,0.1
				c0,0,0,0.1,0-0.1l0,0l0,0.4l0,0.7c0,1.9,0.5,3.7,1.1,5.4c0.7,1.7,1.6,3.1,2.7,4.3c1.1,1.2,2.2,2.2,3.4,2.9
				c0.6,0.4,1.1,0.6,1.7,0.9c0.5,0.3,1.1,0.5,1.5,0.7c0.5,0.1,0.9,0.3,1.3,0.4c0.4,0.1,0.7,0.2,1,0.2C44.6,50.1,44.9,50.1,44.9,50.1
				z"/>
		</g>
		<g>
			<path class="st4" d="M57.6,31.5c0,8.3-6.7,15.1-15.1,15.1s-15.1-6.7-15.1-15.1c0-8.3,6.7-15.1,15.1-15.1S57.6,23.2,57.6,31.5z"/>
		</g>
	</g>
	<g>
		<path class="st1" d="M43.3,47.1h-1.6c-2.1,0-3.9-1.8-3.9-3.9V19.8c0-2.1,1.8-3.9,3.9-3.9h1.6c2.1,0,3.9,1.8,3.9,3.9v23.5
			C47.2,45.4,45.4,47.1,43.3,47.1z"/>
		<path class="st1" d="M58.1,30.7v1.6c0,2.1-1.8,3.9-3.9,3.9H30.8c-2.1,0-3.9-1.8-3.9-3.9v-1.6c0-2.1,1.8-3.9,3.9-3.9h23.5
			C56.4,26.8,58.1,28.6,58.1,30.7z"/>
	</g>
</g>
<g>
	<path class="st5" d="M10,21.6v-15c0-0.2,0.2-0.4,0.4-0.4h3c0.2,0,0.4,0.2,0.4,0.4v15c0,0.2-0.2,0.4-0.4,0.4h-3
		C10.1,22,10,21.8,10,21.6z"/>
	<path class="st6" d="M10,38.8v-15c0-0.2,0.2-0.4,0.4-0.4h3c0.2,0,0.4,0.2,0.4,0.4v15c0,0.2-0.2,0.4-0.4,0.4h-3
		C10.1,39.1,10,39,10,38.8z"/>
	<path class="st7" d="M10,56.4v-15c0-0.2,0.2-0.4,0.4-0.4h3c0.2,0,0.4,0.2,0.4,0.4v15c0,0.2-0.2,0.4-0.4,0.4h-3
		C10.1,56.8,10,56.6,10,56.4z"/>
</g>
</svg>
