<?xml version="1.0" encoding="utf-8"?>
<!-- Generator: Adobe Illustrator 26.5.0, SVG Export Plug-In . SVG Version: 6.00 Build 0)  -->
<svg version="1.1" id="Capa_1" xmlns="http://www.w3.org/2000/svg" xmlns:xlink="http://www.w3.org/1999/xlink" x="0px" y="0px"
	 viewBox="0 0 85 63" style="enable-background:new 0 0 85 63;" xml:space="preserve">
<style type="text/css">
	.st0{display:none;}
	.st1{fill-rule:evenodd;clip-rule:evenodd;fill:#FFFFFF;}
	.st2{fill:#FFFFFF;filter:url(#Adobe_OpacityMaskFilter);}
	.st3{mask:url(#path-2-inside-1_00000075160110046378648140000015171827025850848140_);fill:#FFFFFF;}
	.st4{fill:#55575B;}
	.st5{fill:#9A9EA5;}
	.st6{fill:#8D8F91;}
	.st7{fill:#FFFFFF;}
	.st8{fill:#D52B1E;}
	.st9{fill:#F9E300;}
	.st10{fill:#007934;}
</style>
<rect y="0" class="st0" width="85" height="63"/>
<path class="st1" d="M164.6,19.3c0,0.2,0,0.5,0,0.7c0,8.9,7.2,16.1,16.1,16.1c8.9,0,16.1-7.2,16.1-16.1c0-0.3,0-0.5,0-0.8
	c1.6-0.2,3.2-0.5,4.8-0.8l0.2,0c0,0.5,0.1,1.1,0.1,1.6c0,11.6-9.4,21.1-21.1,21.1c-11.6,0-21.1-9.4-21.1-21.1c0-0.5,0-1.1,0.1-1.6
	l0.1,0C161.3,18.8,163,19.1,164.6,19.3z M190,7c-2.6-1.9-5.9-3-9.4-3c-3.5,0-6.8,1.1-9.4,3c-2.1-0.2-4.3-0.5-6.4-0.9
	c3.9-4.4,9.5-7.2,15.8-7.2c6.3,0,12,2.8,15.8,7.2C194.3,6.5,192.2,6.8,190,7z M206.6,17.4c0.1,0.9,0.1,1.7,0.1,2.6
	c0,14.4-11.7,26.1-26.1,26.1c-14.4,0-26.1-11.7-26.1-26.1c0-0.9,0-1.7,0.1-2.6l-4.9-1c-0.1,1.2-0.2,2.4-0.2,3.6
	c0,17.2,13.9,31.1,31.1,31.1s31.1-13.9,31.1-31.1c0-1.2-0.1-2.4-0.2-3.6L206.6,17.4z M207.3,4L202,5.1C197.3-1.6,189.5-6,180.6-6
	c-8.8,0-16.6,4.4-21.3,11.1L154,4.1c5.4-9,15.3-15.1,26.6-15.1C191.9-11,201.8-5,207.3,4z"/>
<defs>
	<filter id="Adobe_OpacityMaskFilter" filterUnits="userSpaceOnUse" x="128.9" y="-15" width="109" height="50">
		<feColorMatrix  type="matrix" values="1 0 0 0 0  0 1 0 0 0  0 0 1 0 0  0 0 0 1 0"/>
	</filter>
</defs>
<mask maskUnits="userSpaceOnUse" x="128.9" y="-15" width="109" height="50" id="path-2-inside-1_00000075160110046378648140000015171827025850848140_">
	<path class="st2" d="M184,16.9C158,18.2,141.5,2,141.5,2s26,9,42.5,9s42.5-9,42.5-9S209.9,15.6,184,16.9z"/>
</mask>
<path class="st3" d="M141.5,2l5.9-17l-18.5,29.9L141.5,2z M184,16.9l-0.9-18L184,16.9z M226.5,2l11.4,13.9L220.6-15L226.5,2z
	 M141.5,2c-12.6,12.8-12.6,12.9-12.6,12.9c0,0,0,0,0,0c0,0,0,0,0,0c0,0,0,0,0.1,0c0,0,0.1,0.1,0.1,0.1c0.1,0.1,0.2,0.2,0.3,0.3
	c0.2,0.2,0.6,0.5,1,0.9c0.8,0.7,1.8,1.6,3.1,2.6c2.6,2,6.4,4.6,11.1,7.1c9.4,5,23.3,9.9,40.3,9l-1.8-36c-9,0.5-16.4-2.1-21.7-4.9
	c-2.6-1.4-4.7-2.8-6-3.8c-0.6-0.5-1.1-0.9-1.3-1.1c-0.1-0.1-0.2-0.2-0.2-0.2c0,0,0,0,0,0c0,0,0,0,0,0c0,0,0,0,0,0c0,0,0,0,0,0
	c0,0,0,0,0,0C154.1-10.8,154.1-10.8,141.5,2z M184.9,34.9c15.9-0.8,28.9-5.4,37.9-9.7c4.5-2.2,8.1-4.3,10.6-6c1.3-0.8,2.3-1.6,3-2.1
	c0.4-0.3,0.7-0.5,0.9-0.7c0.1-0.1,0.2-0.2,0.3-0.2c0,0,0.1-0.1,0.1-0.1c0,0,0,0,0,0c0,0,0,0,0,0c0,0,0,0,0,0c0,0,0,0-11.4-13.9
	C215-11.9,215-11.9,215-11.9c0,0,0,0,0,0c0,0,0,0,0,0c0,0,0,0,0,0c0,0,0,0,0,0c0,0,0,0,0,0c0,0-0.1,0.1-0.2,0.2
	c-0.3,0.2-0.7,0.5-1.4,1c-1.4,0.9-3.6,2.2-6.4,3.6c-5.8,2.8-14,5.7-24.1,6.2L184.9,34.9z M226.5,2c-5.9-17-5.9-17-5.9-17
	c0,0,0,0,0,0c0,0,0,0,0,0c0,0,0,0,0,0c0,0,0,0,0,0c0,0-0.1,0-0.2,0.1c-0.2,0.1-0.4,0.1-0.7,0.2c-0.7,0.2-1.6,0.5-2.9,0.9
	c-2.5,0.8-6,1.8-9.9,2.9C198.5-8.7,189.8-7,184-7v36c10.7,0,23.2-2.8,32-5.1c4.6-1.2,8.7-2.4,11.5-3.3c1.5-0.5,2.6-0.8,3.5-1.1
	c0.4-0.1,0.7-0.2,1-0.3c0.1,0,0.2-0.1,0.3-0.1c0,0,0.1,0,0.1,0c0,0,0,0,0,0c0,0,0,0,0,0c0,0,0,0,0,0C232.3,19,232.4,19,226.5,2z
	 M184-7c-5.8,0-14.5-1.7-22.9-3.9c-4-1-7.4-2.1-9.9-2.9c-1.2-0.4-2.2-0.7-2.9-0.9c-0.3-0.1-0.6-0.2-0.7-0.2c-0.1,0-0.1,0-0.2-0.1
	c0,0,0,0,0,0c0,0,0,0,0,0c0,0,0,0,0,0c0,0,0,0,0,0c0,0,0,0-5.9,17c-5.9,17-5.9,17-5.9,17c0,0,0,0,0,0c0,0,0,0,0,0c0,0,0,0,0,0
	c0,0,0,0,0.1,0c0.1,0,0.2,0.1,0.3,0.1c0.2,0.1,0.6,0.2,1,0.3c0.8,0.3,2,0.7,3.5,1.1c2.9,0.9,6.9,2.1,11.5,3.3
	c8.8,2.3,21.3,5.1,32,5.1V-7z"/>
<g>
	<g>
		<g>
			<g>
				<circle class="st4" cx="45.4" cy="31.5" r="26.7"/>
			</g>
			<g>
				<path class="st5" d="M46.5,55.8c0,0-0.4,0-1.2,0.1c-0.4,0-0.9,0.1-1.5,0.1c-0.6,0-1.3-0.1-2.1-0.1c-0.8-0.1-1.6-0.2-2.5-0.4
					c-0.5-0.1-0.9-0.2-1.4-0.4c-0.5-0.1-1-0.3-1.5-0.5c-2.1-0.7-4.3-1.9-6.4-3.6c-2.1-1.7-4.2-3.9-5.7-6.7c-1.6-2.8-2.7-6-3.1-9.5
					c0-0.4-0.1-0.9-0.1-1.3L21,32.7l0-0.7l0-1.2l0-0.6l0.1-0.7c0.1-0.9,0.2-1.9,0.5-2.8c0.2-0.9,0.4-1.8,0.8-2.7
					c1.2-3.5,3.3-6.8,5.9-9.5c2.7-2.7,6-4.7,9.5-5.9c3.5-1.2,7.3-1.6,10.7-1.2c3.6,0.4,6.8,1.5,9.6,3.1c2.8,1.6,5,3.6,6.7,5.7
					c1.7,2.1,2.9,4.3,3.6,6.4c0.2,0.5,0.4,1,0.5,1.5c0.1,0.5,0.3,1,0.4,1.4c0.2,0.9,0.3,1.8,0.4,2.5c0,0.8,0.1,1.4,0.1,2
					c0,0.6,0,1.1-0.1,1.5c-0.1,0.8-0.1,1.2-0.1,1.2s-0.1-0.4-0.2-1.2c-0.1-0.4-0.1-0.9-0.3-1.4c-0.1-0.6-0.3-1.2-0.5-1.9
					c-0.3-0.7-0.5-1.5-0.8-2.3c-0.4-0.8-0.7-1.7-1.3-2.5c-1-1.8-2.4-3.5-4.1-5.2c-1.7-1.7-3.9-3.2-6.3-4.3c-2.4-1.1-5.2-1.8-8-1.9
					l-1.2,0l-0.6,0l0,0c0.2,0,0,0,0.1,0l-0.1,0l-0.1,0l-0.3,0c-0.7,0.1-1.5,0.1-2.2,0.2c-0.7,0.1-1.5,0.2-2.2,0.5
					c-0.7,0.2-1.4,0.4-2.1,0.7c-2.8,1.1-5.4,2.7-7.5,4.9c-2.1,2.1-3.8,4.8-4.9,7.5c-0.3,0.7-0.5,1.4-0.7,2.1
					c-0.2,0.7-0.3,1.4-0.5,2.1l-0.1,0.5l0,0.6l-0.1,1.2l0,0.3l0,0.2l0,0.1c0,0,0,0.1,0-0.1l0,0l0,0.5l0,1.1c0.1,2.9,0.8,5.6,1.9,8.1
					c1.1,2.4,2.6,4.6,4.3,6.3c1.7,1.7,3.5,3.1,5.2,4.1c0.8,0.6,1.7,0.8,2.5,1.3c0.8,0.3,1.6,0.6,2.3,0.8c0.7,0.2,1.3,0.3,1.9,0.5
					c0.6,0.2,1.1,0.2,1.5,0.3C46.1,55.7,46.5,55.8,46.5,55.8z"/>
			</g>
			<g>
				<path class="st5" d="M46.5,51.9c0,0-0.4,0-1,0.1c-0.7,0.1-1.6,0.1-2.9,0c-0.6-0.1-1.3-0.2-2.1-0.3c-0.7-0.2-1.6-0.4-2.4-0.7
					c-1.7-0.6-3.6-1.6-5.3-3.1c-1.8-1.4-3.5-3.3-4.8-5.6c-1.3-2.3-2.3-5.1-2.6-8l-0.1-1.1l0-0.6l0-0.6l0-1l0-0.5l0.1-0.6
					c0.2-1.6,0.5-3.1,1-4.6c1-3,2.7-5.8,4.9-8.1c2.2-2.3,5-4,8-5.1c2.9-1.1,6.2-1.4,9-1c3,0.3,5.8,1.3,8.1,2.7
					c2.3,1.4,4.1,3.1,5.5,4.9c1.4,1.8,2.4,3.7,2.9,5.4c0.2,0.4,0.3,0.8,0.4,1.3c0.1,0.4,0.2,0.8,0.3,1.2c0.1,0.8,0.2,1.5,0.3,2.1
					c0.1,1.3,0.1,2.3,0,2.9c-0.1,0.7-0.1,1-0.1,1s-0.1-0.3-0.2-1c-0.1-0.3-0.1-0.7-0.2-1.2c-0.1-0.5-0.3-1-0.4-1.6
					c-0.2-0.6-0.4-1.2-0.7-1.9c-0.4-0.6-0.6-1.4-1.1-2.1c-0.8-1.4-2-2.9-3.3-4.3c-1.4-1.4-3.1-2.6-5.1-3.5c-2-0.9-4.2-1.5-6.5-1.6
					l-1,0l-0.5,0l0,0c0.2,0,0,0,0.1,0l-0.1,0l-0.1,0l-0.2,0c-0.6,0.1-1.2,0.1-1.8,0.2c-0.6,0.1-1.2,0.2-1.7,0.4
					c-0.6,0.2-1.2,0.3-1.7,0.6c-2.2,0.9-4.3,2.2-6,4c-1.7,1.8-3,3.9-3.9,6.2c-0.2,0.6-0.4,1.1-0.5,1.7c-0.2,0.6-0.2,1.1-0.4,1.7
					l-0.1,0.4l0,0.5l-0.1,1l0,0.3l0,0.1l0,0.1c0,0,0,0.1,0-0.1l0,0l0,0.4l0,0.9c0.1,2.3,0.6,4.6,1.5,6.6c0.9,2,2.1,3.8,3.4,5.2
					c1.3,1.4,2.8,2.6,4.2,3.4c0.7,0.5,1.4,0.7,2,1.1c0.7,0.3,1.3,0.5,1.8,0.7c0.6,0.2,1.1,0.3,1.5,0.4c0.5,0.1,0.9,0.2,1.2,0.3
					C46.1,51.8,46.5,51.9,46.5,51.9z"/>
			</g>
			<g>
				<path class="st5" d="M47.8,50.1c0,0-0.3,0-0.9,0.1c-0.6,0.1-1.4,0.1-2.5,0.1c-0.5-0.1-1.1-0.1-1.8-0.2c-0.6-0.2-1.4-0.3-2.1-0.6
					C39.2,49,37.6,48.2,36,47c-1.5-1.2-3-2.8-4.2-4.8c-1.2-2-2-4.3-2.3-6.8l-0.1-0.9l0-0.5l0-0.5l0-0.8l0-0.4l0.1-0.5
					c0.1-1.4,0.4-2.7,0.8-4c0.8-2.6,2.3-5,4.2-7c1.9-2,4.3-3.5,6.9-4.4c2.5-0.9,5.3-1.2,7.7-0.9c2.6,0.3,5,1.2,6.9,2.4
					c2,1.2,3.5,2.7,4.7,4.3c1.2,1.6,1.9,3.2,2.4,4.6c0.3,0.7,0.4,1.4,0.5,2.1c0.1,0.7,0.2,1.3,0.2,1.8c0,1.1,0,1.9-0.1,2.5
					c-0.1,0.6-0.1,0.9-0.1,0.9s-0.1-0.3-0.2-0.8c-0.1-0.3-0.1-0.6-0.2-1c-0.1-0.4-0.3-0.8-0.4-1.3c-0.2-0.5-0.4-1-0.6-1.5
					c-0.3-0.5-0.5-1.1-0.9-1.7c-0.7-1.2-1.7-2.3-2.8-3.4c-1.2-1.1-2.6-2.1-4.2-2.8c-1.6-0.7-3.5-1.1-5.3-1.2l-0.8,0l-0.4,0l0,0
					c0.2,0,0.1,0,0.1,0l0,0l-0.1,0l-0.2,0c-0.5,0.1-1,0-1.4,0.2c-0.5,0.1-0.9,0.2-1.4,0.3c-0.5,0.1-0.9,0.3-1.4,0.5
					c-1.8,0.7-3.5,1.8-4.9,3.2c-1.4,1.4-2.4,3.1-3.1,4.9c-0.4,0.9-0.6,1.9-0.8,2.7l-0.1,0.3l0,0.4l-0.1,0.8l0,0.2l0,0.1l0,0.1
					c0,0,0,0.1,0-0.1l0,0l0,0.4l0,0.7c0,1.9,0.5,3.7,1.1,5.4c0.7,1.7,1.6,3.1,2.7,4.3c1.1,1.2,2.2,2.2,3.4,2.9
					c0.6,0.4,1.1,0.6,1.7,0.9c0.5,0.3,1.1,0.5,1.5,0.7c0.5,0.1,0.9,0.3,1.3,0.4c0.4,0.1,0.7,0.2,1,0.2
					C47.5,50.1,47.8,50.1,47.8,50.1z"/>
			</g>
			<g>
				<path class="st6" d="M60.5,31.5c0,8.3-6.7,15.1-15.1,15.1s-15.1-6.7-15.1-15.1c0-8.3,6.7-15.1,15.1-15.1S60.5,23.2,60.5,31.5z"
					/>
			</g>
		</g>
		<g>
			<path class="st7" d="M46.2,47.1h-1.6c-2.1,0-3.9-1.8-3.9-3.9V19.8c0-2.1,1.8-3.9,3.9-3.9h1.6c2.1,0,3.9,1.8,3.9,3.9v23.5
				C50.1,45.4,48.4,47.1,46.2,47.1z"/>
			<path class="st7" d="M61.1,30.7v1.6c0,2.1-1.8,3.9-3.9,3.9H33.7c-2.1,0-3.9-1.8-3.9-3.9v-1.6c0-2.1,1.8-3.9,3.9-3.9h23.5
				C59.3,26.8,61.1,28.6,61.1,30.7z"/>
		</g>
	</g>
	<g>
		<path class="st8" d="M12.9,21.6v-15c0-0.2,0.2-0.4,0.4-0.4h3c0.2,0,0.4,0.2,0.4,0.4v15c0,0.2-0.2,0.4-0.4,0.4h-3
			C13.1,22,12.9,21.8,12.9,21.6z"/>
		<path class="st9" d="M12.9,38.8v-15c0-0.2,0.2-0.4,0.4-0.4h3c0.2,0,0.4,0.2,0.4,0.4v15c0,0.2-0.2,0.4-0.4,0.4h-3
			C13.1,39.1,12.9,39,12.9,38.8z"/>
		<path class="st10" d="M12.9,56.4v-15c0-0.2,0.2-0.4,0.4-0.4h3c0.2,0,0.4,0.2,0.4,0.4v15c0,0.2-0.2,0.4-0.4,0.4h-3
			C13.1,56.8,12.9,56.6,12.9,56.4z"/>
	</g>
</g>
</svg>
